<svg width="109" height="88" viewBox="0 0 109 88" fill="none" xmlns="http://www.w3.org/2000/svg">
<path d="M0.806039 66.9613C2.88539 75.5827 8.57054 82.2287 17.0001 85.6281C20.5578 87.0643 24.4842 87.7523 28.6629 87.6718C29.2719 87.6597 29.9009 87.6316 30.5339 87.5873C41.171 86.827 51.3554 81.5287 58.0302 77.216C66.4437 71.7809 74.2403 64.7366 79.6009 57.7567C80.0016 61.4659 80.3982 65.1832 80.6186 67.7901C80.911 71.2137 83.5873 73.9895 86.9768 74.3878C87.5657 74.4562 88.1667 74.4562 88.7637 74.3758C92.5578 73.889 95.3663 70.2924 95.0258 66.3619C94.7613 63.3165 94.3126 59.1487 93.8759 55.1176L92.2132 37.1066C91.9608 33.9887 90.3021 31.2491 87.6659 29.5835C85.0297 27.922 81.8485 27.6123 78.9399 28.7387C59.6848 36.2054 44.2881 39.9267 44.1639 39.9589C40.2335 40.6388 37.5853 44.4043 38.2623 48.3509C38.9394 52.2975 42.6855 54.9607 46.6198 54.2808C47.0886 54.2003 56.039 51.9917 69.0519 47.671C64.8291 53.5848 57.7337 60.1182 50.1976 64.986C39.0797 72.1711 28.9474 74.774 22.3968 72.1309C18.4144 70.5257 15.8222 67.5889 14.9047 63.6383C13.6026 58.0423 15.5738 51.0141 20.3776 43.6399C23.6027 38.6876 27.6813 34.3589 32.3088 30.6939C37.7415 26.3852 46.0429 21.0226 54.4084 20.3105C56.3595 20.1456 58.2225 19.3168 59.5126 17.8404C60.8067 16.3599 61.4397 14.457 61.2954 12.5018C60.999 8.51905 57.5134 5.50581 53.5349 5.79949C40.4819 6.78513 28.5427 14.9921 21.6596 20.7048C15.7621 25.5967 10.6739 31.41 6.78767 38.0278C2.2764 45.7158 -1.77412 56.2561 0.806039 66.9613Z" fill="#00DC46" fill-opacity="1"/>
<path d="M95.1258 0.0023445C87.8101 0.139127 81.9687 6.22594 82.1049 13.572C82.2411 20.918 88.3029 26.7835 95.6186 26.6468C102.934 26.51 108.776 20.4232 108.64 13.0771C108.503 5.73112 102.442 -0.134438 95.1258 0.0023445Z" fill="#00DC46" fill-opacity="1"/>
</svg>
