<svg preserveAspectRatio="none" width="100%" height="100%" overflow="visible" style="display: block;" viewBox="-1.5 -4.5 1069.05 925.701" fill="none" xmlns="http://www.w3.org/2000/svg">
<path id="Vector" opacity="0.5" d="M9.03992 686.309C32.3603 783.019 96.1208 857.571 190.661 895.704C230.561 911.815 274.596 919.532 321.462 918.63C328.291 918.494 335.346 918.178 342.445 917.682C461.743 909.153 575.964 849.719 650.823 801.341C745.183 740.372 832.623 661.353 892.744 583.055C897.238 624.663 901.686 666.362 904.157 695.605C907.437 734.009 937.453 765.148 975.466 769.616C982.072 770.383 988.812 770.383 995.507 769.48C1038.06 764.02 1069.56 723.675 1065.74 679.585C1062.77 645.422 1057.74 598.669 1052.84 553.451L1034.19 351.411C1031.36 316.436 1012.76 285.704 983.195 267.021C953.629 248.383 917.952 244.908 885.33 257.544C669.381 341.302 581.501 379.728 580.108 380.089C536.028 387.715 506.327 429.955 513.921 474.226C521.515 518.497 563.527 548.372 607.652 540.746C612.909 539.843 628.491 518.386 774.435 469.918C727.075 536.257 647.498 609.545 562.978 664.151C438.288 744.75 324.652 773.948 251.186 744.299C206.522 726.292 177.45 693.349 167.16 649.033C152.557 586.259 174.664 507.42 228.539 424.699C264.711 369.146 310.453 320.588 362.351 279.476C423.28 231.144 516.382 170.988 610.203 163C632.086 161.15 652.98 151.853 667.448 135.291C681.962 118.684 689.061 97.3381 687.444 75.4057C684.119 30.7286 645.027 -3.0726 600.408 0.221776C454.015 11.2782 320.114 103.34 242.918 167.422C176.776 222.299 119.711 287.509 76.1254 361.745C25.5304 447.986 -19.8972 566.222 9.03992 686.309Z" fill="var(--fill-0, #008F2E)" stroke="rgb(2, 245, 79,1)" stroke-width="1"/>
</svg>
