<svg preserveAspectRatio="none" width="100%" height="100%" overflow="visible" style="display: block;" viewBox="0 0 198.89 114.112" fill="none" xmlns="http://www.w3.org/2000/svg">
<g id="Ellipse 369">
<mask id="path-1-inside-1_0_60" fill="white">
<path d="M194.645 114.103C196.849 114.255 198.767 112.592 198.836 110.383C199.561 87.4948 192.921 64.9365 179.838 46.0561C165.994 26.078 145.761 11.4085 122.468 4.4624C99.176 -2.48374 74.2128 -1.29263 51.6876 7.83967C30.4002 16.4702 12.4892 31.707 0.558778 51.2539C-0.592132 53.1396 0.101356 55.5819 2.0287 56.6616L27.7594 71.0754C29.6867 72.155 32.1147 71.4605 33.3034 69.5984C41.0448 57.4717 52.3809 48.0156 65.7745 42.5855C80.4069 36.6531 96.6229 35.8794 111.754 40.3916C126.884 44.9038 140.028 54.433 149.021 67.4108C157.253 79.2901 161.558 93.4106 161.393 107.797C161.367 110.006 163.018 111.917 165.222 112.069L194.645 114.103Z"/>
</mask>
<path d="M194.645 114.103C196.849 114.255 198.767 112.592 198.836 110.383C199.561 87.4948 192.921 64.9365 179.838 46.0561C165.994 26.078 145.761 11.4085 122.468 4.4624C99.176 -2.48374 74.2128 -1.29263 51.6876 7.83967C30.4002 16.4702 12.4892 31.707 0.558778 51.2539C-0.592132 53.1396 0.101356 55.5819 2.0287 56.6616L27.7594 71.0754C29.6867 72.155 32.1147 71.4605 33.3034 69.5984C41.0448 57.4717 52.3809 48.0156 65.7745 42.5855C80.4069 36.6531 96.6229 35.8794 111.754 40.3916C126.884 44.9038 140.028 54.433 149.021 67.4108C157.253 79.2901 161.558 93.4106 161.393 107.797C161.367 110.006 163.018 111.917 165.222 112.069L194.645 114.103Z" fill="var(--fill-0, #00DC46)" stroke="var(--stroke-0, #9B85DC)" stroke-width="68" mask="url(#path-1-inside-1_0_60)"/>
</g>
</svg>
