<svg preserveAspectRatio="none" width="100%" height="100%" overflow="visible" style="display: block;" viewBox="0 0 203.402 154.053" fill="none" xmlns="http://www.w3.org/2000/svg">
<path id="Ellipse 366" d="M201.055 65.0167C203.073 64.1162 203.985 61.7472 203.01 59.7649C197.306 48.1725 189.546 37.6985 180.095 28.8579C169.669 19.1056 157.397 11.5382 144.002 6.60146C130.607 1.66468 116.359 -0.541669 102.098 0.11235C87.8371 0.766369 73.8512 4.26754 60.9641 10.4096C48.0771 16.5517 36.5494 25.2106 27.06 35.8762C17.5707 46.5417 10.3116 58.9984 5.71027 72.5125C1.10895 86.0266 -0.741551 100.325 0.267766 114.565C1.18273 127.474 4.43106 140.099 9.84388 151.83C10.7694 153.835 13.1842 154.619 15.1541 153.619L41.453 140.27C43.423 139.27 44.1979 136.867 43.313 134.843C40.1409 127.587 38.228 119.833 37.6667 111.914C37.0111 102.664 38.2132 93.3756 41.2022 84.5969C44.1912 75.8182 48.9067 67.7263 55.071 60.798C61.2353 53.8696 68.7237 48.2448 77.0951 44.2549C85.4666 40.265 94.5518 37.9906 103.816 37.5658C113.08 37.1409 122.335 38.5742 131.036 41.7811C139.738 44.988 147.71 49.9038 154.482 56.2389C160.28 61.6619 165.098 68.0311 168.736 75.0647C169.751 77.0269 172.106 77.9386 174.124 77.0381L201.055 65.0167Z" fill="var(--fill-0, #4E33A0)"/>
</svg>
