<svg preserveAspectRatio="none" width="100%" height="100%" overflow="visible" style="display: block;" viewBox="0 0 40.4337 31.5417" fill="none" xmlns="http://www.w3.org/2000/svg">
<g id="Ellipse 368">
<mask id="path-1-inside-1_0_54" fill="white">
<path d="M36.9111 28.4194C39.108 28.1872 40.7084 26.2165 40.3942 24.0298C39.3398 16.6903 37.5253 9.4802 34.98 2.51587C34.2216 0.440968 31.8791 -0.537378 29.834 0.297975L2.53237 11.4497C0.487261 12.285 -0.481774 14.6169 0.23457 16.7067C1.49284 20.3774 2.44153 24.1471 3.07067 27.9761C3.42885 30.156 5.38625 31.7515 7.58316 31.5192L36.9111 28.4194Z"/>
</mask>
<path d="M36.9111 28.4194C39.108 28.1872 40.7084 26.2165 40.3942 24.0298C39.3398 16.6903 37.5253 9.4802 34.98 2.51587C34.2216 0.440968 31.8791 -0.537378 29.834 0.297975L2.53237 11.4497C0.487261 12.285 -0.481774 14.6169 0.23457 16.7067C1.49284 20.3774 2.44153 24.1471 3.07067 27.9761C3.42885 30.156 5.38625 31.7515 7.58316 31.5192L36.9111 28.4194Z" stroke="var(--stroke-0, #D3CAF0)" stroke-width="40" mask="url(#path-1-inside-1_0_54)"/>
</g>
</svg>
