<svg preserveAspectRatio="none" width="100%" height="100%" overflow="visible" style="display: block;" viewBox="0 0 13.4999 13.4014" fill="none" xmlns="http://www.w3.org/2000/svg">
<g id="countdown-timer--timer-countdown-clock">
<path id="Vector" d="M6.75 12.9014C2.75 12.9014 0.5 10.6514 0.5 6.65144" stroke="var(--stroke-0, #FFC9A5)" stroke-linecap="round" stroke-linejoin="round"/>
<path id="Vector_2" d="M12.9999 6.65156C12.9999 7.81526 12.8095 8.83085 12.4409 9.68604" stroke="var(--stroke-0, #FFC9A5)" stroke-linecap="round" stroke-linejoin="round"/>
<path id="Vector_3" d="M12.6434 4.15735C12.4727 3.62652 12.2418 3.1483 11.9531 2.72505" stroke="var(--stroke-0, #FFC9A5)" stroke-linecap="round" stroke-linejoin="round"/>
<path id="Vector_4" d="M9.9691 1.04414C9.4236 0.785386 8.80873 0.60287 8.12793 0.500069" stroke="var(--stroke-0, #FFC9A5)" stroke-linecap="round" stroke-linejoin="round"/>
<path id="Vector_5" d="M3.53076 1.04414C4.07623 0.785386 4.69111 0.60287 5.37191 0.500069" stroke="var(--stroke-0, #FFC9A5)" stroke-linecap="round" stroke-linejoin="round"/>
<path id="Vector_6" d="M0.85645 4.15748C1.02715 3.62665 1.25802 3.14842 1.54669 2.72517" stroke="var(--stroke-0, #FFC9A5)" stroke-linecap="round" stroke-linejoin="round"/>
<path id="Vector_7" d="M11.5533 12.3384C12.4756 12.3384 12.9944 11.8196 12.9944 10.8974C12.9944 9.97514 12.4756 9.45637 11.5533 9.45637C10.6311 9.45637 10.1123 9.97514 10.1123 10.8974C10.1123 11.8196 10.6311 12.3384 11.5533 12.3384Z" stroke="var(--stroke-0, #FFC9A5)" stroke-linecap="round" stroke-linejoin="round"/>
<path id="Vector_8" d="M8.16224 8.24123L6.64832 6.34883H4.37744" stroke="var(--stroke-0, #FFC9A5)" stroke-linecap="round" stroke-linejoin="round"/>
</g>
</svg>
