<svg preserveAspectRatio="none" width="100%" height="100%" overflow="visible" style="display: block;" viewBox="0 0 2030.37 1754.47" fill="none" xmlns="http://www.w3.org/2000/svg">
<path id="Vector" d="M17.2172 1310.66C61.6325 1495.35 183.069 1637.73 363.126 1710.55C439.12 1741.32 522.987 1756.06 612.246 1754.33C625.254 1754.07 638.689 1753.47 652.211 1752.52C879.422 1736.23 1096.96 1622.73 1239.54 1530.34C1419.25 1413.91 1585.79 1263 1700.29 1113.48C1708.85 1192.94 1717.32 1272.57 1722.03 1328.42C1728.28 1401.76 1785.44 1461.22 1857.84 1469.76C1870.42 1471.22 1883.26 1471.22 1896.01 1469.5C1977.05 1459.07 2037.05 1382.02 2029.77 1297.82C2024.12 1232.58 2014.54 1143.3 2005.21 1056.94L1969.69 671.099C1964.3 604.307 1928.87 545.617 1872.56 509.937C1816.25 474.344 1748.3 467.707 1686.17 491.839C1274.88 651.794 946.003 731.513 943.35 732.203C859.397 746.768 802.829 827.435 817.292 911.98C831.755 996.526 911.771 1053.58 995.809 1039.01C1005.82 1037.29 1197 989.976 1474.96 897.416C1384.76 1024.1 1233.2 1164.07 1072.23 1268.35C834.75 1422.27 618.322 1478.03 478.401 1421.41C393.335 1387.02 368.032 1357.89 348.434 1273.26C320.621 1153.38 458.442 1043.81 561.051 885.834C629.942 779.742 719.166 713.486 771.886 594.648C887.93 502.346 983.486 326.54 1162.17 311.285C1203.85 307.752 1243.65 289.998 1271.2 258.369C1298.84 226.654 1312.36 185.889 1309.28 144.004C1302.95 58.6832 1228.5 -5.86782 1143.52 0.423531C864.703 21.5384 609.678 197.352 462.654 319.731C336.682 424.53 227.997 549.064 144.986 690.835C48.6245 855.531 -37.8955 1081.33 17.2172 1310.66Z" fill="var(--fill-0, #00373A)"/>
</svg>
