<svg preserveAspectRatio="none" width="100%" height="100%" overflow="visible" style="display: block;" viewBox="0 0 10.3896 11.2554" fill="none" xmlns="http://www.w3.org/2000/svg">
<g id="text-file--text-common-file">
<path id="Intersect" d="M9.84744 9.16346C9.91905 8.02222 9.95671 6.83956 9.95671 5.6277C9.95671 5.1369 9.95056 4.65088 9.93844 4.17046C9.92995 3.83296 9.82043 3.50497 9.62069 3.23281C8.85922 2.19548 8.25264 1.55058 7.2529 0.779021C6.97817 0.566987 6.64105 0.451948 6.2941 0.444363C5.9462 0.436762 5.5829 0.4329 5.1948 0.4329C4.01996 0.4329 3.07225 0.468286 2.09151 0.535714C1.25719 0.593082 0.594571 1.25726 0.542182 2.09191C0.470554 3.23319 0.4329 4.41585 0.4329 5.6277C0.4329 6.83956 0.470554 8.02222 0.542182 9.16346C0.594571 9.99818 1.25719 10.6623 2.09151 10.7197C3.07225 10.7871 4.01996 10.8225 5.1948 10.8225C6.36965 10.8225 7.31736 10.7871 8.29809 10.7197C9.13238 10.6623 9.79506 9.99818 9.84744 9.16346Z" stroke="var(--stroke-0, #00373A)" stroke-width="0.865801" stroke-linecap="round" stroke-linejoin="round"/>
<path id="Vector 106" d="M3.54447 5.64097H6.84534" stroke="var(--stroke-0, #00373A)" stroke-width="0.865801" stroke-linecap="round" stroke-linejoin="round"/>
<path id="Vector 107" d="M3.54447 8.15707H6.83508M3.54447 3.02993H5.53638" stroke="var(--stroke-0, #00373A)" stroke-width="0.865801" stroke-linecap="round" stroke-linejoin="round"/>
</g>
</svg>
