<svg preserveAspectRatio="none" width="100%" height="100%" overflow="visible" style="display: block;" viewBox="0 0 8.55111 8.55111" fill="none" xmlns="http://www.w3.org/2000/svg">
<g id="Format Icons">
<path id="Vector" d="M2.85035 1.42516H7.4822V2.13776H2.85035V1.42516ZM1.60331 2.3159C1.30815 2.3159 1.06887 2.07663 1.06887 1.78146C1.06887 1.48629 1.30815 1.24702 1.60331 1.24702C1.89848 1.24702 2.13776 1.48629 2.13776 1.78146C2.13776 2.07663 1.89848 2.3159 1.60331 2.3159ZM1.60331 4.80998C1.30815 4.80998 1.06887 4.57069 1.06887 4.27553C1.06887 3.98038 1.30815 3.74109 1.60331 3.74109C1.89848 3.74109 2.13776 3.98038 2.13776 4.27553C2.13776 4.57069 1.89848 4.80998 1.60331 4.80998ZM1.60331 7.26842C1.30815 7.26842 1.06887 7.02913 1.06887 6.73398C1.06887 6.43882 1.30815 6.19953 1.60331 6.19953C1.89848 6.19953 2.13776 6.43882 2.13776 6.73398C2.13776 7.02913 1.89848 7.26842 1.60331 7.26842ZM2.85035 3.91924H7.4822V4.63183H2.85035V3.91924ZM2.85035 6.41331H7.4822V7.1259H2.85035V6.41331Z" fill="var(--fill-0, #A1A1AA)"/>
</g>
</svg>
