<svg preserveAspectRatio="none" width="100%" height="100%" overflow="visible" style="display: block;" viewBox="0 0 8.55111 8.55111" fill="none" xmlns="http://www.w3.org/2000/svg">
<g id="Format Icons">
<path id="Vector" d="M2.04877 1.24702H1.68075L1.15794 1.3871V1.9403L1.51424 1.84482L1.5143 3.0285H1.06887V3.56294H2.49405V3.0285H2.04877V1.24702ZM3.56294 1.42516H7.4822V2.13776H3.56294V1.42516ZM3.56294 3.91924H7.4822V4.63183H3.56294V3.91924ZM3.56294 6.41331H7.4822V7.1259H3.56294V6.41331ZM1.02433 5.56711C1.02433 5.14896 1.36331 4.80998 1.78146 4.80998C2.19961 4.80998 2.53859 5.14896 2.53859 5.56711C2.53859 5.74013 2.48045 5.89978 2.3827 6.02734L2.381 6.02954L1.894 6.59146H2.49405V7.1259H1.06891L1.06872 6.72635L1.94952 5.71319C1.98359 5.67407 2.00414 5.62308 2.00414 5.56711C2.00414 5.44411 1.90445 5.34442 1.78146 5.34442C1.66523 5.34442 1.56972 5.43353 1.55965 5.54708L1.55525 5.65618H1.02433V5.56711Z" fill="var(--fill-0, #A1A1AA)"/>
</g>
</svg>
