<svg preserveAspectRatio="none" width="100%" height="100%" overflow="visible" style="display: block;" viewBox="0 0 8.55111 8.55111" fill="none" xmlns="http://www.w3.org/2000/svg">
<g id="Format Icons">
<path id="Vector" d="M2.85035 3.91924H4.45368C4.94562 3.91924 5.34442 3.52044 5.34442 3.0285C5.34442 2.53655 4.94562 2.13776 4.45368 2.13776H2.85035V3.91924ZM6.41331 5.52257C6.41331 6.40807 5.69548 7.1259 4.80998 7.1259H2.13776V1.42516H4.45368C5.33919 1.42516 6.05702 2.143 6.05702 3.0285C6.05702 3.45759 5.88845 3.8473 5.61393 4.13508C6.0919 4.4126 6.41331 4.93005 6.41331 5.52257ZM2.85035 4.63183V6.41331H4.80998C5.30192 6.41331 5.70072 6.01451 5.70072 5.52257C5.70072 5.03063 5.30192 4.63183 4.80998 4.63183H2.85035Z" fill="var(--fill-0, #A1A1AA)"/>
</g>
</svg>
