<svg preserveAspectRatio="none" width="100%" height="100%" overflow="visible" style="display: block;" viewBox="0 0 151.293 178.878" fill="none" xmlns="http://www.w3.org/2000/svg">
<g id="Ellipse 366">
<mask id="path-1-inside-1_0_130" fill="white">
<path d="M150.318 28.5603C151.624 27.2546 151.628 25.1325 150.274 23.8765C139.543 13.9187 126.517 6.73526 112.332 2.9794C97.068 -1.06209 81.0065 -0.990747 65.7793 3.18617C50.5522 7.36308 36.7022 15.4967 25.6368 26.7604C14.5715 38.0241 6.68519 52.0164 2.77946 67.3154C-1.12628 82.6143 -0.912273 98.6746 3.39974 113.864C7.71175 129.054 15.968 142.831 27.3296 153.796C38.6912 164.76 52.753 172.522 68.086 176.292C82.3355 179.795 97.2108 179.735 111.402 176.14C113.192 175.686 114.206 173.822 113.686 172.05L106.743 148.395C106.223 146.623 104.367 145.619 102.568 146.036C93.6942 148.094 84.4442 148.041 75.5681 145.859C65.6078 143.41 56.4732 138.368 49.0928 131.245C41.7123 124.122 36.349 115.173 33.5479 105.306C30.7468 95.4385 30.6078 85.0057 33.145 75.0675C35.6822 65.1293 40.8051 56.0399 47.9931 48.723C55.1812 41.4061 64.1781 36.1225 74.0697 33.4092C83.9613 30.6959 94.3949 30.6495 104.31 33.2749C113.146 35.6144 121.29 40.0014 128.091 46.0614C129.469 47.2899 131.58 47.2979 132.886 45.9922L150.318 28.5603Z"/>
</mask>
<path d="M150.318 28.5603C151.624 27.2546 151.628 25.1325 150.274 23.8765C139.543 13.9187 126.517 6.73526 112.332 2.9794C97.068 -1.06209 81.0065 -0.990747 65.7793 3.18617C50.5522 7.36308 36.7022 15.4967 25.6368 26.7604C14.5715 38.0241 6.68519 52.0164 2.77946 67.3154C-1.12628 82.6143 -0.912273 98.6746 3.39974 113.864C7.71175 129.054 15.968 142.831 27.3296 153.796C38.6912 164.76 52.753 172.522 68.086 176.292C82.3355 179.795 97.2108 179.735 111.402 176.14C113.192 175.686 114.206 173.822 113.686 172.05L106.743 148.395C106.223 146.623 104.367 145.619 102.568 146.036C93.6942 148.094 84.4442 148.041 75.5681 145.859C65.6078 143.41 56.4732 138.368 49.0928 131.245C41.7123 124.122 36.349 115.173 33.5479 105.306C30.7468 95.4385 30.6078 85.0057 33.145 75.0675C35.6822 65.1293 40.8051 56.0399 47.9931 48.723C55.1812 41.4061 64.1781 36.1225 74.0697 33.4092C83.9613 30.6959 94.3949 30.6495 104.31 33.2749C113.146 35.6144 121.29 40.0014 128.091 46.0614C129.469 47.2899 131.58 47.2979 132.886 45.9922L150.318 28.5603Z" stroke="var(--stroke-0, #CC6E2F)" stroke-width="56.8398" mask="url(#path-1-inside-1_0_130)"/>
</g>
</svg>
