<svg preserveAspectRatio="none" width="100%" height="100%" overflow="visible" style="display: block;" viewBox="0 0 44.8987 56.0968" fill="none" xmlns="http://www.w3.org/2000/svg">
<g id="Ellipse 369">
<mask id="path-1-inside-1_0_126" fill="white">
<path d="M41.7681 54.9248C43.6126 54.8373 45.0434 53.2699 44.887 51.4299C43.3119 32.894 35.9939 15.3069 23.955 1.12492C22.7599 -0.282829 20.6396 -0.372615 19.2774 0.874166L1.09356 17.5183C-0.26856 18.7651 -0.353642 20.8743 0.812756 22.3059C7.94137 31.0551 12.3684 41.6942 13.5504 52.9178C13.7439 54.7542 15.3001 56.1805 17.1446 56.093L41.7681 54.9248Z"/>
</mask>
<path d="M41.7681 54.9248C43.6126 54.8373 45.0434 53.2699 44.887 51.4299C43.3119 32.894 35.9939 15.3069 23.955 1.12492C22.7599 -0.282829 20.6396 -0.372615 19.2774 0.874166L1.09356 17.5183C-0.26856 18.7651 -0.353642 20.8743 0.812756 22.3059C7.94137 31.0551 12.3684 41.6942 13.5504 52.9178C13.7439 54.7542 15.3001 56.1805 17.1446 56.093L41.7681 54.9248Z" stroke="var(--stroke-0, #00B63A)" stroke-width="33.4352" mask="url(#path-1-inside-1_0_126)"/>
</g>
</svg>
