<svg preserveAspectRatio="none" width="100%" height="100%" overflow="visible" style="display: block;" viewBox="0 0 35.6199 35.5979" fill="none" xmlns="http://www.w3.org/2000/svg">
<g id="iris-scan--identification-retina-secure-security-iris-scan-eye-brackets">
<path id="Ellipse 20" d="M30.6534 17.7996C30.6534 19.9575 24.9031 27.5606 17.8098 27.5606C10.7164 27.5606 4.96614 19.9575 4.96614 17.7996C4.96614 15.6416 10.7164 8.03841 17.8098 8.03841C24.9031 8.03841 30.6534 15.6416 30.6534 17.7996Z" stroke="var(--stroke-0, #00DC46)" stroke-width="2.71429" stroke-linecap="round" stroke-linejoin="round"/>
<path id="Intersect" d="M25.9714 1.3574C26.9781 1.46583 27.9756 1.58207 28.9633 1.69653C31.5677 1.99836 33.6457 4.07506 33.9381 6.68044C34.0483 7.66177 34.1593 8.65283 34.2627 9.65289" stroke="var(--stroke-0, #00DC46)" stroke-width="2.71429" stroke-linecap="round" stroke-linejoin="round"/>
<path id="Intersect_2" d="M25.9714 34.2407C26.9781 34.1321 27.9756 34.0159 28.9633 33.9014C31.5677 33.5996 33.6457 31.5229 33.9381 28.9174C34.0483 27.9362 34.1593 26.9452 34.2627 25.945" stroke="var(--stroke-0, #00DC46)" stroke-width="2.71429" stroke-linecap="round" stroke-linejoin="round"/>
<path id="Intersect_3" d="M9.6485 1.35726C8.64193 1.46569 7.64438 1.58193 6.6567 1.69639C4.05237 1.99822 1.97434 4.07492 1.68182 6.6803C1.57165 7.66163 1.46057 8.65269 1.35732 9.65275" stroke="var(--stroke-0, #00DC46)" stroke-width="2.71429" stroke-linecap="round" stroke-linejoin="round"/>
<path id="Intersect_4" d="M9.64843 34.2407C8.64186 34.1321 7.64431 34.0159 6.65663 33.9014C4.0523 33.5996 1.97427 31.5229 1.68175 28.9174C1.57158 27.9362 1.4605 26.9452 1.35725 25.945" stroke="var(--stroke-0, #00DC46)" stroke-width="2.71429" stroke-linecap="round" stroke-linejoin="round"/>
<path id="Vector" d="M17.81 21.191C19.9814 21.191 21.2028 19.9696 21.2028 17.7982C21.2028 15.6267 19.9814 14.4053 17.81 14.4053C15.6385 14.4053 14.4171 15.6267 14.4171 17.7982C14.4171 19.9696 15.6385 21.191 17.81 21.191Z" stroke="var(--stroke-0, #00DC46)" stroke-width="2.71429" stroke-linecap="round" stroke-linejoin="round"/>
</g>
</svg>
