<svg preserveAspectRatio="none" width="100%" height="100%" overflow="visible" style="display: block;" viewBox="0 0 34.2336 34.2976" fill="none" xmlns="http://www.w3.org/2000/svg">
<g id="pathfinder-minus-front-2">
<path id="Intersect" d="M23.927 32.8877C23.2779 32.9225 22.624 32.9426 21.966 32.9426C21.3079 32.9426 20.6541 32.9225 20.005 32.8877" stroke="var(--stroke-0, #FF8A3B)" stroke-width="2.71" stroke-linecap="round" stroke-linejoin="round"/>
<path id="Intersect_2" d="M31.7438 29.9798C31.2618 30.764 30.5858 31.4191 29.7852 31.8769" stroke="var(--stroke-0, #FF8A3B)" stroke-width="2.71" stroke-linecap="round" stroke-linejoin="round"/>
<path id="Intersect_3" d="M31.7438 14.0795C31.2618 13.2954 30.5858 12.6403 29.7852 12.1825" stroke="var(--stroke-0, #FF8A3B)" stroke-width="2.71" stroke-linecap="round" stroke-linejoin="round"/>
<path id="Intersect_4" d="M32.8237 23.991C32.8585 23.3419 32.8786 22.688 32.8786 22.03C32.8786 21.3719 32.8585 20.7181 32.8237 20.069" stroke="var(--stroke-0, #FF8A3B)" stroke-width="2.71" stroke-linecap="round" stroke-linejoin="round"/>
<path id="Intersect_5" d="M23.9267 11.1706C23.6436 11.1554 23.4278 11.1795 23.1429 11.1703" stroke="var(--stroke-0, #FF8A3B)" stroke-width="2.71" stroke-linecap="round" stroke-linejoin="round"/>
<path id="Intersect_6" d="M11.1083 23.9906C11.0929 23.7034 11.1174 23.4245 11.1082 23.1355" stroke="var(--stroke-0, #FF8A3B)" stroke-width="2.71" stroke-linecap="round" stroke-linejoin="round"/>
<path id="Intersect_7" d="M12.265 29.9798C12.7471 30.764 13.423 31.4191 14.2237 31.8769" stroke="var(--stroke-0, #FF8A3B)" stroke-width="2.71" stroke-linecap="round" stroke-linejoin="round"/>
<path id="Intersect_8" d="M1.72105 17.9574C1.98989 20.4702 4.01093 22.4912 6.52251 22.7712C8.38805 22.9791 10.3035 23.1577 12.2564 23.1577C14.2092 23.1577 16.1247 22.9791 17.9902 22.7712C20.5018 22.4912 22.5228 20.4702 22.7917 17.9574C22.9901 16.1024 23.1577 14.1979 23.1577 12.2563C23.1577 10.3148 22.9901 8.41032 22.7917 6.55532C22.5228 4.04252 20.5018 2.02149 17.9902 1.74153C16.1247 1.5336 14.2092 1.355 12.2564 1.355C10.3035 1.355 8.38805 1.5336 6.52251 1.74153C4.01093 2.02149 1.98989 4.04252 1.72105 6.55532C1.52259 8.41032 1.355 10.3148 1.355 12.2563C1.355 14.1979 1.52259 16.1024 1.72105 17.9574Z" stroke="var(--stroke-0, #FF8A3B)" stroke-width="2.71" stroke-linecap="round" stroke-linejoin="round"/>
</g>
</svg>
