<svg preserveAspectRatio="none" width="100%" height="100%" overflow="visible" style="display: block;" viewBox="0 0 26.8715 25.1343" fill="none" xmlns="http://www.w3.org/2000/svg">
<g id="ios-ipados">
<path id="Vector" d="M14.9036 24.1602C17.2734 24.2258 19.6047 24.1602 22.0419 23.9714C23.8876 23.825 25.3172 22.3203 25.4771 20.4746C25.6967 17.9217 25.9222 15.2784 25.9222 12.5676C25.9222 9.85678 25.6967 7.21148 25.4771 4.66059C25.3172 2.81486 23.8876 1.30822 22.0419 1.16372C18.4833 0.877906 14.9075 0.877906 11.349 1.16372C10.559 1.22537 9.84617 1.53749 9.27395 2.01915C8.71211 2.49498 8.29771 3.12126 8.07943 3.82443" stroke="var(--stroke-0, #FF8A3B)" stroke-width="1.89872" stroke-linecap="round" stroke-linejoin="round"/>
<path id="Vector_2" d="M16.4452 18.6655H18.0193" stroke="var(--stroke-0, #FF8A3B)" stroke-width="1.89872" stroke-linecap="round" stroke-linejoin="round"/>
<path id="Intersect" d="M0.949359 15.9161C0.949359 14.3093 1.06111 12.7352 1.18826 11.2055C1.3424 9.35975 2.77968 7.83769 4.62734 7.71824C6.00459 7.62457 7.38661 7.62457 8.76386 7.71824C10.6134 7.83769 12.0488 9.35975 12.2029 11.2055C12.3301 12.7352 12.4418 14.3093 12.4418 15.9161C12.4418 17.523 12.3301 19.0951 12.2029 20.6268C12.0488 22.4725 10.6115 23.9946 8.76386 24.1141C7.32465 24.2085 6.06655 24.2085 4.62734 24.1141C2.77968 23.9946 1.3424 22.4725 1.18826 20.6268C1.04374 19.0606 0.964673 17.489 0.951286 15.9161H0.949359Z" stroke="var(--stroke-0, #FF8A3B)" stroke-width="1.89872" stroke-linecap="round" stroke-linejoin="round"/>
<path id="Vector 122" d="M5.75435 20.255H7.63669" stroke="var(--stroke-0, #FF8A3B)" stroke-width="1.89872" stroke-linecap="round" stroke-linejoin="round"/>
</g>
</svg>
