<svg preserveAspectRatio="none" width="100%" height="100%" overflow="visible" style="display: block;" viewBox="0 0 29.062 29.0439" fill="none" xmlns="http://www.w3.org/2000/svg">
<g id="iris-scan--identification-retina-secure-security-iris-scan-eye-brackets">
<path id="Ellipse 20" d="M25.1656 14.5227C25.1656 16.3096 20.4042 22.6051 14.5307 22.6051C8.65729 22.6051 3.89594 16.3096 3.89594 14.5227C3.89594 12.7359 8.65729 6.4403 14.5307 6.4403C20.4042 6.4403 25.1656 12.7359 25.1656 14.5227Z" stroke="var(--stroke-0, #FF8A3B)" stroke-width="1.81528" stroke-linecap="round" stroke-linejoin="round"/>
<path id="Intersect" d="M21.2889 0.907716C22.1225 0.997498 22.9485 1.09375 23.7663 1.18852C25.9228 1.43844 27.6435 3.158 27.8855 5.31532C27.9768 6.12787 28.0687 6.9485 28.1543 7.77656" stroke="var(--stroke-0, #FF8A3B)" stroke-width="1.81528" stroke-linecap="round" stroke-linejoin="round"/>
<path id="Intersect_2" d="M21.2889 28.1362C22.1225 28.0463 22.9485 27.9501 23.7663 27.8552C25.9228 27.6053 27.6435 25.8858 27.8855 23.7284C27.9768 22.9159 28.0687 22.0954 28.1543 21.2672" stroke="var(--stroke-0, #FF8A3B)" stroke-width="1.81528" stroke-linecap="round" stroke-linejoin="round"/>
<path id="Intersect_3" d="M7.77299 0.907951C6.93953 0.997733 6.11353 1.09398 5.29572 1.18876C3.13927 1.43868 1.41862 3.15823 1.17641 5.31555C1.08518 6.12811 0.993208 6.94873 0.907711 7.7768" stroke="var(--stroke-0, #FF8A3B)" stroke-width="1.81528" stroke-linecap="round" stroke-linejoin="round"/>
<path id="Intersect_4" d="M7.77319 28.1362C6.93973 28.0463 6.11374 27.9501 5.29592 27.8552C3.13948 27.6053 1.41882 25.8858 1.17661 23.7284C1.08539 22.9159 0.993411 22.0954 0.907915 21.2672" stroke="var(--stroke-0, #FF8A3B)" stroke-width="1.81528" stroke-linecap="round" stroke-linejoin="round"/>
<path id="Vector" d="M14.5309 17.331C16.3289 17.331 17.3402 16.3197 17.3402 14.5217C17.3402 12.7237 16.3289 11.7123 14.5309 11.7123C12.7329 11.7123 11.7215 12.7237 11.7215 14.5217C11.7215 16.3197 12.7329 17.331 14.5309 17.331Z" stroke="var(--stroke-0, #FF8A3B)" stroke-width="1.81528" stroke-linecap="round" stroke-linejoin="round"/>
</g>
</svg>
