<svg preserveAspectRatio="none" width="100%" height="100%" overflow="visible" style="display: block;" viewBox="0 0 138.662 33.5018" fill="none" xmlns="http://www.w3.org/2000/svg">
<g id="Group">
<path id="Vector" d="M37.8993 8.22801C37.0249 8.22801 36.1196 8.50294 35.2121 9.04615C34.4282 9.51398 33.8033 10.1126 33.3551 10.8221V8.61158H29.0184V27.083H33.3529L33.3749 15.3009C33.8232 14.3918 34.4547 13.6579 35.2518 13.1191C36.0644 12.5671 36.8438 12.2877 37.5725 12.2877C38.1885 12.2877 38.9062 12.3963 39.7033 12.6092L39.9837 12.6846V8.5495L39.8402 8.49407C39.3875 8.3167 38.7339 8.22801 37.8993 8.22801Z" fill="var(--fill-0, #F9F7E8)"/>
<path id="Vector_2" d="M75.7986 10.8199C75.2973 10.1148 74.5554 9.5162 73.5905 9.04172C72.4909 8.50294 71.3206 8.22801 70.1106 8.22801C67.6442 8.22801 65.531 9.16588 63.8286 11.0172C62.1284 12.8642 61.2673 15.1545 61.2673 17.8196C61.2673 20.5113 62.1284 22.8105 63.8286 24.6596C65.531 26.511 67.6442 27.4489 70.1106 27.4489C71.3316 27.4489 72.5063 27.1784 73.5993 26.644C74.5598 26.174 75.2995 25.5798 75.7986 24.8747V27.083H80.1529V8.61158H75.7986V10.8199ZM75.7941 15.088L75.7963 20.6376C75.3591 21.3959 74.6901 22.03 73.8069 22.5245C72.9126 23.0234 71.9565 23.2761 70.9607 23.2761C69.4349 23.2761 68.141 22.7506 67.112 21.7108C66.0831 20.6731 65.562 19.3628 65.562 17.8174C65.562 16.2742 66.0831 14.9705 67.112 13.9439C68.141 12.9174 69.4349 12.3963 70.9607 12.3963C71.9676 12.3963 72.9281 12.6513 73.8135 13.1568C74.6835 13.6535 75.3459 14.2965 75.7941 15.088Z" fill="var(--fill-0, #F9F7E8)"/>
<path id="Vector_3" d="M101.269 0.128598C100.516 0.128598 99.8621 0.403528 99.3233 0.944524C98.7757 1.49217 98.5107 2.12629 98.5107 2.88014C98.5107 3.6495 98.7845 4.31244 99.3233 4.85344C99.8621 5.39443 100.516 5.66937 101.269 5.66937C102.022 5.66937 102.68 5.39443 103.223 4.85344C103.768 4.31244 104.044 3.6495 104.044 2.88014C104.044 2.13738 103.768 1.48552 103.223 0.944524C102.68 0.403528 102.022 0.128598 101.269 0.128598Z" fill="var(--fill-0, #F9F7E8)"/>
<path id="Vector_4" d="M90.5507 3.70271H86.1787V8.60937H82.7275V12.7799H86.1787V20.0967C86.1787 22.3892 86.7991 24.1829 88.0268 25.4246C89.2523 26.6684 90.9216 27.2981 92.9884 27.2981C93.7965 27.2981 94.5252 27.2316 95.1523 27.0986L95.3289 27.0609V22.9967L95.0573 23.0544C94.7195 23.1276 94.322 23.1652 93.8782 23.1652C92.8426 23.1652 92.019 22.9058 91.4317 22.3959C90.8465 21.8904 90.5507 21.0922 90.5507 20.0235V12.7799H99.0738V27.0808H103.41V8.60937H90.5507V3.70271Z" fill="var(--fill-0, #F9F7E8)"/>
<path id="Vector_5" d="M133.961 8.60937L129.165 20.866L124.352 8.60937H113.976V7.29235C113.976 6.22367 114.27 5.42548 114.848 4.91996C115.431 4.41 116.25 4.1528 117.286 4.1528C117.739 4.1528 118.123 4.18828 118.425 4.25701L118.699 4.32131V0.257195L118.525 0.217284C117.891 0.0731665 117.173 2.15763e-08 116.394 2.15763e-08C114.327 2.15763e-08 112.66 0.634119 111.441 1.8824C110.22 3.13068 109.602 4.92661 109.602 7.21919V8.60937H106.133V12.7799H109.602V27.0808H113.974V12.7799H121.406L126.924 26.0077L123.608 33.5018H128.293L138.662 8.60937H133.961Z" fill="var(--fill-0, #F9F7E8)"/>
<path id="Vector_6" d="M13.3146 16.3939H20.8707V19.6643C20.1486 20.7241 19.1484 21.5489 17.9008 22.1165C16.6378 22.6908 15.1672 22.9834 13.5288 22.9834C11.0028 22.9834 8.88085 22.1076 7.22038 20.3805C5.55771 18.651 4.71643 16.4338 4.71643 13.7865C4.71643 11.188 5.52238 9.01955 7.11219 7.33892C8.702 5.6605 10.7511 4.8091 13.202 4.8091C14.8802 4.8091 16.4015 5.24145 17.722 6.09729C18.985 6.91321 19.8505 8.01516 20.2943 9.36986L20.3253 9.46077H25.4745L25.4458 9.30335C25.225 8.13045 24.7657 6.99747 24.0812 5.93987C23.3636 4.82905 22.4583 3.84905 21.3873 3.0309C20.3164 2.21276 19.0578 1.55425 17.6425 1.07091C16.2271 0.589774 14.7344 0.345882 13.202 0.345882C10.7489 0.345882 8.48339 0.935655 6.47405 2.1019C4.4625 3.26814 2.86165 4.89557 1.72008 6.93982C0.578511 8.98407 1.79801e-06 11.2877 1.79801e-06 13.7865C1.79801e-06 16.2853 0.582931 18.6045 1.73113 20.6798C2.87711 22.7529 4.48238 24.4113 6.50276 25.6086C8.52093 26.8037 10.7886 27.4112 13.2418 27.4112C15.9334 27.4112 18.402 26.8702 20.5748 25.8037C22.7409 24.7417 24.3815 23.2672 25.4657 21.4004L25.4833 21.3693V12.0039H13.3191V16.3939H13.3146Z" fill="var(--fill-0, #F9F7E8)"/>
<path id="Vector_7" d="M54.3803 21.3893C54.1418 21.9325 53.7157 22.3937 53.104 22.7617C52.3202 23.2362 51.3685 23.4757 50.2799 23.4757C48.8712 23.4757 47.7009 23.0921 46.8066 22.3338C46.1928 21.815 45.718 21.1432 45.3979 20.3339L45.2764 20.3827L45.3868 20.3073C45.3559 20.2253 45.325 20.1432 45.2963 20.059C45.2786 20.0057 45.261 19.9503 45.2433 19.8971C45.219 19.8195 45.1947 19.7419 45.1682 19.6377L45.1528 19.58C45.1307 19.4914 45.1064 19.4049 45.0865 19.314H58.9996L59.0327 19.1277C59.0945 18.7819 59.1254 18.2209 59.1254 17.456C59.1254 15.7066 58.7169 14.1036 57.9132 12.6868C57.1073 11.2722 56.0099 10.1614 54.6497 9.39204C53.2895 8.62045 51.7726 8.22801 50.1386 8.22801C48.4097 8.22801 46.8 8.64928 45.3537 9.48294C43.9096 10.3166 42.7526 11.474 41.918 12.924C41.0833 14.3741 40.6594 15.9971 40.6594 17.7486C40.6594 19.5468 41.0833 21.2097 41.918 22.6886C42.7526 24.1696 43.9118 25.347 45.3625 26.1851C46.8132 27.0232 48.445 27.4489 50.2115 27.4489C52.4637 27.4489 54.4112 26.8524 55.9966 25.6773C57.4694 24.5843 58.4122 23.1409 58.8163 21.3915H54.3803V21.3893ZM45.9477 14.0348C46.2082 13.6823 46.5152 13.3763 46.8552 13.1258C47.681 12.5227 48.7056 12.2167 49.9001 12.2167C51.1057 12.2167 52.1259 12.5382 52.9318 13.1701C53.7024 13.7754 54.1926 14.5736 54.3869 15.5425H45.2058C45.3824 14.9173 45.6363 14.4007 45.9477 14.0348Z" fill="var(--fill-0, #F9F7E8)"/>
</g>
</svg>
