<svg preserveAspectRatio="none" width="100%" height="100%" overflow="visible" style="display: block;" viewBox="0 0 59.8757 48.3219" fill="none" xmlns="http://www.w3.org/2000/svg">
<g id="Group">
<path id="Vector" d="M0.44423 36.9043C1.59022 41.6557 4.72347 45.3185 9.36924 47.1921C11.33 47.9836 13.4939 48.3627 15.7969 48.3184C16.1326 48.3117 16.4792 48.2962 16.8281 48.2718C22.6905 47.8528 28.3034 44.9327 31.9821 42.5559C36.619 39.5605 40.9159 35.6782 43.8703 31.8313C44.0911 33.8756 44.3097 35.9243 44.4312 37.361C44.5923 39.2479 46.0673 40.7777 47.9354 40.9972C48.2599 41.0349 48.5912 41.0349 48.9202 40.9906C51.0112 40.7223 52.559 38.7401 52.3714 36.5739C52.2256 34.8955 51.9783 32.5985 51.7376 30.3769L50.8213 20.4505C50.6822 18.7322 49.7681 17.2222 48.3151 16.3043C46.8622 15.3886 45.109 15.2179 43.506 15.8387C32.894 19.9538 24.4084 22.0047 24.3399 22.0225C22.1738 22.3972 20.7143 24.4725 21.0875 26.6475C21.4606 28.8226 23.5252 30.2904 25.6935 29.9157C25.9518 29.8713 30.8847 28.6541 38.0565 26.2728C35.7292 29.5321 31.8187 33.1328 27.6653 35.8156C21.5379 39.7755 15.9537 41.2101 12.3435 39.7534C10.1487 38.8687 8.72007 37.2502 8.21442 35.0729C7.4968 31.9888 8.58317 28.1153 11.2306 24.0512C13.0081 21.3218 15.2559 18.9361 17.8063 16.9163C20.8004 14.5417 25.3755 11.5861 29.986 11.1937C31.0613 11.1028 32.0881 10.646 32.7991 9.83233C33.5123 9.01641 33.8611 7.96767 33.7816 6.89011C33.6182 4.69509 31.6972 3.03441 29.5046 3.19627C22.3107 3.73948 15.7307 8.26256 11.9372 11.411C8.68695 14.1071 5.8827 17.3109 3.74087 20.9582C1.25459 25.1953 -0.977765 31.0043 0.44423 36.9043Z" fill="var(--fill-0, #00DC46)"/>
<path id="Vector_2" d="M52.4266 0.00129212C48.3946 0.0766767 45.1753 3.43129 45.2503 7.47989C45.3254 11.5285 48.6662 14.7612 52.6982 14.6858C56.7301 14.6104 59.9494 11.2558 59.8744 7.20718C59.7993 3.15858 56.4585 -0.0740925 52.4266 0.00129212Z" fill="var(--fill-0, #00DC46)"/>
</g>
</svg>
