<svg preserveAspectRatio="none" width="100%" height="100%" overflow="visible" style="display: block;" viewBox="0 0 5.77712 6.01278" fill="none" xmlns="http://www.w3.org/2000/svg">
<g id="user-sync-online-in-person">
<path id="Intersect" d="M5.40043 5.63609C5.34779 5.37993 5.2588 5.13513 5.1377 4.90893C4.98078 4.61583 4.76995 4.35396 4.51446 4.13911C4.0565 3.754 3.48323 3.54363 2.89177 3.54363C2.3003 3.54363 1.72702 3.754 1.26907 4.13911C1.02209 4.3468 0.811613 4.61362 0.651649 4.90893C0.527283 5.13849 0.433441 5.38529 0.3767 5.6349" stroke="var(--stroke-0, #00DC46)" stroke-width="0.753235" stroke-linecap="round" stroke-linejoin="round"/>
<path id="Vector_4" d="M2.8884 3.54391C3.90193 3.54391 4.47204 2.9738 4.47204 1.96026C4.47204 0.946727 3.90193 0.376618 2.8884 0.376618C1.87486 0.376618 1.30474 0.946727 1.30474 1.96026C1.30474 2.9738 1.87486 3.54391 2.8884 3.54391Z" stroke="var(--stroke-0, #00DC46)" stroke-width="0.753235" stroke-linecap="round" stroke-linejoin="round"/>
</g>
</svg>
