<svg preserveAspectRatio="none" width="100%" height="100%" overflow="visible" style="display: block;" viewBox="0 0 18.0644 18.0644" fill="none" xmlns="http://www.w3.org/2000/svg">
<g id="Frame 5757">
<path id="Vector" d="M1.37411 12.3235C1.66683 13.5322 2.46716 14.4639 3.65384 14.9405C4.15469 15.1418 4.70742 15.2383 5.29568 15.227C5.38141 15.2253 5.46996 15.2214 5.55908 15.2152C7.05653 15.1086 8.49024 14.3658 9.42989 13.7611C10.6143 12.9992 11.7119 12.0116 12.4665 11.033C12.5229 11.553 12.5788 12.0742 12.6098 12.4397C12.651 12.9196 13.0277 13.3088 13.5049 13.3646C13.5878 13.3742 13.6724 13.3742 13.7564 13.3629C14.2905 13.2947 14.6859 12.7905 14.638 12.2394C14.6007 11.8125 14.5376 11.2282 14.4761 10.663L14.242 8.13794C14.2065 7.70083 13.973 7.31674 13.6019 7.08324C13.2308 6.8503 12.7829 6.80687 12.3735 6.9648C9.66282 8.0116 7.49533 8.53331 7.47784 8.53782C6.92455 8.63314 6.55174 9.16106 6.64705 9.71435C6.74237 10.2676 7.26972 10.641 7.82358 10.5457C7.88957 10.5344 9.14957 10.2248 10.9815 9.61903C10.387 10.4481 9.38815 11.3641 8.32724 12.0465C6.76211 13.0539 5.33573 13.4188 4.41357 13.0482C3.85294 12.8232 3.48803 12.4115 3.35887 11.8576C3.17556 11.0731 3.45306 10.0877 4.12931 9.05389C4.58334 8.3596 5.1575 7.75272 5.80893 7.2389C6.57373 6.63485 7.74236 5.88302 8.92002 5.78319C9.19469 5.76007 9.45696 5.64388 9.63857 5.43689C9.82075 5.22933 9.90986 4.96255 9.88956 4.68844C9.84782 4.13007 9.35713 3.70763 8.79707 3.7488C6.95952 3.88698 5.27876 5.03757 4.30979 5.83846C3.47957 6.5243 2.76327 7.3393 2.21618 8.2671C1.5811 9.34492 1.01089 10.8226 1.37411 12.3235Z" fill="var(--fill-0, #00DC46)"/>
<path id="Vector_2" d="M14.6524 2.93591C13.6225 2.95509 12.8002 3.80844 12.8194 4.83833C12.8386 5.86821 13.6919 6.69054 14.7218 6.67136C15.7517 6.65219 16.574 5.79884 16.5548 4.76895C16.5357 3.73907 15.6823 2.91674 14.6524 2.93591Z" fill="var(--fill-0, #00DC46)"/>
</g>
</svg>
