<svg preserveAspectRatio="none" width="100%" height="100%" overflow="visible" style="display: block;" viewBox="0 0 22.7097 22.7097" fill="none" xmlns="http://www.w3.org/2000/svg">
<g id="Frame 5757">
<path id="Vector" d="M1.72748 15.4924C2.09547 17.0119 3.10162 18.1832 4.59345 18.7824C5.22309 19.0355 5.91796 19.1567 6.6575 19.1426C6.76527 19.1404 6.87659 19.1355 6.98862 19.1277C8.87115 18.9937 10.6736 18.0598 11.8548 17.2997C13.3438 16.3418 14.7236 15.1003 15.6723 13.8701C15.7433 14.5238 15.8134 15.179 15.8524 15.6384C15.9042 16.2418 16.3779 16.7311 16.9777 16.8013C17.0819 16.8133 17.1883 16.8133 17.2939 16.7992C17.9654 16.7134 18.4625 16.0795 18.4022 15.3867C18.3554 14.85 18.276 14.1154 18.1987 13.4049L17.9044 10.2305C17.8598 9.68101 17.5662 9.19815 17.0997 8.9046C16.6331 8.61176 16.0701 8.55717 15.5554 8.7557C12.1477 10.0717 9.42279 10.7276 9.40081 10.7332C8.70523 10.8531 8.23655 11.5167 8.35638 12.2123C8.47621 12.9079 9.13917 13.3773 9.83545 13.2575C9.91841 13.2433 11.5024 12.854 13.8054 12.0925C13.0581 13.1348 11.8024 14.2863 10.4686 15.1442C8.50102 16.4106 6.70784 16.8694 5.54854 16.4035C4.84375 16.1206 4.38499 15.603 4.22262 14.9067C3.99218 13.9204 4.34103 12.6817 5.19118 11.382C5.76197 10.5092 6.48378 9.74624 7.30273 9.1003C8.2642 8.34091 9.73335 7.39574 11.2138 7.27024C11.5592 7.24117 11.8889 7.09511 12.1172 6.83489C12.3462 6.57396 12.4582 6.23858 12.4327 5.89398C12.3802 5.19202 11.7634 4.66094 11.0593 4.7127C8.74919 4.88642 6.63623 6.33288 5.41808 7.33973C4.37436 8.20193 3.47387 9.22651 2.78609 10.3929C1.9877 11.7479 1.27085 13.6056 1.72748 15.4924Z" fill="var(--fill-0, #00DC46)"/>
<path id="Vector_2" d="M18.4203 3.69124C17.1256 3.71535 16.0918 4.78814 16.1159 6.08287C16.14 7.37759 17.2128 8.41139 18.5076 8.38728C19.8023 8.36317 20.8361 7.29038 20.812 5.99565C20.7879 4.70093 19.7151 3.66714 18.4203 3.69124Z" fill="var(--fill-0, #00DC46)"/>
</g>
</svg>
