<svg preserveAspectRatio="none" width="100%" height="100%" overflow="visible" style="display: block;" viewBox="0 0 4.45396 4.45398" fill="none" xmlns="http://www.w3.org/2000/svg">
<g id="school--school-education">
<path id="Intersect" d="M2.24695 0.856679C2.53232 0.878076 2.7888 0.878076 3.07418 0.856679C3.09997 0.621166 3.09997 0.407672 3.07418 0.17216C2.7888 0.150763 2.53232 0.150763 2.24695 0.17216C2.22116 0.407672 2.22116 0.621166 2.24695 0.856679Z" stroke="var(--stroke-0, #6240C8)" stroke-width="0.312224" stroke-linecap="round" stroke-linejoin="round"/>
<path id="Union" d="M1.18892 2.56044C0.950711 2.56589 0.801892 2.57319 0.557736 2.58236C0.379106 2.58906 0.227787 2.71799 0.20374 2.89404C0.140236 3.35895 0.140236 3.48738 0.20374 3.95231C0.227787 4.12836 0.379106 4.25727 0.557736 4.26399C1.76233 4.30916 2.69161 4.30916 3.8962 4.26399C4.07484 4.25727 4.22617 4.12836 4.25023 3.95231C4.31372 3.48738 4.31372 3.35895 4.25023 2.89404C4.22617 2.71799 4.07484 2.58906 3.8962 2.58236C3.65197 2.57319 3.50446 2.56589 3.26618 2.56044C3.26137 2.46314 3.25535 2.36351 3.24815 2.26038C3.19128 1.06405 1.2641 1.06127 1.20709 2.25841C1.19981 2.36224 1.19376 2.46252 1.18892 2.56044Z" stroke="var(--stroke-0, #6240C8)" stroke-width="0.312224" stroke-linecap="round" stroke-linejoin="round"/>
<path id="Vector 562" d="M2.22761 0.514454V1.36186" stroke="var(--stroke-0, #6240C8)" stroke-width="0.312224" stroke-linecap="round" stroke-linejoin="round"/>
<path id="Vector 563" d="M1.19591 2.44879V4.28433" stroke="var(--stroke-0, #6240C8)" stroke-width="0.312224" stroke-linecap="round" stroke-linejoin="round"/>
<path id="Vector 565" d="M2.22698 3.5838V4.29778" stroke="var(--stroke-0, #6240C8)" stroke-width="0.312224" stroke-linecap="round" stroke-linejoin="round"/>
<path id="Vector 564" d="M3.25799 2.44879V4.28433" stroke="var(--stroke-0, #6240C8)" stroke-width="0.312224" stroke-linecap="round" stroke-linejoin="round"/>
<path id="Vector" d="M2.22695 2.73414C2.47001 2.73414 2.60674 2.59825 2.60674 2.35667C2.60674 2.1151 2.47001 1.97921 2.22695 1.97921C1.98389 1.97921 1.84716 2.1151 1.84716 2.35667C1.84716 2.59825 1.98389 2.73414 2.22695 2.73414Z" stroke="var(--stroke-0, #6240C8)" stroke-width="0.312224" stroke-linecap="round" stroke-linejoin="round"/>
</g>
</svg>
