<svg preserveAspectRatio="none" width="100%" height="100%" overflow="visible" style="display: block;" viewBox="0 0 2.50719 2.50729" fill="none" xmlns="http://www.w3.org/2000/svg">
<g id="school--school-education">
<path id="Intersect" d="M1.26476 0.482236C1.42541 0.49428 1.56978 0.49428 1.73043 0.482236C1.74494 0.349663 1.74494 0.229484 1.73043 0.096911C1.56978 0.0848663 1.42541 0.0848663 1.26476 0.0969109C1.25025 0.229484 1.25025 0.349663 1.26476 0.482236Z" stroke="var(--stroke-0, #6240C8)" stroke-width="0.175755" stroke-linecap="round" stroke-linejoin="round"/>
<path id="Union" d="M0.66926 1.44139C0.535168 1.44445 0.451395 1.44857 0.313957 1.45372C0.213404 1.45749 0.128224 1.53007 0.114688 1.62917C0.0789406 1.89088 0.0789406 1.96317 0.114688 2.22489C0.128224 2.32399 0.213404 2.39655 0.313957 2.40034C0.992041 2.42577 1.51514 2.42577 2.19322 2.40034C2.29378 2.39655 2.37897 2.32399 2.39251 2.22489C2.42825 1.96317 2.42825 1.89088 2.39251 1.62917C2.37897 1.53007 2.29378 1.4575 2.19322 1.45372C2.05574 1.44856 1.9727 1.44445 1.83858 1.44138C1.83587 1.38661 1.83248 1.33053 1.82842 1.27248C1.79641 0.599047 0.711579 0.597486 0.679484 1.27137C0.675391 1.32982 0.671984 1.38627 0.66926 1.44139Z" stroke="var(--stroke-0, #6240C8)" stroke-width="0.175755" stroke-linecap="round" stroke-linejoin="round"/>
<path id="Vector 562" d="M1.25388 0.28966V0.766675" stroke="var(--stroke-0, #6240C8)" stroke-width="0.175755" stroke-linecap="round" stroke-linejoin="round"/>
<path id="Vector 563" d="M0.673201 1.37822V2.41147" stroke="var(--stroke-0, #6240C8)" stroke-width="0.175755" stroke-linecap="round" stroke-linejoin="round"/>
<path id="Vector 565" d="M1.25355 2.0172V2.4191" stroke="var(--stroke-0, #6240C8)" stroke-width="0.175755" stroke-linecap="round" stroke-linejoin="round"/>
<path id="Vector 564" d="M1.834 1.37822V2.41147" stroke="var(--stroke-0, #6240C8)" stroke-width="0.175755" stroke-linecap="round" stroke-linejoin="round"/>
<path id="Vector" d="M1.25349 1.53901C1.39031 1.53901 1.46728 1.46251 1.46728 1.32652C1.46728 1.19054 1.39031 1.11405 1.25349 1.11405C1.11667 1.11405 1.03971 1.19054 1.03971 1.32652C1.03971 1.46251 1.11667 1.53901 1.25349 1.53901Z" stroke="var(--stroke-0, #6240C8)" stroke-width="0.175755" stroke-linecap="round" stroke-linejoin="round"/>
</g>
</svg>
