<svg preserveAspectRatio="none" width="100%" height="100%" overflow="visible" style="display: block;" viewBox="0 0 10.2629 10.6817" fill="none" xmlns="http://www.w3.org/2000/svg">
<g id="user-sync-online-in-person">
<path id="Intersect" d="M9.59372 10.0125C9.50021 9.55741 9.34213 9.12253 9.12698 8.72069C8.84822 8.20001 8.47369 7.73481 8.01982 7.35312C7.20627 6.66898 6.18787 6.29527 5.13715 6.29527C4.08641 6.29527 3.06801 6.66898 2.25446 7.35312C1.81572 7.72209 1.44181 8.19608 1.15764 8.72069C0.936705 9.1285 0.769997 9.56693 0.669198 10.0104" stroke="var(--stroke-0, #00DC46)" stroke-width="1.3381" stroke-linecap="round" stroke-linejoin="round"/>
<path id="Vector_4" d="M5.13109 6.29566C6.93159 6.29566 7.94439 5.28288 7.94439 3.48236C7.94439 1.68184 6.93159 0.669051 5.13109 0.669051C3.33057 0.669051 2.31777 1.68184 2.31777 3.48236C2.31777 5.28288 3.33057 6.29566 5.13109 6.29566Z" stroke="var(--stroke-0, #00DC46)" stroke-width="1.3381" stroke-linecap="round" stroke-linejoin="round"/>
</g>
</svg>
