<svg preserveAspectRatio="none" width="100%" height="100%" overflow="visible" style="display: block;" viewBox="0 0 11.2206 11.2206" fill="none" xmlns="http://www.w3.org/2000/svg">
<g id="Frame 5757">
<path id="Vector" d="M0.85348 7.65452C1.0353 8.40528 1.53243 8.98403 2.26953 9.28006C2.58062 9.40513 2.92395 9.46504 3.28935 9.45803C3.3426 9.45698 3.3976 9.45453 3.45295 9.45067C4.38309 9.38446 5.27363 8.92307 5.85729 8.54752C6.59299 8.07421 7.27474 7.46078 7.74348 6.85295C7.77852 7.17596 7.8132 7.49967 7.83247 7.72668C7.85804 8.02482 8.09206 8.26655 8.38845 8.30123C8.43995 8.30719 8.4925 8.30719 8.5447 8.30018C8.87646 8.25779 9.12204 7.94459 9.09227 7.60232C9.06914 7.33711 9.02991 6.97417 8.99172 6.62313L8.84633 5.05469C8.82426 4.78318 8.67922 4.54461 8.4487 4.39957C8.21818 4.25488 7.94002 4.2279 7.68568 4.326C6.00198 4.97622 4.65565 5.30027 4.64479 5.30308C4.30111 5.36228 4.06954 5.6902 4.12875 6.03387C4.18795 6.37755 4.51551 6.60947 4.85954 6.55026C4.90053 6.54326 5.68317 6.35092 6.82106 5.97467C6.45181 6.48966 5.83136 7.0586 5.17239 7.4825C4.20021 8.1082 3.31422 8.33486 2.74143 8.10469C2.39319 7.96491 2.16653 7.70917 2.0863 7.36514C1.97244 6.87783 2.14481 6.26579 2.56486 5.62363C2.84688 5.19237 3.20351 4.81541 3.60815 4.49626C4.0832 4.12105 4.80909 3.65406 5.54059 3.59205C5.7112 3.57769 5.87411 3.50552 5.98691 3.37694C6.10007 3.24802 6.15542 3.08231 6.14281 2.91205C6.11689 2.56522 5.8121 2.30282 5.46422 2.3284C4.32283 2.41423 3.27884 3.12891 2.67696 3.62638C2.16127 4.05239 1.71635 4.55862 1.37653 5.13492C0.982052 5.8044 0.627866 6.72228 0.85348 7.65452Z" fill="var(--fill-0, #00DC46)"/>
<path id="Vector_2" d="M9.10128 1.82341C8.46157 1.83532 7.95078 2.36538 7.96269 3.00509C7.97461 3.6448 8.50466 4.15558 9.14437 4.14367C9.78408 4.13176 10.2949 3.6017 10.283 2.962C10.271 2.32229 9.74099 1.8115 9.10128 1.82341Z" fill="var(--fill-0, #00DC46)"/>
</g>
</svg>
