<svg preserveAspectRatio="none" width="100%" height="100%" overflow="visible" style="display: block;" viewBox="0 0 266.795 214.426" fill="none" xmlns="http://www.w3.org/2000/svg">
<g id="Group 5475">
<path id="Vector" d="M1.9794 163.761C7.08566 184.845 21.0467 201.098 41.7473 209.412C50.484 212.925 60.1259 214.607 70.3876 214.41C71.8831 214.381 73.4278 214.312 74.9823 214.204C101.104 212.344 126.114 199.387 142.505 188.84C163.166 175.547 182.312 158.32 195.476 141.25C196.46 150.321 197.434 159.412 197.975 165.788C198.694 174.16 205.266 180.949 213.589 181.923C215.036 182.09 216.512 182.09 217.978 181.893C227.295 180.703 234.192 171.907 233.355 162.295C232.706 154.847 231.604 144.654 230.532 134.796L226.449 90.7479C225.829 83.123 221.756 76.4228 215.282 72.3496C208.808 68.2863 200.996 67.5287 193.853 70.2835C146.568 88.5441 108.758 97.6449 108.453 97.7236C98.8017 99.3863 92.2984 108.595 93.9611 118.247C95.6238 127.899 104.823 134.412 114.485 132.749C115.636 132.552 137.615 127.151 169.571 116.584C159.201 131.047 141.777 147.025 123.27 158.93C95.9682 176.502 71.0862 182.867 55 176.403C45.2203 172.478 38.8547 165.296 36.6017 155.634C33.4041 141.948 38.2447 124.76 50.0413 106.726C57.9614 94.6145 67.9772 84.0281 79.3408 75.0651C92.6821 64.5279 113.068 51.4129 133.611 49.6715C138.402 49.2681 142.977 47.2413 146.145 43.6306C149.323 40.0099 150.878 35.3562 150.524 30.5746C149.796 20.8344 141.236 13.4652 131.466 14.1834C99.4117 16.5939 70.0925 36.6648 53.1897 50.6357C38.7071 62.5995 26.212 76.8164 16.6685 93.001C5.59018 111.803 -4.35671 137.58 1.9794 163.761Z" fill="var(--fill-0, #00DC46)"/>
<path id="Vector_2" d="M233.603 0.00575931C215.638 0.340274 201.293 15.2262 201.627 33.1916C201.962 51.157 216.848 65.5018 234.813 65.1673C252.779 64.8328 267.123 49.9469 266.789 31.9814C266.454 14.016 251.568 -0.328755 233.603 0.00575931Z" fill="var(--fill-0, #00DC46)"/>
</g>
</svg>
