<svg preserveAspectRatio="none" width="100%" height="100%" overflow="visible" style="display: block;" viewBox="0 0 57.1675 56.2091" fill="none" xmlns="http://www.w3.org/2000/svg">
<g id="multiple-stars--reward-rating-rate-social-star-media-favorite-like-stars-spark">
<path id="Vector 2137" d="M33.1948 16.3532C33.5948 13.0313 34.8506 10.1221 36.7156 7.7489C38.1755 5.89121 40.9394 5.89121 42.3993 7.7489C44.2644 10.1221 45.5201 13.0313 45.92 16.3532C49.2419 16.7531 52.151 18.009 54.5244 19.874C56.3819 21.3339 56.3819 24.0978 54.5244 25.5577C52.151 27.4227 49.2423 28.6785 45.9204 29.0785C45.5201 32.4004 44.2644 35.3096 42.3993 37.6828C40.9396 39.5405 38.1757 39.5405 36.7158 37.6828C34.8508 35.3096 33.5949 32.4004 33.195 29.0785C29.873 28.6785 26.9639 27.4227 24.5907 25.5577C22.733 24.0978 22.733 21.3339 24.5907 19.874C26.9639 18.009 29.8728 16.7531 33.1948 16.3532Z" stroke="var(--stroke-0, white)" stroke-width="2.5" stroke-linecap="round" stroke-linejoin="round"/>
<path id="Vector 2138" d="M9.38026 36.4856C9.70542 33.7848 10.7264 31.4197 12.2426 29.4903C13.4295 27.98 15.6766 27.98 16.8635 29.4903C18.3797 31.4197 19.4007 33.7848 19.7258 36.4856C22.4266 36.8107 24.7917 37.8317 26.7211 39.3479C28.2314 40.5348 28.2314 42.7821 26.7211 43.9688C24.7917 45.4851 22.4267 46.5059 19.726 46.8312C19.4009 49.5321 18.3799 51.8969 16.8636 53.8264C15.6767 55.3367 13.4297 55.3367 12.2428 53.8264C10.7266 51.8969 9.70559 49.5321 9.38043 46.8312C6.6797 46.5059 4.31455 45.4851 2.38517 43.9688C0.874864 42.7821 0.874864 40.5348 2.38517 39.3479C4.31455 37.8317 6.67953 36.8107 9.38026 36.4856Z" stroke="var(--stroke-0, white)" stroke-width="2.5" stroke-linecap="round" stroke-linejoin="round"/>
<path id="Vector 2139" d="M7.1336 7.1337C7.36897 5.17869 8.10804 3.46663 9.20561 2.06997C10.0648 0.97668 11.6914 0.976676 12.5506 2.06997C13.6481 3.46663 14.3872 5.17869 14.6226 7.1337C16.5776 7.36907 18.2897 8.10819 19.6863 9.20576C20.7796 10.0649 20.7796 11.6915 19.6863 12.5507C18.2897 13.6482 16.5777 14.3873 14.6227 14.6227C14.3873 16.5777 13.6482 18.2898 12.5507 19.6865C11.6915 20.7798 10.0649 20.7798 9.20574 19.6865C8.10817 18.2898 7.3691 16.5777 7.13373 14.6227C5.17871 14.3873 3.46661 13.6482 2.06997 12.5507C0.976678 11.6915 0.976678 10.0649 2.06997 9.20576C3.46661 8.10819 5.17858 7.36907 7.1336 7.1337Z" stroke="var(--stroke-0, white)" stroke-width="2.5" stroke-linecap="round" stroke-linejoin="round"/>
</g>
</svg>
