<svg preserveAspectRatio="none" width="100%" height="100%" overflow="visible" style="display: block;" viewBox="0 0 1889.5 1343.14" fill="none" xmlns="http://www.w3.org/2000/svg">
<path id="Union" d="M69.2949 27.3184H141.144V0H142.144V27.3184H213.991V0H214.991V27.3184H286.839V0H287.839V27.3184H359.688V0H360.688V27.3184H432.535V0H433.535V27.3184H505.384V0H506.384V27.3184H578.231V0H579.231V27.3184H651.08V0H652.08V27.3184H723.928V0H724.928V27.3184H796.776V0H797.776V27.3184H869.624V0H870.624V27.3184H942.472V0H943.472V27.3184H1015.32V0H1016.32V27.3184H1088.17V0H1089.17V27.3184H1161.02V0H1162.02V27.3184H1233.86V0H1234.86V27.3184H1306.71V0H1307.71V27.3184H1379.56V0H1380.56V27.3184H1452.41V0H1453.41V27.3184H1525.26V0H1526.26V27.3184H1598.1V0H1599.1V27.3184H1670.95V0H1671.95V27.3184H1743.8V0H1744.8V27.3184H1816.65V0H1817.65V27.3184H1889.5V28.3184H1817.65V100.166H1889.5V101.166H1817.65V173.015H1889.5V174.015H1817.65V245.862H1889.5V246.862H1817.65V318.71H1889.5V319.71H1817.65V391.559H1889.5V392.559H1817.65V464.406H1889.5V465.406H1817.65V537.255H1889.5V538.255H1817.65V610.103H1889.5V611.103H1817.65V682.951H1889.5V683.951H1817.65V755.799H1889.5V756.799H1817.65V828.646H1889.5V829.646H1817.65V901.495H1889.5V902.495H1817.65V974.343H1889.5V975.343H1817.65V1047.19H1889.5V1048.19H1817.65V1120.04H1889.5V1121.04H1817.65V1192.89H1889.5V1193.89H1817.65V1265.74H1889.5V1266.74H1817.65V1343.14H1816.65V1266.74H1744.8V1343.14H1743.8V1266.74H1671.95V1343.14H1670.95V1266.74H1599.1V1343.14H1598.1V1266.74H1526.26V1343.14H1525.26V1266.74H1453.41V1343.14H1452.41V1266.74H1380.56V1343.14H1379.56V1266.74H1307.71V1343.14H1306.71V1266.74H1234.86V1343.14H1233.86V1266.74H1162.02V1343.14H1161.02V1266.74H1089.17V1343.14H1088.17V1266.74H1016.32V1343.14H1015.32V1266.74H943.472V1343.14H942.472V1266.74H870.624V1343.14H869.624V1266.74H797.776V1343.14H796.776V1266.74H724.928V1343.14H723.928V1266.74H652.08V1343.14H651.08V1266.74H579.231V1343.14H578.231V1266.74H506.384V1343.14H505.384V1266.74H433.535V1343.14H432.535V1266.74H360.688V1343.14H359.688V1266.74H287.839V1343.14H286.839V1266.74H214.991V1343.14H213.991V1266.74H142.144V1343.14H141.144V1266.74H69.2949V1343.14H68.2949V1266.74H0V1265.74H68.2949V1193.89H0V1192.89H68.2949V1121.04H0V1120.04H68.2949V1048.19H0V1047.19H68.2949V975.343H0V974.343H68.2949V902.495H0V901.495H68.2949V829.646H0V828.646H68.2949V756.799H0V755.799H68.2949V683.951H0V682.951H68.2949V611.103H0V610.103H68.2949V538.255H0V537.255H68.2949V465.406H0V464.406H68.2949V392.559H0V391.559H68.2949V319.71H0V318.71H68.2949V246.862H0V245.862H68.2949V174.015H0V173.015H68.2949V101.166H0V100.166H68.2949V28.3184H0V27.3184H68.2949V0H69.2949V27.3184ZM69.2949 1265.74H141.144V1193.89H69.2949V1265.74ZM142.144 1265.74H213.991V1193.89H142.144V1265.74ZM214.991 1265.74H286.839V1193.89H214.991V1265.74ZM287.839 1265.74H359.688V1193.89H287.839V1265.74ZM360.688 1265.74H432.535V1193.89H360.688V1265.74ZM433.535 1265.74H505.384V1193.89H433.535V1265.74ZM506.384 1265.74H578.231V1193.89H506.384V1265.74ZM579.231 1265.74H651.08V1193.89H579.231V1265.74ZM652.08 1265.74H723.928V1193.89H652.08V1265.74ZM724.928 1265.74H796.776V1193.89H724.928V1265.74ZM797.776 1265.74H869.624V1193.89H797.776V1265.74ZM870.624 1265.74H942.472V1193.89H870.624V1265.74ZM943.472 1265.74H1015.32V1193.89H943.472V1265.74ZM1016.32 1265.74H1088.17V1193.89H1016.32V1265.74ZM1089.17 1265.74H1161.02V1193.89H1089.17V1265.74ZM1162.02 1265.74H1233.86V1193.89H1162.02V1265.74ZM1234.86 1265.74H1306.71V1193.89H1234.86V1265.74ZM1307.71 1265.74H1379.56V1193.89H1307.71V1265.74ZM1380.56 1265.74H1452.41V1193.89H1380.56V1265.74ZM1453.41 1265.74H1525.26V1193.89H1453.41V1265.74ZM1526.26 1265.74H1598.1V1193.89H1526.26V1265.74ZM1599.1 1265.74H1670.95V1193.89H1599.1V1265.74ZM1671.95 1265.74H1743.8V1193.89H1671.95V1265.74ZM1744.8 1265.74H1816.65V1193.89H1744.8V1265.74ZM69.2949 1192.89H141.144V1121.04H69.2949V1192.89ZM142.144 1192.89H213.991V1121.04H142.144V1192.89ZM214.991 1192.89H286.839V1121.04H214.991V1192.89ZM287.839 1192.89H359.688V1121.04H287.839V1192.89ZM360.688 1192.89H432.535V1121.04H360.688V1192.89ZM433.535 1192.89H505.384V1121.04H433.535V1192.89ZM506.384 1192.89H578.231V1121.04H506.384V1192.89ZM579.231 1192.89H651.08V1121.04H579.231V1192.89ZM652.08 1192.89H723.928V1121.04H652.08V1192.89ZM724.928 1192.89H796.776V1121.04H724.928V1192.89ZM797.776 1192.89H869.624V1121.04H797.776V1192.89ZM870.624 1192.89H942.472V1121.04H870.624V1192.89ZM943.472 1192.89H1015.32V1121.04H943.472V1192.89ZM1016.32 1192.89H1088.17V1121.04H1016.32V1192.89ZM1089.17 1192.89H1161.02V1121.04H1089.17V1192.89ZM1162.02 1192.89H1233.86V1121.04H1162.02V1192.89ZM1234.86 1192.89H1306.71V1121.04H1234.86V1192.89ZM1307.71 1192.89H1379.56V1121.04H1307.71V1192.89ZM1380.56 1192.89H1452.41V1121.04H1380.56V1192.89ZM1453.41 1192.89H1525.26V1121.04H1453.41V1192.89ZM1526.26 1192.89H1598.1V1121.04H1526.26V1192.89ZM1599.1 1192.89H1670.95V1121.04H1599.1V1192.89ZM1671.95 1192.89H1743.8V1121.04H1671.95V1192.89ZM1744.8 1192.89H1816.65V1121.04H1744.8V1192.89ZM69.2949 1120.04H141.144V1048.19H69.2949V1120.04ZM142.144 1120.04H213.991V1048.19H142.144V1120.04ZM214.991 1120.04H286.839V1048.19H214.991V1120.04ZM287.839 1120.04H359.688V1048.19H287.839V1120.04ZM360.688 1120.04H432.535V1048.19H360.688V1120.04ZM433.535 1120.04H505.384V1048.19H433.535V1120.04ZM506.384 1120.04H578.231V1048.19H506.384V1120.04ZM579.231 1120.04H651.08V1048.19H579.231V1120.04ZM652.08 1120.04H723.928V1048.19H652.08V1120.04ZM724.928 1120.04H796.776V1048.19H724.928V1120.04ZM797.776 1120.04H869.624V1048.19H797.776V1120.04ZM870.624 1120.04H942.472V1048.19H870.624V1120.04ZM943.472 1120.04H1015.32V1048.19H943.472V1120.04ZM1016.32 1120.04H1088.17V1048.19H1016.32V1120.04ZM1089.17 1120.04H1161.02V1048.19H1089.17V1120.04ZM1162.02 1120.04H1233.86V1048.19H1162.02V1120.04ZM1234.86 1120.04H1306.71V1048.19H1234.86V1120.04ZM1307.71 1120.04H1379.56V1048.19H1307.71V1120.04ZM1380.56 1120.04H1452.41V1048.19H1380.56V1120.04ZM1453.41 1120.04H1525.26V1048.19H1453.41V1120.04ZM1526.26 1120.04H1598.1V1048.19H1526.26V1120.04ZM1599.1 1120.04H1670.95V1048.19H1599.1V1120.04ZM1671.95 1120.04H1743.8V1048.19H1671.95V1120.04ZM1744.8 1120.04H1816.65V1048.19H1744.8V1120.04ZM69.2949 1047.19H141.144V975.343H69.2949V1047.19ZM142.144 1047.19H213.991V975.343H142.144V1047.19ZM214.991 1047.19H286.839V975.343H214.991V1047.19ZM287.839 1047.19H359.688V975.343H287.839V1047.19ZM360.688 1047.19H432.535V975.343H360.688V1047.19ZM433.535 1047.19H505.384V975.343H433.535V1047.19ZM506.384 1047.19H578.231V975.343H506.384V1047.19ZM579.231 1047.19H651.08V975.343H579.231V1047.19ZM652.08 1047.19H723.928V975.343H652.08V1047.19ZM724.928 1047.19H796.776V975.343H724.928V1047.19ZM797.776 1047.19H869.624V975.343H797.776V1047.19ZM870.624 1047.19H942.472V975.343H870.624V1047.19ZM943.472 1047.19H1015.32V975.343H943.472V1047.19ZM1016.32 1047.19H1088.17V975.343H1016.32V1047.19ZM1089.17 1047.19H1161.02V975.343H1089.17V1047.19ZM1162.02 1047.19H1233.86V975.343H1162.02V1047.19ZM1234.86 1047.19H1306.71V975.343H1234.86V1047.19ZM1307.71 1047.19H1379.56V975.343H1307.71V1047.19ZM1380.56 1047.19H1452.41V975.343H1380.56V1047.19ZM1453.41 1047.19H1525.26V975.343H1453.41V1047.19ZM1526.26 1047.19H1598.1V975.343H1526.26V1047.19ZM1599.1 1047.19H1670.95V975.343H1599.1V1047.19ZM1671.95 1047.19H1743.8V975.343H1671.95V1047.19ZM1744.8 1047.19H1816.65V975.343H1744.8V1047.19ZM69.2949 974.343H141.144V902.495H69.2949V974.343ZM142.144 974.343H213.991V902.495H142.144V974.343ZM214.991 974.343H286.839V902.495H214.991V974.343ZM287.839 974.343H359.688V902.495H287.839V974.343ZM360.688 974.343H432.535V902.495H360.688V974.343ZM433.535 974.343H505.384V902.495H433.535V974.343ZM506.384 974.343H578.231V902.495H506.384V974.343ZM579.231 974.343H651.08V902.495H579.231V974.343ZM652.08 974.343H723.928V902.495H652.08V974.343ZM724.928 974.343H796.776V902.495H724.928V974.343ZM797.776 974.343H869.624V902.495H797.776V974.343ZM870.624 974.343H942.472V902.495H870.624V974.343ZM943.472 974.343H1015.32V902.495H943.472V974.343ZM1016.32 974.343H1088.17V902.495H1016.32V974.343ZM1089.17 974.343H1161.02V902.495H1089.17V974.343ZM1162.02 974.343H1233.86V902.495H1162.02V974.343ZM1234.86 974.343H1306.71V902.495H1234.86V974.343ZM1307.71 974.343H1379.56V902.495H1307.71V974.343ZM1380.56 974.343H1452.41V902.495H1380.56V974.343ZM1453.41 974.343H1525.26V902.495H1453.41V974.343ZM1526.26 974.343H1598.1V902.495H1526.26V974.343ZM1599.1 974.343H1670.95V902.495H1599.1V974.343ZM1671.95 974.343H1743.8V902.495H1671.95V974.343ZM1744.8 974.343H1816.65V902.495H1744.8V974.343ZM69.2949 901.495H141.144V829.646H69.2949V901.495ZM142.144 901.495H213.991V829.646H142.144V901.495ZM214.991 901.495H286.839V829.646H214.991V901.495ZM287.839 901.495H359.688V829.646H287.839V901.495ZM360.688 901.495H432.535V829.646H360.688V901.495ZM433.535 901.495H505.384V829.646H433.535V901.495ZM506.384 901.495H578.231V829.646H506.384V901.495ZM579.231 901.495H651.08V829.646H579.231V901.495ZM652.08 901.495H723.928V829.646H652.08V901.495ZM724.928 901.495H796.776V829.646H724.928V901.495ZM797.776 901.495H869.624V829.646H797.776V901.495ZM870.624 901.495H942.472V829.646H870.624V901.495ZM943.472 901.495H1015.32V829.646H943.472V901.495ZM1016.32 901.495H1088.17V829.646H1016.32V901.495ZM1089.17 901.495H1161.02V829.646H1089.17V901.495ZM1162.02 901.495H1233.86V829.646H1162.02V901.495ZM1234.86 901.495H1306.71V829.646H1234.86V901.495ZM1307.71 901.495H1379.56V829.646H1307.71V901.495ZM1380.56 901.495H1452.41V829.646H1380.56V901.495ZM1453.41 901.495H1525.26V829.646H1453.41V901.495ZM1526.26 901.495H1598.1V829.646H1526.26V901.495ZM1599.1 901.495H1670.95V829.646H1599.1V901.495ZM1671.95 901.495H1743.8V829.646H1671.95V901.495ZM1744.8 901.495H1816.65V829.646H1744.8V901.495ZM69.2949 828.646H141.144V756.799H69.2949V828.646ZM142.144 828.646H213.991V756.799H142.144V828.646ZM214.991 828.646H286.839V756.799H214.991V828.646ZM287.839 828.646H359.688V756.799H287.839V828.646ZM360.688 828.646H432.535V756.799H360.688V828.646ZM433.535 828.646H505.384V756.799H433.535V828.646ZM506.384 828.646H578.231V756.799H506.384V828.646ZM579.231 828.646H651.08V756.799H579.231V828.646ZM652.08 828.646H723.928V756.799H652.08V828.646ZM724.928 828.646H796.776V756.799H724.928V828.646ZM797.776 828.646H869.624V756.799H797.776V828.646ZM870.624 828.646H942.472V756.799H870.624V828.646ZM943.472 828.646H1015.32V756.799H943.472V828.646ZM1016.32 828.646H1088.17V756.799H1016.32V828.646ZM1089.17 828.646H1161.02V756.799H1089.17V828.646ZM1162.02 828.646H1233.86V756.799H1162.02V828.646ZM1234.86 828.646H1306.71V756.799H1234.86V828.646ZM1307.71 828.646H1379.56V756.799H1307.71V828.646ZM1380.56 828.646H1452.41V756.799H1380.56V828.646ZM1453.41 828.646H1525.26V756.799H1453.41V828.646ZM1526.26 828.646H1598.1V756.799H1526.26V828.646ZM1599.1 828.646H1670.95V756.799H1599.1V828.646ZM1671.95 828.646H1743.8V756.799H1671.95V828.646ZM1744.8 828.646H1816.65V756.799H1744.8V828.646ZM69.2949 755.799H141.144V683.951H69.2949V755.799ZM142.144 755.799H213.991V683.951H142.144V755.799ZM214.991 755.799H286.839V683.951H214.991V755.799ZM287.839 755.799H359.688V683.951H287.839V755.799ZM360.688 755.799H432.535V683.951H360.688V755.799ZM433.535 755.799H505.384V683.951H433.535V755.799ZM506.384 755.799H578.231V683.951H506.384V755.799ZM579.231 755.799H651.08V683.951H579.231V755.799ZM652.08 755.799H723.928V683.951H652.08V755.799ZM724.928 755.799H796.776V683.951H724.928V755.799ZM797.776 755.799H869.624V683.951H797.776V755.799ZM870.624 755.799H942.472V683.951H870.624V755.799ZM943.472 755.799H1015.32V683.951H943.472V755.799ZM1016.32 755.799H1088.17V683.951H1016.32V755.799ZM1089.17 755.799H1161.02V683.951H1089.17V755.799ZM1162.02 755.799H1233.86V683.951H1162.02V755.799ZM1234.86 755.799H1306.71V683.951H1234.86V755.799ZM1307.71 755.799H1379.56V683.951H1307.71V755.799ZM1380.56 755.799H1452.41V683.951H1380.56V755.799ZM1453.41 755.799H1525.26V683.951H1453.41V755.799ZM1526.26 755.799H1598.1V683.951H1526.26V755.799ZM1599.1 755.799H1670.95V683.951H1599.1V755.799ZM1671.95 755.799H1743.8V683.951H1671.95V755.799ZM1744.8 755.799H1816.65V683.951H1744.8V755.799ZM69.2949 682.951H141.144V611.103H69.2949V682.951ZM142.144 682.951H213.991V611.103H142.144V682.951ZM214.991 682.951H286.839V611.103H214.991V682.951ZM287.839 682.951H359.688V611.103H287.839V682.951ZM360.688 682.951H432.535V611.103H360.688V682.951ZM433.535 682.951H505.384V611.103H433.535V682.951ZM506.384 682.951H578.231V611.103H506.384V682.951ZM579.231 682.951H651.08V611.103H579.231V682.951ZM652.08 682.951H723.928V611.103H652.08V682.951ZM724.928 682.951H796.776V611.103H724.928V682.951ZM797.776 682.951H869.624V611.103H797.776V682.951ZM870.624 682.951H942.472V611.103H870.624V682.951ZM943.472 682.951H1015.32V611.103H943.472V682.951ZM1016.32 682.951H1088.17V611.103H1016.32V682.951ZM1089.17 682.951H1161.02V611.103H1089.17V682.951ZM1162.02 682.951H1233.86V611.103H1162.02V682.951ZM1234.86 682.951H1306.71V611.103H1234.86V682.951ZM1307.71 682.951H1379.56V611.103H1307.71V682.951ZM1380.56 682.951H1452.41V611.103H1380.56V682.951ZM1453.41 682.951H1525.26V611.103H1453.41V682.951ZM1526.26 682.951H1598.1V611.103H1526.26V682.951ZM1599.1 682.951H1670.95V611.103H1599.1V682.951ZM1671.95 682.951H1743.8V611.103H1671.95V682.951ZM1744.8 682.951H1816.65V611.103H1744.8V682.951ZM69.2949 610.103H141.144V538.255H69.2949V610.103ZM142.144 610.103H213.991V538.255H142.144V610.103ZM214.991 610.103H286.839V538.255H214.991V610.103ZM287.839 610.103H359.688V538.255H287.839V610.103ZM360.688 610.103H432.535V538.255H360.688V610.103ZM433.535 610.103H505.384V538.255H433.535V610.103ZM506.384 610.103H578.231V538.255H506.384V610.103ZM579.231 610.103H651.08V538.255H579.231V610.103ZM652.08 610.103H723.928V538.255H652.08V610.103ZM724.928 610.103H796.776V538.255H724.928V610.103ZM797.776 610.103H869.624V538.255H797.776V610.103ZM870.624 610.103H942.472V538.255H870.624V610.103ZM943.472 610.103H1015.32V538.255H943.472V610.103ZM1016.32 610.103H1088.17V538.255H1016.32V610.103ZM1089.17 610.103H1161.02V538.255H1089.17V610.103ZM1162.02 610.103H1233.86V538.255H1162.02V610.103ZM1234.86 610.103H1306.71V538.255H1234.86V610.103ZM1307.71 610.103H1379.56V538.255H1307.71V610.103ZM1380.56 610.103H1452.41V538.255H1380.56V610.103ZM1453.41 610.103H1525.26V538.255H1453.41V610.103ZM1526.26 610.103H1598.1V538.255H1526.26V610.103ZM1599.1 610.103H1670.95V538.255H1599.1V610.103ZM1671.95 610.103H1743.8V538.255H1671.95V610.103ZM1744.8 610.103H1816.65V538.255H1744.8V610.103ZM69.2949 537.255H141.144V465.406H69.2949V537.255ZM142.144 537.255H213.991V465.406H142.144V537.255ZM214.991 537.255H286.839V465.406H214.991V537.255ZM287.839 537.255H359.688V465.406H287.839V537.255ZM360.688 537.255H432.535V465.406H360.688V537.255ZM433.535 537.255H505.384V465.406H433.535V537.255ZM506.384 537.255H578.231V465.406H506.384V537.255ZM579.231 537.255H651.08V465.406H579.231V537.255ZM652.08 537.255H723.928V465.406H652.08V537.255ZM724.928 537.255H796.776V465.406H724.928V537.255ZM797.776 537.255H869.624V465.406H797.776V537.255ZM870.624 537.255H942.472V465.406H870.624V537.255ZM943.472 537.255H1015.32V465.406H943.472V537.255ZM1016.32 537.255H1088.17V465.406H1016.32V537.255ZM1089.17 537.255H1161.02V465.406H1089.17V537.255ZM1162.02 537.255H1233.86V465.406H1162.02V537.255ZM1234.86 537.255H1306.71V465.406H1234.86V537.255ZM1307.71 537.255H1379.56V465.406H1307.71V537.255ZM1380.56 537.255H1452.41V465.406H1380.56V537.255ZM1453.41 537.255H1525.26V465.406H1453.41V537.255ZM1526.26 537.255H1598.1V465.406H1526.26V537.255ZM1599.1 537.255H1670.95V465.406H1599.1V537.255ZM1671.95 537.255H1743.8V465.406H1671.95V537.255ZM1744.8 537.255H1816.65V465.406H1744.8V537.255ZM69.2949 464.406H141.144V392.559H69.2949V464.406ZM142.144 464.406H213.991V392.559H142.144V464.406ZM214.991 464.406H286.839V392.559H214.991V464.406ZM287.839 464.406H359.688V392.559H287.839V464.406ZM360.688 464.406H432.535V392.559H360.688V464.406ZM433.535 464.406H505.384V392.559H433.535V464.406ZM506.384 464.406H578.231V392.559H506.384V464.406ZM579.231 464.406H651.08V392.559H579.231V464.406ZM652.08 464.406H723.928V392.559H652.08V464.406ZM724.928 464.406H796.776V392.559H724.928V464.406ZM797.776 464.406H869.624V392.559H797.776V464.406ZM870.624 464.406H942.472V392.559H870.624V464.406ZM943.472 464.406H1015.32V392.559H943.472V464.406ZM1016.32 464.406H1088.17V392.559H1016.32V464.406ZM1089.17 464.406H1161.02V392.559H1089.17V464.406ZM1162.02 464.406H1233.86V392.559H1162.02V464.406ZM1234.86 464.406H1306.71V392.559H1234.86V464.406ZM1307.71 464.406H1379.56V392.559H1307.71V464.406ZM1380.56 464.406H1452.41V392.559H1380.56V464.406ZM1453.41 464.406H1525.26V392.559H1453.41V464.406ZM1526.26 464.406H1598.1V392.559H1526.26V464.406ZM1599.1 464.406H1670.95V392.559H1599.1V464.406ZM1671.95 464.406H1743.8V392.559H1671.95V464.406ZM1744.8 464.406H1816.65V392.559H1744.8V464.406ZM69.2949 391.559H141.144V319.71H69.2949V391.559ZM142.144 391.559H213.991V319.71H142.144V391.559ZM214.991 391.559H286.839V319.71H214.991V391.559ZM287.839 391.559H359.688V319.71H287.839V391.559ZM360.688 391.559H432.535V319.71H360.688V391.559ZM433.535 391.559H505.384V319.71H433.535V391.559ZM506.384 391.559H578.231V319.71H506.384V391.559ZM579.231 391.559H651.08V319.71H579.231V391.559ZM652.08 391.559H723.928V319.71H652.08V391.559ZM724.928 391.559H796.776V319.71H724.928V391.559ZM797.776 391.559H869.624V319.71H797.776V391.559ZM870.624 391.559H942.472V319.71H870.624V391.559ZM943.472 391.559H1015.32V319.71H943.472V391.559ZM1016.32 391.559H1088.17V319.71H1016.32V391.559ZM1089.17 391.559H1161.02V319.71H1089.17V391.559ZM1162.02 391.559H1233.86V319.71H1162.02V391.559ZM1234.86 391.559H1306.71V319.71H1234.86V391.559ZM1307.71 391.559H1379.56V319.71H1307.71V391.559ZM1380.56 391.559H1452.41V319.71H1380.56V391.559ZM1453.41 391.559H1525.26V319.71H1453.41V391.559ZM1526.26 391.559H1598.1V319.71H1526.26V391.559ZM1599.1 391.559H1670.95V319.71H1599.1V391.559ZM1671.95 391.559H1743.8V319.71H1671.95V391.559ZM1744.8 391.559H1816.65V319.71H1744.8V391.559ZM69.2949 318.71H141.144V246.862H69.2949V318.71ZM142.144 318.71H213.991V246.862H142.144V318.71ZM214.991 318.71H286.839V246.862H214.991V318.71ZM287.839 318.71H359.688V246.862H287.839V318.71ZM360.688 318.71H432.535V246.862H360.688V318.71ZM433.535 318.71H505.384V246.862H433.535V318.71ZM506.384 318.71H578.231V246.862H506.384V318.71ZM579.231 318.71H651.08V246.862H579.231V318.71ZM652.08 318.71H723.928V246.862H652.08V318.71ZM724.928 318.71H796.776V246.862H724.928V318.71ZM797.776 318.71H869.624V246.862H797.776V318.71ZM870.624 318.71H942.472V246.862H870.624V318.71ZM943.472 318.71H1015.32V246.862H943.472V318.71ZM1016.32 318.71H1088.17V246.862H1016.32V318.71ZM1089.17 318.71H1161.02V246.862H1089.17V318.71ZM1162.02 318.71H1233.86V246.862H1162.02V318.71ZM1234.86 318.71H1306.71V246.862H1234.86V318.71ZM1307.71 318.71H1379.56V246.862H1307.71V318.71ZM1380.56 318.71H1452.41V246.862H1380.56V318.71ZM1453.41 318.71H1525.26V246.862H1453.41V318.71ZM1526.26 318.71H1598.1V246.862H1526.26V318.71ZM1599.1 318.71H1670.95V246.862H1599.1V318.71ZM1671.95 318.71H1743.8V246.862H1671.95V318.71ZM1744.8 318.71H1816.65V246.862H1744.8V318.71ZM69.2949 245.862H141.144V174.015H69.2949V245.862ZM142.144 245.862H213.991V174.015H142.144V245.862ZM214.991 245.862H286.839V174.015H214.991V245.862ZM287.839 245.862H359.688V174.015H287.839V245.862ZM360.688 245.862H432.535V174.015H360.688V245.862ZM433.535 245.862H505.384V174.015H433.535V245.862ZM506.384 245.862H578.231V174.015H506.384V245.862ZM579.231 245.862H651.08V174.015H579.231V245.862ZM652.08 245.862H723.928V174.015H652.08V245.862ZM724.928 245.862H796.776V174.015H724.928V245.862ZM797.776 245.862H869.624V174.015H797.776V245.862ZM870.624 245.862H942.472V174.015H870.624V245.862ZM943.472 245.862H1015.32V174.015H943.472V245.862ZM1016.32 245.862H1088.17V174.015H1016.32V245.862ZM1089.17 245.862H1161.02V174.015H1089.17V245.862ZM1162.02 245.862H1233.86V174.015H1162.02V245.862ZM1234.86 245.862H1306.71V174.015H1234.86V245.862ZM1307.71 245.862H1379.56V174.015H1307.71V245.862ZM1380.56 245.862H1452.41V174.015H1380.56V245.862ZM1453.41 245.862H1525.26V174.015H1453.41V245.862ZM1526.26 245.862H1598.1V174.015H1526.26V245.862ZM1599.1 245.862H1670.95V174.015H1599.1V245.862ZM1671.95 245.862H1743.8V174.015H1671.95V245.862ZM1744.8 245.862H1816.65V174.015H1744.8V245.862ZM69.2949 173.015H141.144V101.166H69.2949V173.015ZM142.144 173.015H213.991V101.166H142.144V173.015ZM214.991 173.015H286.839V101.166H214.991V173.015ZM287.839 173.015H359.688V101.166H287.839V173.015ZM360.688 173.015H432.535V101.166H360.688V173.015ZM433.535 173.015H505.384V101.166H433.535V173.015ZM506.384 173.015H578.231V101.166H506.384V173.015ZM579.231 173.015H651.08V101.166H579.231V173.015ZM652.08 173.015H723.928V101.166H652.08V173.015ZM724.928 173.015H796.776V101.166H724.928V173.015ZM797.776 173.015H869.624V101.166H797.776V173.015ZM870.624 173.015H942.472V101.166H870.624V173.015ZM943.472 173.015H1015.32V101.166H943.472V173.015ZM1016.32 173.015H1088.17V101.166H1016.32V173.015ZM1089.17 173.015H1161.02V101.166H1089.17V173.015ZM1162.02 173.015H1233.86V101.166H1162.02V173.015ZM1234.86 173.015H1306.71V101.166H1234.86V173.015ZM1307.71 173.015H1379.56V101.166H1307.71V173.015ZM1380.56 173.015H1452.41V101.166H1380.56V173.015ZM1453.41 173.015H1525.26V101.166H1453.41V173.015ZM1526.26 173.015H1598.1V101.166H1526.26V173.015ZM1599.1 173.015H1670.95V101.166H1599.1V173.015ZM1671.95 173.015H1743.8V101.166H1671.95V173.015ZM1744.8 173.015H1816.65V101.166H1744.8V173.015ZM69.2949 100.166H141.144V28.3184H69.2949V100.166ZM142.144 100.166H213.991V28.3184H142.144V100.166ZM214.991 100.166H286.839V28.3184H214.991V100.166ZM287.839 100.166H359.688V28.3184H287.839V100.166ZM360.688 100.166H432.535V28.3184H360.688V100.166ZM433.535 100.166H505.384V28.3184H433.535V100.166ZM506.384 100.166H578.231V28.3184H506.384V100.166ZM579.231 100.166H651.08V28.3184H579.231V100.166ZM652.08 100.166H723.928V28.3184H652.08V100.166ZM724.928 100.166H796.776V28.3184H724.928V100.166ZM797.776 100.166H869.624V28.3184H797.776V100.166ZM870.624 100.166H942.472V28.3184H870.624V100.166ZM943.472 100.166H1015.32V28.3184H943.472V100.166ZM1016.32 100.166H1088.17V28.3184H1016.32V100.166ZM1089.17 100.166H1161.02V28.3184H1089.17V100.166ZM1162.02 100.166H1233.86V28.3184H1162.02V100.166ZM1234.86 100.166H1306.71V28.3184H1234.86V100.166ZM1307.71 100.166H1379.56V28.3184H1307.71V100.166ZM1380.56 100.166H1452.41V28.3184H1380.56V100.166ZM1453.41 100.166H1525.26V28.3184H1453.41V100.166ZM1526.26 100.166H1598.1V28.3184H1526.26V100.166ZM1599.1 100.166H1670.95V28.3184H1599.1V100.166ZM1671.95 100.166H1743.8V28.3184H1671.95V100.166ZM1744.8 100.166H1816.65V28.3184H1744.8V100.166Z" fill="url(#paint0_radial_0_183)"/>
<defs>
<radialGradient id="paint0_radial_0_183" cx="0" cy="0" r="1" gradientTransform="matrix(46.146 -950.854 1272.72 64.9173 890.04 1233.54)" gradientUnits="userSpaceOnUse">
<stop stop-color="#00DC46" stop-opacity="0"/>
<stop offset="0.5" stop-color="#00DC46"/>
<stop offset="1" stop-color="#00DC46" stop-opacity="0"/>
</radialGradient>
</defs>
</svg>
