<svg preserveAspectRatio="none" width="100%" height="100%" overflow="visible" style="display: block;" viewBox="0 0 40.4627 40.9006" fill="none" xmlns="http://www.w3.org/2000/svg">
<g id="artificial-intelligence-brain-chip--brain-thought-ai-automated-processor-implant-ai">
<path id="Vector" d="M20.1465 13.9786H23.3895" stroke="url(#paint0_linear_0_4)" stroke-width="2.5" stroke-linecap="round" stroke-linejoin="round"/>
<path id="Vector_2" d="M35.9697 13.9786H39.2127" stroke="url(#paint1_linear_0_4)" stroke-width="2.5" stroke-linecap="round" stroke-linejoin="round"/>
<path id="Vector_3" d="M33.0018 4.49303V1.25" stroke="url(#paint2_linear_0_4)" stroke-width="2.5" stroke-linecap="round" stroke-linejoin="round"/>
<path id="Vector_4" d="M33.0018 20.3434V17.1004" stroke="url(#paint3_linear_0_4)" stroke-width="2.5" stroke-linecap="round" stroke-linejoin="round"/>
<path id="Vector_5" d="M20.1465 7.6007H23.3895" stroke="url(#paint4_linear_0_4)" stroke-width="2.5" stroke-linecap="round" stroke-linejoin="round"/>
<path id="Vector_6" d="M26.3662 4.49303V1.25" stroke="url(#paint5_linear_0_4)" stroke-width="2.5" stroke-linecap="round" stroke-linejoin="round"/>
<path id="Vector_7" d="M35.9697 7.6007H39.2127" stroke="url(#paint6_linear_0_4)" stroke-width="2.5" stroke-linecap="round" stroke-linejoin="round"/>
<path id="Vector_8" d="M26.3662 20.3434V17.1004" stroke="url(#paint7_linear_0_4)" stroke-width="2.5" stroke-linecap="round" stroke-linejoin="round"/>
<path id="Intersect" d="M23.4162 14.2852C23.5719 15.7257 24.7291 16.8829 26.1689 17.0449C27.3116 17.1734 28.486 17.2862 29.6841 17.2862C30.882 17.2862 32.0565 17.1734 33.1992 17.0449C34.6389 16.8829 35.7963 15.7257 35.952 14.2852C36.0747 13.1488 36.1806 11.9809 36.1806 10.7896C36.1806 9.59828 36.0747 8.43041 35.952 7.29404C35.7963 5.85356 34.6389 4.69637 33.1992 4.5344C32.0565 4.40585 30.882 4.29308 29.6841 4.29308C28.486 4.29308 27.3116 4.40585 26.1689 4.5344C24.7291 4.69637 23.5719 5.85353 23.4162 7.29404C23.2934 8.43041 23.1875 9.59828 23.1875 10.7896C23.1875 11.9809 23.2934 13.1488 23.4162 14.2852Z" stroke="url(#paint8_linear_0_4)" stroke-width="2.5" stroke-linecap="round" stroke-linejoin="round"/>
<path id="Union" d="M33.0018 26.057C33.0018 28.537 32.1093 30.7628 30.6951 32.2823C30.7107 32.4707 30.7185 32.6612 30.7185 32.8535C30.7185 36.6071 27.6758 39.65 23.9222 39.65C20.1686 39.65 17.1257 36.6071 17.1257 32.8535" stroke="url(#paint9_linear_0_4)" stroke-width="2.5" stroke-linecap="round" stroke-linejoin="round"/>
<path id="Vector 2148" d="M5.23729 17.8392C5.23729 20.7979 7.47679 22.3002 8.42122 22.5155" stroke="url(#paint10_linear_0_4)" stroke-width="2.5" stroke-linecap="round" stroke-linejoin="round"/>
<path id="Vector 2150" d="M7.31152 32.0183C6.1087 32.0165 4.63552 32.7428 3.60436 33.6524" stroke="url(#paint11_linear_0_4)" stroke-width="2.5" stroke-linecap="round" stroke-linejoin="round"/>
<path id="Vector 2151" d="M26.9346 32.0183C28.1374 32.0165 29.6106 32.7428 30.6417 33.6524" stroke="url(#paint12_linear_0_4)" stroke-width="2.5" stroke-linecap="round" stroke-linejoin="round"/>
<path id="Union_2" d="M11.188 11.8971C7.90834 11.8971 5.24962 14.5558 5.24962 17.8355C5.24962 18.053 5.26132 18.2678 5.28412 18.4792C2.90713 19.7708 1.25 22.6781 1.25 26.0575C1.25 28.5376 2.14246 30.7634 3.55696 32.2829C3.54127 32.471 3.53329 32.6615 3.53329 32.8541C3.53329 36.6077 6.57619 39.6506 10.3298 39.6506C14.0834 39.6506 17.1263 36.6077 17.1263 32.8541L17.1264 25.3447" stroke="url(#paint13_linear_0_4)" stroke-width="2.5" stroke-linecap="round" stroke-linejoin="round"/>
</g>
<defs>
<linearGradient id="paint0_linear_0_4" x1="21.768" y1="13.9786" x2="21.768" y2="14.9786" gradientUnits="userSpaceOnUse">
<stop stop-color="#91A9AA"/>
<stop offset="1" stop-color="#315D5F"/>
</linearGradient>
<linearGradient id="paint1_linear_0_4" x1="37.5912" y1="13.9786" x2="37.5912" y2="14.9786" gradientUnits="userSpaceOnUse">
<stop stop-color="#91A9AA"/>
<stop offset="1" stop-color="#315D5F"/>
</linearGradient>
<linearGradient id="paint2_linear_0_4" x1="33.5018" y1="1.25" x2="33.5018" y2="4.49303" gradientUnits="userSpaceOnUse">
<stop stop-color="#91A9AA"/>
<stop offset="1" stop-color="#315D5F"/>
</linearGradient>
<linearGradient id="paint3_linear_0_4" x1="33.5018" y1="17.1004" x2="33.5018" y2="20.3434" gradientUnits="userSpaceOnUse">
<stop stop-color="#91A9AA"/>
<stop offset="1" stop-color="#315D5F"/>
</linearGradient>
<linearGradient id="paint4_linear_0_4" x1="21.768" y1="7.6007" x2="21.768" y2="8.6007" gradientUnits="userSpaceOnUse">
<stop stop-color="#91A9AA"/>
<stop offset="1" stop-color="#315D5F"/>
</linearGradient>
<linearGradient id="paint5_linear_0_4" x1="26.8662" y1="1.25" x2="26.8662" y2="4.49303" gradientUnits="userSpaceOnUse">
<stop stop-color="#91A9AA"/>
<stop offset="1" stop-color="#315D5F"/>
</linearGradient>
<linearGradient id="paint6_linear_0_4" x1="37.5912" y1="7.6007" x2="37.5912" y2="8.6007" gradientUnits="userSpaceOnUse">
<stop stop-color="#91A9AA"/>
<stop offset="1" stop-color="#315D5F"/>
</linearGradient>
<linearGradient id="paint7_linear_0_4" x1="26.8662" y1="17.1004" x2="26.8662" y2="20.3434" gradientUnits="userSpaceOnUse">
<stop stop-color="#91A9AA"/>
<stop offset="1" stop-color="#315D5F"/>
</linearGradient>
<linearGradient id="paint8_linear_0_4" x1="29.6841" y1="4.29308" x2="29.6841" y2="17.2862" gradientUnits="userSpaceOnUse">
<stop stop-color="#91A9AA"/>
<stop offset="1" stop-color="#315D5F"/>
</linearGradient>
<linearGradient id="paint9_linear_0_4" x1="25.0638" y1="26.057" x2="25.0638" y2="39.65" gradientUnits="userSpaceOnUse">
<stop stop-color="#91A9AA"/>
<stop offset="1" stop-color="#315D5F"/>
</linearGradient>
<linearGradient id="paint10_linear_0_4" x1="6.82926" y1="17.8392" x2="6.82926" y2="22.5155" gradientUnits="userSpaceOnUse">
<stop stop-color="#91A9AA"/>
<stop offset="1" stop-color="#315D5F"/>
</linearGradient>
<linearGradient id="paint11_linear_0_4" x1="5.45794" y1="32.0183" x2="5.45794" y2="33.6524" gradientUnits="userSpaceOnUse">
<stop stop-color="#91A9AA"/>
<stop offset="1" stop-color="#315D5F"/>
</linearGradient>
<linearGradient id="paint12_linear_0_4" x1="28.7882" y1="32.0183" x2="28.7882" y2="33.6524" gradientUnits="userSpaceOnUse">
<stop stop-color="#91A9AA"/>
<stop offset="1" stop-color="#315D5F"/>
</linearGradient>
<linearGradient id="paint13_linear_0_4" x1="9.18818" y1="11.8971" x2="9.18818" y2="39.6506" gradientUnits="userSpaceOnUse">
<stop stop-color="#91A9AA"/>
<stop offset="1" stop-color="#315D5F"/>
</linearGradient>
</defs>
</svg>
