<svg preserveAspectRatio="none" width="100%" height="100%" overflow="visible" style="display: block;" viewBox="0 0 37.5 31.2692" fill="none" xmlns="http://www.w3.org/2000/svg">
<g id="Scan">
<path id="Stroke 1" d="M36.25 17.0092H1.25" stroke="url(#paint0_linear_0_149)" stroke-width="2.5" stroke-linecap="round" stroke-linejoin="round"/>
<path id="Stroke 3" d="M33.1332 9.99167V7.47C33.1332 4.035 30.3482 1.25 26.9115 1.25H24.9032" stroke="url(#paint1_linear_0_149)" stroke-width="2.5" stroke-linecap="round" stroke-linejoin="round"/>
<path id="Stroke 5" d="M4.36683 9.99167V7.47C4.36683 4.035 7.15183 1.25 10.5885 1.25H12.6485" stroke="url(#paint2_linear_0_149)" stroke-width="2.5" stroke-linecap="round" stroke-linejoin="round"/>
<path id="Stroke 7" d="M33.1332 17.0075V23.7975C33.1332 27.2342 30.3482 30.0192 26.9115 30.0192H24.9032" stroke="url(#paint3_linear_0_149)" stroke-width="2.5" stroke-linecap="round" stroke-linejoin="round"/>
<path id="Stroke 9" d="M4.36683 17.0075V23.7975C4.36683 27.2342 7.15183 30.0192 10.5885 30.0192H12.6485" stroke="url(#paint4_linear_0_149)" stroke-width="2.5" stroke-linecap="round" stroke-linejoin="round"/>
</g>
<defs>
<linearGradient id="paint0_linear_0_149" x1="18.75" y1="16.1758" x2="18.75" y2="17.8425" gradientUnits="userSpaceOnUse">
<stop stop-color="#2EE267"/>
<stop offset="1" stop-color="#00B63A"/>
</linearGradient>
<linearGradient id="paint1_linear_0_149" x1="29.0182" y1="1.25" x2="29.0182" y2="9.99167" gradientUnits="userSpaceOnUse">
<stop stop-color="#2EE267"/>
<stop offset="1" stop-color="#00B63A"/>
</linearGradient>
<linearGradient id="paint2_linear_0_149" x1="8.50767" y1="1.25" x2="8.50767" y2="9.99167" gradientUnits="userSpaceOnUse">
<stop stop-color="#2EE267"/>
<stop offset="1" stop-color="#00B63A"/>
</linearGradient>
<linearGradient id="paint3_linear_0_149" x1="29.0182" y1="17.0075" x2="29.0182" y2="30.0192" gradientUnits="userSpaceOnUse">
<stop stop-color="#2EE267"/>
<stop offset="1" stop-color="#00B63A"/>
</linearGradient>
<linearGradient id="paint4_linear_0_149" x1="8.50767" y1="17.0075" x2="8.50767" y2="30.0192" gradientUnits="userSpaceOnUse">
<stop stop-color="#2EE267"/>
<stop offset="1" stop-color="#00B63A"/>
</linearGradient>
</defs>
</svg>
