<svg preserveAspectRatio="none" width="100%" height="100%" overflow="visible" style="display: block;" viewBox="0 0 28.7857 28.7857" fill="none" xmlns="http://www.w3.org/2000/svg">
<g id="star-circle--reward-social-rating-media-rate-it-star">
<path id="Star 1" d="M13.4007 7.35786C13.4811 7.16069 13.6184 6.99194 13.7951 6.87315C13.9718 6.75436 14.1799 6.69092 14.3929 6.69092C14.6058 6.69092 14.8139 6.75436 14.9906 6.87315C15.1673 6.99194 15.3046 7.16069 15.385 7.35786L16.8893 11.0286L20.965 11.3864C21.1769 11.4051 21.3784 11.4864 21.5439 11.62C21.7094 11.7536 21.8314 11.9334 21.8943 12.1365C21.9573 12.3397 21.9584 12.5569 21.8974 12.7607C21.8365 12.9645 21.7163 13.1455 21.5521 13.2807L19.0643 15.325C18.9118 15.4498 18.7968 15.6143 18.7318 15.8003C18.6667 15.9863 18.6543 16.1867 18.6957 16.3793L19.51 20.1529C19.5552 20.3614 19.5372 20.5787 19.4581 20.7769C19.3791 20.9751 19.2426 21.1452 19.0663 21.2654C18.8899 21.3855 18.6817 21.4503 18.4684 21.4514C18.255 21.4525 18.0461 21.3898 17.8686 21.2714L14.3929 18.9464L10.9171 21.2714C10.7396 21.3905 10.5305 21.4538 10.3167 21.4531C10.1029 21.4523 9.89421 21.3877 9.71747 21.2674C9.54072 21.1471 9.40401 20.9767 9.3249 20.7781C9.2458 20.5795 9.22792 20.3617 9.27357 20.1529L10.0879 16.3793C10.1298 16.187 10.118 15.987 10.0537 15.801C9.98947 15.615 9.87524 15.4503 9.72357 15.325L7.23357 13.2807C7.06941 13.1455 6.94921 12.9645 6.88827 12.7607C6.82733 12.5569 6.82841 12.3397 6.89138 12.1365C6.95435 11.9334 7.07635 11.7536 7.24185 11.62C7.40735 11.4864 7.60885 11.4051 7.82071 11.3864L11.8964 11.0286L13.4007 7.35786Z" stroke="url(#paint0_linear_0_22)" stroke-width="2" stroke-linecap="round" stroke-linejoin="round"/>
<path id="Vector" d="M14.3929 27.7857C22.9643 27.7857 27.7857 22.9643 27.7857 14.3929C27.7857 5.82143 22.9643 1 14.3929 1C5.82143 1 1 5.82143 1 14.3929C1 22.9643 5.82143 27.7857 14.3929 27.7857Z" stroke="url(#paint1_linear_0_22)" stroke-width="2" stroke-linecap="round" stroke-linejoin="round"/>
</g>
<defs>
<linearGradient id="paint0_linear_0_22" x1="14.3929" y1="6.69092" x2="14.3929" y2="21.4531" gradientUnits="userSpaceOnUse">
<stop stop-color="#B7A7E6"/>
<stop offset="1" stop-color="#6240C8"/>
</linearGradient>
<linearGradient id="paint1_linear_0_22" x1="14.3929" y1="1" x2="14.3929" y2="27.7857" gradientUnits="userSpaceOnUse">
<stop stop-color="#B7A7E6"/>
<stop offset="1" stop-color="#6240C8"/>
</linearGradient>
</defs>
</svg>
