<svg preserveAspectRatio="none" width="100%" height="100%" overflow="visible" style="display: block;" viewBox="0 0 32.5 31.5717" fill="none" xmlns="http://www.w3.org/2000/svg">
<g id="Edit">
<path id="Stroke 1" d="M19.1623 30.3215H31.25" stroke="url(#paint0_linear_0_172)" stroke-width="2.5" stroke-linecap="round" stroke-linejoin="round"/>
<path id="Stroke 3" fill-rule="evenodd" clip-rule="evenodd" d="M17.55 2.57463C18.8428 1.02962 21.1667 0.803067 22.7437 2.06953C22.8309 2.13824 25.6325 4.31462 25.6325 4.31462C27.365 5.36196 27.9033 7.58848 26.8323 9.28762C26.7755 9.37861 10.9366 29.1908 10.9366 29.1908C10.4096 29.8481 9.60973 30.2362 8.75486 30.2455L2.68922 30.3217L1.32256 24.5372C1.13112 23.7238 1.32256 22.8696 1.84951 22.2122L17.55 2.57463Z" stroke="url(#paint1_linear_0_172)" stroke-width="2.5" stroke-linecap="round" stroke-linejoin="round"/>
<path id="Stroke 5" d="M14.618 6.25145L23.7051 13.23" stroke="url(#paint2_linear_0_172)" stroke-width="2.5" stroke-linecap="round" stroke-linejoin="round"/>
</g>
<defs>
<linearGradient id="paint0_linear_0_172" x1="25.2062" y1="29.393" x2="25.2062" y2="31.25" gradientUnits="userSpaceOnUse">
<stop stop-color="#9B85DC"/>
<stop offset="0.990385" stop-color="#6240C8"/>
</linearGradient>
<linearGradient id="paint1_linear_0_172" x1="14.3166" y1="1.24997" x2="14.3166" y2="30.3217" gradientUnits="userSpaceOnUse">
<stop stop-color="#9B85DC"/>
<stop offset="0.990385" stop-color="#6240C8"/>
</linearGradient>
<linearGradient id="paint2_linear_0_172" x1="19.1616" y1="6.25145" x2="19.1616" y2="13.23" gradientUnits="userSpaceOnUse">
<stop stop-color="#9B85DC"/>
<stop offset="0.990385" stop-color="#6240C8"/>
</linearGradient>
</defs>
</svg>
