<svg preserveAspectRatio="none" width="100%" height="100%" overflow="visible" style="display: block;" viewBox="0 0 34.8218 35.5714" fill="none" xmlns="http://www.w3.org/2000/svg">
<g id="Graph">
<path id="Stroke 1" fill-rule="evenodd" clip-rule="evenodd" d="M26.2132 20.8986C27.3377 20.8986 28.2816 21.8267 28.1096 22.9372C27.1009 29.4706 21.5079 34.3214 14.7623 34.3214C7.29912 34.3214 1.25 28.2723 1.25 20.8109C1.25 14.6636 5.92018 8.93723 11.1781 7.6425C12.3079 7.36355 13.4658 8.15829 13.4658 9.32144C13.4658 17.2021 13.7307 19.2407 15.2272 20.3495C16.7237 21.4583 18.4833 20.8986 26.2132 20.8986Z" stroke="url(#paint0_linear_0_162)" stroke-width="2.5" stroke-linecap="round" stroke-linejoin="round"/>
<path id="Stroke 3" fill-rule="evenodd" clip-rule="evenodd" d="M33.5709 14.336C33.6604 9.27285 27.4411 1.11145 19.8621 1.2518C19.2726 1.26232 18.8007 1.75355 18.7744 2.34127C18.5832 6.50443 18.8411 11.8992 18.9849 14.3448C19.0288 15.1062 19.627 15.7044 20.3867 15.7483C22.9007 15.8921 28.4919 16.0886 32.5954 15.4676C33.1533 15.3834 33.5621 14.8992 33.5709 14.336Z" stroke="url(#paint1_linear_0_162)" stroke-width="2.5" stroke-linecap="round" stroke-linejoin="round"/>
</g>
<defs>
<linearGradient id="paint0_linear_0_162" x1="14.69" y1="7.58649" x2="14.69" y2="34.3214" gradientUnits="userSpaceOnUse">
<stop stop-color="#618385"/>
<stop offset="1" stop-color="#00373A"/>
</linearGradient>
<linearGradient id="paint1_linear_0_162" x1="26.1391" y1="1.25001" x2="26.1391" y2="15.8957" gradientUnits="userSpaceOnUse">
<stop stop-color="#618385"/>
<stop offset="1" stop-color="#00373A"/>
</linearGradient>
</defs>
</svg>
