<svg preserveAspectRatio="none" width="100%" height="100%" overflow="visible" style="display: block;" viewBox="0 0 16.1205 16.1205" fill="none" xmlns="http://www.w3.org/2000/svg">
<g id="Frame 48096468">
<path id="Intersect" d="M0.847662 11.9632C1.03171 13.6836 2.41533 15.0672 4.13481 15.2589C5.41197 15.4012 6.7233 15.5235 8.06027 15.5235C9.39723 15.5235 10.7086 15.4012 11.9857 15.2589C13.7052 15.0672 15.0888 13.6836 15.2728 11.9632C15.4087 10.6933 15.5235 9.38949 15.5235 8.06027C15.5235 6.73103 15.4087 5.42722 15.2728 4.15727C15.0888 2.43697 13.7052 1.05334 11.9857 0.861683C10.7086 0.719324 9.39723 0.597057 8.06027 0.597057C6.7233 0.597057 5.41197 0.719324 4.13481 0.861683C2.41533 1.05334 1.03171 2.43697 0.847662 4.15727C0.711791 5.42722 0.597057 6.73103 0.597057 8.06027C0.597057 9.38949 0.711792 10.6933 0.847662 11.9632Z" stroke="var(--stroke-0, #00DC46)" stroke-width="1.19411" stroke-linecap="round" stroke-linejoin="round"/>
<path id="Vector" d="M5.07553 8.80652L7.24664 11.0455C8.26829 8.11073 9.11913 6.82293 11.0461 5.07492" stroke="var(--stroke-0, #00DC46)" stroke-width="1.19411" stroke-linecap="round" stroke-linejoin="round"/>
</g>
</svg>
