<svg preserveAspectRatio="none" width="100%" height="100%" overflow="visible" style="display: block;" viewBox="0 0 30.5 30.5" fill="none" xmlns="http://www.w3.org/2000/svg">
<g id="graph-dot--product-data-bars-analysis-analytics-graph-business-chart-dot">
<path id="Vector 332" d="M1.25001 1.25V24.77C1.25001 27.2443 3.25577 29.25 5.73001 29.25H29.25" stroke="url(#paint0_linear_0_201)" stroke-width="2.5" stroke-linecap="round" stroke-linejoin="round"/>
<path id="Vector" d="M9.65011 15.81C12.1589 15.81 13.5701 14.3988 13.5701 11.89C13.5701 9.38122 12.1589 7.97002 9.65011 7.97002C7.14131 7.97002 5.73011 9.38122 5.73011 11.89C5.73011 14.3988 7.14131 15.81 9.65011 15.81Z" stroke="url(#paint1_linear_0_201)" stroke-width="2.5" stroke-linecap="round" stroke-linejoin="round"/>
<path id="Vector_2" d="M25.33 9.09C27.8388 9.09 29.25 7.6788 29.25 5.17C29.25 2.6612 27.8388 1.25 25.33 1.25C22.8212 1.25 21.41 2.6612 21.41 5.17C21.41 7.6788 22.8212 9.09 25.33 9.09Z" stroke="url(#paint2_linear_0_201)" stroke-width="2.5" stroke-linecap="round" stroke-linejoin="round"/>
<path id="Vector_3" d="M19.7301 23.65C22.2389 23.65 23.6501 22.2388 23.6501 19.73C23.6501 17.2212 22.2389 15.81 19.7301 15.81C17.2213 15.81 15.8101 17.2212 15.8101 19.73C15.8101 22.2388 17.2213 23.65 19.7301 23.65Z" stroke="url(#paint3_linear_0_201)" stroke-width="2.5" stroke-linecap="round" stroke-linejoin="round"/>
<path id="Vector 190" d="M6.99001 15.04L1.25001 21.445" stroke="url(#paint4_linear_0_201)" stroke-width="2.5" stroke-linecap="round" stroke-linejoin="round"/>
<path id="Vector 191" d="M24.6284 9.04025L22.3901 16.58" stroke="url(#paint5_linear_0_201)" stroke-width="2.5" stroke-linecap="round" stroke-linejoin="round"/>
<path id="Vector 192" d="M13.2642 13.6652L16.5018 17.2284" stroke="url(#paint6_linear_0_201)" stroke-width="2.5" stroke-linecap="round" stroke-linejoin="round"/>
</g>
<defs>
<linearGradient id="paint0_linear_0_201" x1="15.25" y1="1.25" x2="15.25" y2="29.25" gradientUnits="userSpaceOnUse">
<stop stop-color="#9B85DC"/>
<stop offset="1" stop-color="#6240C8"/>
</linearGradient>
<linearGradient id="paint1_linear_0_201" x1="9.65011" y1="7.97002" x2="9.65011" y2="15.81" gradientUnits="userSpaceOnUse">
<stop stop-color="#9B85DC"/>
<stop offset="1" stop-color="#6240C8"/>
</linearGradient>
<linearGradient id="paint2_linear_0_201" x1="25.33" y1="1.25" x2="25.33" y2="9.09" gradientUnits="userSpaceOnUse">
<stop stop-color="#9B85DC"/>
<stop offset="1" stop-color="#6240C8"/>
</linearGradient>
<linearGradient id="paint3_linear_0_201" x1="19.7301" y1="15.81" x2="19.7301" y2="23.65" gradientUnits="userSpaceOnUse">
<stop stop-color="#9B85DC"/>
<stop offset="1" stop-color="#6240C8"/>
</linearGradient>
<linearGradient id="paint4_linear_0_201" x1="4.12001" y1="15.04" x2="4.12001" y2="21.445" gradientUnits="userSpaceOnUse">
<stop stop-color="#9B85DC"/>
<stop offset="1" stop-color="#6240C8"/>
</linearGradient>
<linearGradient id="paint5_linear_0_201" x1="23.5093" y1="9.04025" x2="23.5093" y2="16.58" gradientUnits="userSpaceOnUse">
<stop stop-color="#9B85DC"/>
<stop offset="1" stop-color="#6240C8"/>
</linearGradient>
<linearGradient id="paint6_linear_0_201" x1="14.883" y1="13.6652" x2="14.883" y2="17.2284" gradientUnits="userSpaceOnUse">
<stop stop-color="#9B85DC"/>
<stop offset="1" stop-color="#6240C8"/>
</linearGradient>
</defs>
</svg>
