<svg preserveAspectRatio="none" width="100%" height="100%" overflow="visible" style="display: block;" viewBox="0 0 34.1135 33.7991" fill="none" xmlns="http://www.w3.org/2000/svg">
<g id="customer-support-5--customer-headset-help-phone-support">
<path id="Ellipse 18" d="M17.0571 1.355C6.69478 1.355 0.770967 9.02591 1.40086 16.599L1.98274 23.0897" stroke="var(--stroke-0, #FF8A3B)" stroke-width="2.71" stroke-linecap="round" stroke-linejoin="round"/>
<path id="Ellipse 19" d="M17.0564 1.355C27.4187 1.355 33.3426 9.02591 32.7127 16.599L32.1309 23.0897" stroke="var(--stroke-0, #FF8A3B)" stroke-width="2.71" stroke-linecap="round" stroke-linejoin="round"/>
<path id="Rectangle 15" d="M21.8742 21.4985C22.1169 18.7247 24.5621 16.6729 27.3357 16.9156L27.6143 16.9399C30.3878 17.1826 32.4397 19.6279 32.1972 22.4016L31.7213 27.8414C31.4785 30.6152 29.0332 32.6671 26.2596 32.4243L25.9811 32.3999C23.2074 32.1571 21.1556 29.712 21.3983 26.9382L21.8742 21.4985Z" stroke="var(--stroke-0, #FF8A3B)" stroke-width="2.71" stroke-linecap="round" stroke-linejoin="round"/>
<path id="Rectangle 16" d="M1.91646 22.4019C1.67379 19.6282 3.72561 17.1829 6.49933 16.9402L6.77772 16.9159C9.55141 16.6732 11.9967 18.725 12.2393 21.4987L12.7153 26.9385C12.9579 29.7123 10.9061 32.1576 8.1324 32.4001L7.85401 32.4246C5.08032 32.6673 2.63505 30.6155 2.39238 27.8417L1.91646 22.4019Z" stroke="var(--stroke-0, #FF8A3B)" stroke-width="2.71" stroke-linecap="round" stroke-linejoin="round"/>
</g>
</svg>
