<svg preserveAspectRatio="none" width="100%" height="100%" overflow="visible" style="display: block;" viewBox="0 0 30.02 30.02" fill="none" xmlns="http://www.w3.org/2000/svg">
<g id="star-circle--reward-social-rating-media-rate-it-star">
<path id="Star 1" d="M13.9916 7.78753C14.0741 7.58511 14.2151 7.41186 14.3965 7.2899C14.5779 7.16795 14.7916 7.10281 15.0102 7.10281C15.2288 7.10281 15.4424 7.16795 15.6239 7.2899C15.8053 7.41186 15.9463 7.58511 16.0288 7.78753L17.5732 11.5561L21.7576 11.9235C21.9751 11.9427 22.182 12.0262 22.3519 12.1633C22.5218 12.3005 22.6471 12.4851 22.7117 12.6936C22.7764 12.9022 22.7775 13.1253 22.7149 13.3345C22.6523 13.5437 22.5289 13.7295 22.3604 13.8683L19.8062 15.9671C19.6497 16.0953 19.5316 16.2642 19.4648 16.4551C19.398 16.6461 19.3852 16.8518 19.4278 17.0495L20.2638 20.9237C20.3102 21.1378 20.2917 21.3609 20.2105 21.5644C20.1294 21.7679 19.9893 21.9425 19.8082 22.0659C19.6272 22.1893 19.4134 22.2558 19.1944 22.2569C18.9753 22.258 18.7609 22.1937 18.5786 22.0721L15.0102 19.6851L11.4418 22.0721C11.2595 22.1944 11.0448 22.2593 10.8253 22.2586C10.6058 22.2579 10.3916 22.1915 10.2101 22.068C10.0287 21.9445 9.88831 21.7695 9.80709 21.5656C9.72588 21.3617 9.70753 21.1382 9.7544 20.9237L10.5904 17.0495C10.6335 16.8522 10.6213 16.6468 10.5554 16.4558C10.4894 16.2649 10.3721 16.0958 10.2164 15.9671L7.65999 13.8683C7.49146 13.7295 7.36805 13.5437 7.30549 13.3345C7.24292 13.1253 7.24403 12.9022 7.30868 12.6936C7.37332 12.4851 7.49858 12.3005 7.66849 12.1633C7.8384 12.0262 8.04529 11.9427 8.2628 11.9235L12.4472 11.5561L13.9916 7.78753Z" stroke="url(#paint0_linear_0_27)" stroke-width="2.52" stroke-linecap="round" stroke-linejoin="round"/>
<path id="Vector" d="M15.01 28.76C23.81 28.76 28.76 23.81 28.76 15.01C28.76 6.21 23.81 1.26 15.01 1.26C6.21 1.26 1.26 6.21 1.26 15.01C1.26 23.81 6.21 28.76 15.01 28.76Z" stroke="url(#paint1_linear_0_27)" stroke-width="2.52" stroke-linecap="round" stroke-linejoin="round"/>
</g>
<defs>
<linearGradient id="paint0_linear_0_27" x1="15.0102" y1="7.10281" x2="15.0102" y2="22.2586" gradientUnits="userSpaceOnUse">
<stop stop-color="#9B85DC"/>
<stop offset="1" stop-color="#6240C8"/>
</linearGradient>
<linearGradient id="paint1_linear_0_27" x1="15.01" y1="1.26" x2="15.01" y2="28.76" gradientUnits="userSpaceOnUse">
<stop stop-color="#9B85DC"/>
<stop offset="1" stop-color="#6240C8"/>
</linearGradient>
</defs>
</svg>
