<svg preserveAspectRatio="none" width="100%" height="100%" overflow="visible" style="display: block;" viewBox="0 0 32 32" fill="none" xmlns="http://www.w3.org/2000/svg">
<g id="Frame">
<path id="Vector" d="M20.0787 13.9993C20.4464 13.5873 20.4107 12.9552 19.9987 12.5873C19.5867 12.2195 18.9546 12.2553 18.5867 12.6673L14.5708 17.1651L13.412 15.8673C13.0441 15.4553 12.412 15.4195 12 15.7873C11.588 16.1551 11.5523 16.7873 11.9201 17.1993L13.8248 19.3326C14.0146 19.5451 14.2859 19.6666 14.5708 19.6666C14.8556 19.6666 15.127 19.5451 15.3167 19.3326L20.0787 13.9993Z" fill="url(#paint0_linear_0_14)"/>
<path id="Vector_2" fill-rule="evenodd" clip-rule="evenodd" d="M16 1.66667C14.75 1.66667 13.5564 2.07544 11.6312 2.73483L10.6613 3.06685C8.68616 3.74293 7.16187 4.26469 6.07071 4.70799C5.52104 4.93128 5.04849 5.14756 4.66797 5.36855C4.30179 5.5812 3.93443 5.84645 3.68484 6.20205C3.43813 6.55355 3.31057 6.98565 3.23041 7.40163C3.14708 7.83408 3.09683 8.35285 3.0644 8.94848C3 10.1311 3 11.7513 3 13.8528V15.9885C3 24.1232 9.14404 28.0233 12.7978 29.6195L12.8339 29.6352C13.287 29.8332 13.7128 30.0192 14.2021 30.1445C14.7188 30.2768 15.2676 30.3333 16 30.3333C16.7324 30.3333 17.2812 30.2768 17.7979 30.1445C18.2872 30.0192 18.7131 29.8332 19.166 29.6352L19.2023 29.6195C22.856 28.0233 29 24.1232 29 15.9885V13.8531C29 11.7515 29 10.1312 28.9356 8.94848C28.9032 8.35285 28.8529 7.83408 28.7696 7.40163C28.6895 6.98565 28.5619 6.55355 28.3152 6.20205C28.0656 5.84645 27.6983 5.5812 27.332 5.36855C26.9515 5.14756 26.4789 4.93128 25.9293 4.70799C24.8381 4.26469 23.3139 3.74293 21.3387 3.06684L20.3688 2.73483C18.4436 2.07544 17.25 1.66667 16 1.66667ZM12.1075 4.68573C14.2601 3.94885 15.1231 3.66667 16 3.66667C16.8769 3.66667 17.7399 3.94885 19.8925 4.68573L20.6563 4.94716C22.6731 5.63752 24.1439 6.1414 25.1765 6.56092C25.692 6.77032 26.0655 6.9458 26.3276 7.09804C26.4571 7.1732 26.5463 7.23523 26.6057 7.28364C26.6563 7.32465 26.6755 7.34789 26.6783 7.35131C26.6808 7.35547 26.6975 7.38316 26.7208 7.44872C26.7475 7.52353 26.7769 7.63079 26.8057 7.78008C26.864 8.08225 26.9081 8.49735 26.9385 9.05723C26.9996 10.1788 27 11.7444 27 13.8889V15.9885C27 22.8887 21.8401 26.2847 18.4016 27.7867C17.9063 28.0031 17.6203 28.1255 17.3019 28.2069C16.9977 28.2848 16.6267 28.3333 16 28.3333C15.3733 28.3333 15.0023 28.2848 14.6981 28.2069C14.3797 28.1255 14.0937 28.0031 13.5984 27.7867C10.1599 26.2847 5 22.8887 5 15.9885V13.8889C5 11.7444 5.00037 10.1788 5.06144 9.05723C5.09192 8.49735 5.13605 8.08225 5.19428 7.78008C5.22305 7.63079 5.25259 7.52353 5.27924 7.44872C5.30257 7.3832 5.31915 7.35551 5.32172 7.35132C5.32448 7.34793 5.34373 7.32468 5.39423 7.28364C5.45379 7.23523 5.54296 7.1732 5.67239 7.09804C5.93453 6.9458 6.308 6.77032 6.82345 6.56092C7.85613 6.1414 9.32695 5.63752 11.3437 4.94716L12.1075 4.68573Z" fill="url(#paint1_linear_0_14)"/>
</g>
<defs>
<linearGradient id="paint0_linear_0_14" x1="15.9994" y1="12.3333" x2="15.9994" y2="19.6666" gradientUnits="userSpaceOnUse">
<stop stop-color="#FFB482"/>
<stop offset="1" stop-color="#FF8A3B"/>
</linearGradient>
<linearGradient id="paint1_linear_0_14" x1="16" y1="1.66667" x2="16" y2="30.3333" gradientUnits="userSpaceOnUse">
<stop stop-color="#FFB482"/>
<stop offset="1" stop-color="#FF8A3B"/>
</linearGradient>
</defs>
</svg>
