<svg preserveAspectRatio="none" width="100%" height="100%" overflow="visible" style="display: block;" viewBox="0 0 29.6164 29.6155" fill="none" xmlns="http://www.w3.org/2000/svg">
<g id="ai-generate-portrait-image-spark--picture-photography-photo-image-artificial-intelligence-ai">
<path id="Vector 2140" d="M18.78 4.55643C19.8308 3.50561 19.9934 2.54165 20.7568 1.57029C21.3543 0.809904 22.4857 0.809904 23.0831 1.57029C23.8466 2.54165 24.0093 3.50561 25.0599 4.55643C26.1108 5.60722 27.0749 5.76986 28.0462 6.53321C28.8065 7.13077 28.8065 8.26209 28.0462 8.85963C27.0749 9.623 26.1108 9.78566 25.0601 10.8364C24.0093 11.8872 23.8466 12.8512 23.0834 13.8226C22.4857 14.583 21.3545 14.583 20.7569 13.8226C19.9935 12.8512 19.8308 11.8872 18.78 10.8364C17.7293 9.78564 16.7653 9.623 15.7939 8.85963C15.0335 8.26209 15.0335 7.13077 15.7939 6.53321C16.7653 5.76986 17.7292 5.6072 18.78 4.55643Z" stroke="url(#paint0_linear_0_12)" stroke-width="2" stroke-linecap="round" stroke-linejoin="round"/>
<path id="Intersect" d="M10.6276 7.0859C9.09346 7.13748 7.58463 7.28351 6.10749 7.44817C3.62508 7.72485 1.62752 9.72243 1.3618 12.206C1.16564 14.0395 1 15.9218 1 17.8408C1 19.7598 1.16564 21.6422 1.3618 23.4756C1.62752 25.9592 3.62508 27.9568 6.10749 28.2334C7.95133 28.4389 9.84451 28.6155 11.7747 28.6155C13.7049 28.6155 15.5981 28.4389 17.4419 28.2334C19.9244 27.9568 21.9219 25.9592 22.1876 23.4756C22.3561 21.9004 22.5022 20.2894 22.5399 18.6498" stroke="url(#paint1_linear_0_12)" stroke-width="2" stroke-linecap="round" stroke-linejoin="round"/>
<path id="Intersect_2" d="M11.775 28.6153C9.84483 28.6153 7.95166 28.4387 6.10779 28.2332C5.81962 28.2011 5.53796 28.1458 5.26479 28.0693C5.5814 26.6006 6.42952 25.1591 7.5905 24.2102C8.7713 23.2451 10.2495 22.7179 11.7745 22.7179C13.2996 22.7179 14.7777 23.2451 15.9585 24.2102C17.1393 25.1754 17.9502 26.5191 18.2537 28.0136C18.2537 28.0136 18.2529 28.0376 18.2524 28.0783C17.9895 28.1503 17.7189 28.2024 17.4423 28.2332C15.5984 28.4387 13.7052 28.6153 11.775 28.6153Z" stroke="url(#paint2_linear_0_12)" stroke-width="2" stroke-linecap="round" stroke-linejoin="round"/>
<path id="Vector" d="M11.7595 19.3423C13.9768 19.3423 15.224 18.0951 15.224 15.8778C15.224 13.6605 13.9768 12.4132 11.7595 12.4132C9.54217 12.4132 8.29492 13.6605 8.29492 15.8778C8.29492 18.0951 9.54217 19.3423 11.7595 19.3423Z" stroke="url(#paint3_linear_0_12)" stroke-width="2" stroke-linecap="round" stroke-linejoin="round"/>
</g>
<defs>
<linearGradient id="paint0_linear_0_12" x1="21.92" y1="1" x2="21.92" y2="14.3929" gradientUnits="userSpaceOnUse">
<stop stop-color="#91A9AA"/>
<stop offset="1" stop-color="#00373A"/>
</linearGradient>
<linearGradient id="paint1_linear_0_12" x1="11.77" y1="7.0859" x2="11.77" y2="28.6155" gradientUnits="userSpaceOnUse">
<stop stop-color="#91A9AA"/>
<stop offset="1" stop-color="#00373A"/>
</linearGradient>
<linearGradient id="paint2_linear_0_12" x1="11.7592" y1="22.7179" x2="11.7592" y2="28.6153" gradientUnits="userSpaceOnUse">
<stop stop-color="#91A9AA"/>
<stop offset="1" stop-color="#00373A"/>
</linearGradient>
<linearGradient id="paint3_linear_0_12" x1="11.7595" y1="12.4132" x2="11.7595" y2="19.3423" gradientUnits="userSpaceOnUse">
<stop stop-color="#91A9AA"/>
<stop offset="1" stop-color="#00373A"/>
</linearGradient>
</defs>
</svg>
