<svg preserveAspectRatio="none" width="100%" height="100%" overflow="visible" style="display: block;" viewBox="0 0 29.909 29.9126" fill="none" xmlns="http://www.w3.org/2000/svg">
<g id="network--network-server-internet-ethernet-connection">
<path id="Vector" d="M14.9543 22.2618V29.0042" stroke="var(--stroke-0, #FF8A3B)" stroke-width="1.81528" stroke-linecap="round" stroke-linejoin="round"/>
<path id="Vector_2" d="M9.8657 29.005H20.0423" stroke="var(--stroke-0, #FF8A3B)" stroke-width="1.81528" stroke-linecap="round" stroke-linejoin="round"/>
<path id="Vector_3" d="M0.907639 29.005H4.27887" stroke="var(--stroke-0, #FF8A3B)" stroke-width="1.81528" stroke-linecap="round" stroke-linejoin="round"/>
<path id="Vector_4" d="M25.6301 29.005H29.0013" stroke="var(--stroke-0, #FF8A3B)" stroke-width="1.81528" stroke-linecap="round" stroke-linejoin="round"/>
<path id="Vector_5" d="M14.9546 22.2623C17.7859 22.2623 20.5013 21.1375 22.5033 19.1355C24.5054 17.1334 25.6301 14.4181 25.6301 11.5867C25.6301 8.75538 24.5054 6.04001 22.5033 4.03795C20.5013 2.03589 17.7859 0.911147 14.9546 0.911147C12.1232 0.911147 9.40786 2.03589 7.4058 4.03795C5.40374 6.04001 4.279 8.75538 4.279 11.5867C4.279 14.4181 5.40374 17.1334 7.4058 19.1355C9.40786 21.1375 12.1232 22.2623 14.9546 22.2623Z" stroke="var(--stroke-0, #FF8A3B)" stroke-width="1.81528" stroke-linecap="round" stroke-linejoin="round"/>
<path id="Vector_6" d="M4.279 11.5865H25.6301" stroke="var(--stroke-0, #FF8A3B)" stroke-width="1.81528" stroke-linecap="round" stroke-linejoin="round"/>
<path id="Intersect" d="M17.5439 21.9475C18.5103 18.6976 19.0744 15.1871 19.1981 11.5866C19.0875 8.07686 18.5316 4.59537 17.5439 1.22567C15.8439 0.801629 14.0657 0.801629 12.3657 1.22567C11.378 4.59537 10.8222 8.07686 10.7115 11.5866C10.8352 15.1871 11.4015 18.6976 12.3657 21.9475C14.0658 22.3713 15.8438 22.3713 17.5439 21.9475Z" stroke="var(--stroke-0, #FF8A3B)" stroke-width="1.81528" stroke-linecap="round" stroke-linejoin="round"/>
</g>
</svg>
