<svg preserveAspectRatio="none" width="100%" height="100%" overflow="visible" style="display: block;" viewBox="0 0 26.1658 26.2152" fill="none" xmlns="http://www.w3.org/2000/svg">
<g id="pathfinder-minus-front-2">
<path id="Intersect" d="M18.288 25.1375C17.7918 25.1641 17.2921 25.1795 16.7891 25.1795C16.2861 25.1795 15.7864 25.1641 15.2903 25.1375" stroke="var(--stroke-0, #FF8A3B)" stroke-width="2.07133" stroke-linecap="round" stroke-linejoin="round"/>
<path id="Intersect_2" d="M24.2621 22.9151C23.8937 23.5145 23.377 24.0153 22.7651 24.3651" stroke="var(--stroke-0, #FF8A3B)" stroke-width="2.07133" stroke-linecap="round" stroke-linejoin="round"/>
<path id="Intersect_3" d="M24.2621 10.7618C23.8937 10.1625 23.377 9.6618 22.7651 9.31194" stroke="var(--stroke-0, #FF8A3B)" stroke-width="2.07133" stroke-linecap="round" stroke-linejoin="round"/>
<path id="Intersect_4" d="M25.0882 18.3373C25.1148 17.8412 25.1302 17.3414 25.1302 16.8384C25.1302 16.3354 25.1148 15.8357 25.0882 15.3396" stroke="var(--stroke-0, #FF8A3B)" stroke-width="2.07133" stroke-linecap="round" stroke-linejoin="round"/>
<path id="Intersect_5" d="M18.2881 8.53869C18.0717 8.52708 17.9068 8.54548 17.689 8.53846" stroke="var(--stroke-0, #FF8A3B)" stroke-width="2.07133" stroke-linecap="round" stroke-linejoin="round"/>
<path id="Intersect_6" d="M8.4899 18.3372C8.47813 18.1178 8.49691 17.9046 8.48988 17.6837" stroke="var(--stroke-0, #FF8A3B)" stroke-width="2.07133" stroke-linecap="round" stroke-linejoin="round"/>
<path id="Intersect_7" d="M9.37486 22.9151C9.74337 23.5145 10.26 24.0153 10.8719 24.3651" stroke="var(--stroke-0, #FF8A3B)" stroke-width="2.07133" stroke-linecap="round" stroke-linejoin="round"/>
<path id="Intersect_8" d="M1.31545 13.7253C1.52093 15.6459 3.06566 17.1907 4.98534 17.4046C6.41122 17.5636 7.87522 17.7001 9.36788 17.7001C10.8605 17.7001 12.3245 17.5636 13.7504 17.4046C15.6701 17.1907 17.2148 15.6459 17.4203 13.7253C17.572 12.3075 17.7001 10.8519 17.7001 9.36787C17.7001 7.88386 17.572 6.42824 17.4203 5.01042C17.2148 3.08981 15.6701 1.54508 13.7504 1.3311C12.3245 1.17217 10.8605 1.03566 9.36788 1.03566C7.87522 1.03566 6.41122 1.17217 4.98534 1.3311C3.06566 1.54508 1.52093 3.08981 1.31545 5.01042C1.16376 6.42824 1.03566 7.88386 1.03566 9.36787C1.03566 10.8519 1.16376 12.3075 1.31545 13.7253Z" stroke="var(--stroke-0, #FF8A3B)" stroke-width="2.07133" stroke-linecap="round" stroke-linejoin="round"/>
</g>
</svg>
