<svg preserveAspectRatio="none" width="100%" height="100%" overflow="visible" style="display: block;" viewBox="0 0 1345 1163" fill="none" xmlns="http://www.w3.org/2000/svg">
<g id="Vector">
<mask id="path-1-inside-1_0_37" fill="white">
<path d="M11.4161 868.742C40.8375 991.215 121.275 1085.59 240.577 1133.86C290.932 1154.24 346.454 1164.03 405.576 1162.91C414.192 1162.75 423.1 1162.35 432.058 1161.71C582.576 1150.91 726.718 1075.65 821.128 1014.39C940.15 937.18 1050.51 837.139 1126.35 738.008C1132 790.671 1137.61 843.501 1140.76 880.529C1141.93 894.42 1145.88 907.929 1152.37 920.24C1158.86 932.551 1167.76 943.409 1178.53 952.159C1189.3 960.908 1201.72 967.368 1215.03 971.149C1228.34 974.93 1242.28 975.953 1256 974.157C1309.66 967.205 1349.42 916.159 1344.61 860.354C1340.88 817.118 1334.5 757.914 1328.33 700.672L1304.81 444.836C1303.06 423.209 1296.33 402.292 1285.15 383.745C1273.98 365.199 1258.67 349.535 1240.43 337.997C1222.2 326.459 1201.55 319.365 1180.12 317.279C1158.69 315.193 1137.07 318.172 1116.98 325.979C844.505 432.049 626.644 484.904 624.914 485.34C598.148 489.986 574.31 505.159 558.644 527.52C542.978 549.881 536.767 577.598 541.377 604.575C545.987 631.551 561.041 655.577 583.227 671.367C605.413 687.157 632.914 693.417 659.68 688.77C666.284 687.616 792.98 656.244 977.093 594.911C917.283 678.881 816.929 771.676 710.276 840.858C552.963 942.9 409.572 979.903 316.88 942.349C260.531 919.57 223.869 877.874 210.85 821.786C192.411 742.266 220.331 642.494 288.298 537.759C333.932 467.422 391.667 405.948 457.115 353.888C534.015 292.709 651.446 216.524 769.845 206.391C797.433 204.044 823.788 192.283 842.049 171.339C851.085 161.041 857.973 149.017 862.303 135.981C866.634 122.946 868.319 109.166 867.258 95.4611C863.046 38.8608 813.735 -3.88766 757.475 0.280728C572.752 14.2737 403.846 130.86 306.445 211.907C223.003 281.371 150.99 363.956 96.0153 457.918C32.2223 566.938 -25.1189 716.64 11.4161 868.69"/>
</mask>
<path d="M11.4161 868.742C40.8375 991.215 121.275 1085.59 240.577 1133.86C290.932 1154.24 346.454 1164.03 405.576 1162.91C414.192 1162.75 423.1 1162.35 432.058 1161.71C582.576 1150.91 726.718 1075.65 821.128 1014.39C940.15 937.18 1050.51 837.139 1126.35 738.008C1132 790.671 1137.61 843.501 1140.76 880.529C1141.93 894.42 1145.88 907.929 1152.37 920.24C1158.86 932.551 1167.76 943.409 1178.53 952.159C1189.3 960.908 1201.72 967.368 1215.03 971.149C1228.34 974.93 1242.28 975.953 1256 974.157C1309.66 967.205 1349.42 916.159 1344.61 860.354C1340.88 817.118 1334.5 757.914 1328.33 700.672L1304.81 444.836C1303.06 423.209 1296.33 402.292 1285.15 383.745C1273.98 365.199 1258.67 349.535 1240.43 337.997C1222.2 326.459 1201.55 319.365 1180.12 317.279C1158.69 315.193 1137.07 318.172 1116.98 325.979C844.505 432.049 626.644 484.904 624.914 485.34C598.148 489.986 574.31 505.159 558.644 527.52C542.978 549.881 536.767 577.598 541.377 604.575C545.987 631.551 561.041 655.577 583.227 671.367C605.413 687.157 632.914 693.417 659.68 688.77C666.284 687.616 792.98 656.244 977.093 594.911C917.283 678.881 816.929 771.676 710.276 840.858C552.963 942.9 409.572 979.903 316.88 942.349C260.531 919.57 223.869 877.874 210.85 821.786C192.411 742.266 220.331 642.494 288.298 537.759C333.932 467.422 391.667 405.948 457.115 353.888C534.015 292.709 651.446 216.524 769.845 206.391C797.433 204.044 823.788 192.283 842.049 171.339C851.085 161.041 857.973 149.017 862.303 135.981C866.634 122.946 868.319 109.166 867.258 95.4611C863.046 38.8608 813.735 -3.88766 757.475 0.280728C572.752 14.2737 403.846 130.86 306.445 211.907C223.003 281.371 150.99 363.956 96.0153 457.918C32.2223 566.938 -25.1189 716.64 11.4161 868.69" fill="url(#paint0_linear_0_37)" fill-opacity="0.2"/>
<path d="M240.577 1133.86L240.952 1132.94H240.952L240.577 1133.86ZM405.576 1162.91L405.595 1163.91L405.596 1163.91L405.576 1162.91ZM432.058 1161.71L432.13 1162.71H432.13L432.058 1161.71ZM821.128 1014.39L820.584 1013.55L820.584 1013.55L821.128 1014.39ZM1126.35 738.008L1127.34 737.902L1127.08 735.412L1125.56 737.401L1126.35 738.008ZM1140.76 880.529L1141.75 880.445V880.444L1140.76 880.529ZM1256 974.157L1255.87 973.165L1255.87 973.165L1256 974.157ZM1344.61 860.354L1345.6 860.268V860.268L1344.61 860.354ZM1328.33 700.672L1327.33 700.764L1327.33 700.772L1327.34 700.779L1328.33 700.672ZM1304.81 444.836L1303.82 444.917L1303.82 444.927L1304.81 444.836ZM1116.98 325.979L1116.62 325.047L1116.62 325.047L1116.98 325.979ZM624.914 485.34L625.085 486.325L625.122 486.319L625.158 486.31L624.914 485.34ZM659.68 688.77L659.851 689.755L659.852 689.755L659.68 688.77ZM977.093 594.911L977.907 595.491L979.687 592.993L976.777 593.962L977.093 594.911ZM710.276 840.858L710.821 841.697V841.697L710.276 840.858ZM316.88 942.349L317.255 941.422L317.254 941.422L316.88 942.349ZM210.85 821.786L209.876 822.012L209.876 822.013L210.85 821.786ZM288.298 537.759L289.137 538.303L289.137 538.303L288.298 537.759ZM457.115 353.888L457.737 354.671L457.737 354.671L457.115 353.888ZM769.845 206.391L769.76 205.395L769.759 205.395L769.845 206.391ZM842.049 171.339L841.297 170.679L841.295 170.681L842.049 171.339ZM867.258 95.4611L866.261 95.5353L866.261 95.5382L867.258 95.4611ZM757.475 0.280728L757.401 -0.71654L757.4 -0.716415L757.475 0.280728ZM306.445 211.907L305.805 211.138L305.805 211.138L306.445 211.907ZM96.0153 457.918L96.8784 458.423L96.8785 458.423L96.0153 457.918ZM11.4161 868.742L10.4437 868.975C39.9406 991.763 120.601 1086.39 240.202 1134.79L240.577 1133.86L240.952 1132.94C121.95 1084.78 41.7344 990.668 12.3884 868.508L11.4161 868.742ZM240.577 1133.86L240.202 1134.79C290.693 1155.23 346.349 1165.03 405.595 1163.91L405.576 1162.91L405.558 1161.91C346.558 1163.03 291.172 1153.26 240.952 1132.94L240.577 1133.86ZM405.576 1162.91L405.596 1163.91C414.228 1163.75 423.153 1163.35 432.13 1162.71L432.058 1161.71L431.987 1160.71C423.046 1161.35 414.155 1161.75 405.557 1161.91L405.576 1162.91ZM432.058 1161.71L432.13 1162.71C582.901 1151.89 727.215 1076.52 821.673 1015.23L821.128 1014.39L820.584 1013.55C726.221 1074.78 582.251 1149.93 431.987 1160.71L432.058 1161.71ZM821.128 1014.39L821.673 1015.23C940.778 937.965 1051.22 837.848 1127.14 738.616L1126.35 738.008L1125.56 737.401C1049.79 836.429 939.523 936.395 820.584 1013.55L821.128 1014.39ZM1126.35 738.008L1125.36 738.115C1131.01 790.781 1136.62 843.599 1139.76 880.613L1140.76 880.529L1141.75 880.444C1138.61 843.403 1132.99 790.561 1127.34 737.902L1126.35 738.008ZM1140.76 880.529L1139.76 880.613C1140.94 894.638 1144.93 908.277 1151.48 920.707L1152.37 920.24L1153.25 919.774C1146.82 907.582 1142.91 894.203 1141.75 880.445L1140.76 880.529ZM1152.37 920.24L1151.48 920.707C1158.04 933.136 1167.02 944.1 1177.9 952.935L1178.53 952.159L1179.16 951.382C1168.5 942.718 1159.68 931.966 1153.25 919.774L1152.37 920.24ZM1178.53 952.159L1177.9 952.935C1188.77 961.77 1201.31 968.293 1214.76 972.111L1215.03 971.149L1215.3 970.187C1202.12 966.444 1189.82 960.047 1179.16 951.382L1178.53 952.159ZM1215.03 971.149L1214.76 972.111C1228.2 975.929 1242.28 976.962 1256.13 975.148L1256 974.157L1255.87 973.165C1242.29 974.944 1228.49 973.931 1215.3 970.187L1215.03 971.149ZM1256 974.157L1256.13 975.149C1310.35 968.124 1350.46 916.576 1345.6 860.268L1344.61 860.354L1343.61 860.439C1348.38 915.741 1308.97 966.286 1255.87 973.165L1256 974.157ZM1344.61 860.354L1345.6 860.268C1341.87 817.019 1335.5 757.803 1329.32 700.565L1328.33 700.672L1327.34 700.779C1333.51 758.025 1339.88 817.217 1343.61 860.44L1344.61 860.354ZM1328.33 700.672L1329.33 700.581L1305.81 444.744L1304.81 444.836L1303.82 444.927L1327.33 700.764L1328.33 700.672ZM1304.81 444.836L1305.81 444.755C1304.05 422.975 1297.27 401.908 1286.01 383.229L1285.15 383.745L1284.3 384.262C1295.39 402.675 1302.08 423.443 1303.82 444.917L1304.81 444.836ZM1285.15 383.745L1286.01 383.229C1274.76 364.55 1259.33 348.773 1240.97 337.152L1240.43 337.997L1239.9 338.842C1258 350.297 1273.2 365.848 1284.3 384.262L1285.15 383.745ZM1240.43 337.997L1240.97 337.152C1222.6 325.531 1201.8 318.385 1180.21 316.284L1180.12 317.279L1180.02 318.274C1201.29 320.345 1221.8 327.387 1239.9 338.842L1240.43 337.997ZM1180.12 317.279L1180.21 316.284C1158.63 314.182 1136.85 317.183 1116.62 325.047L1116.98 325.979L1117.35 326.911C1137.29 319.161 1158.75 316.203 1180.02 318.274L1180.12 317.279ZM1116.98 325.979L1116.62 325.047C844.201 431.094 626.387 483.937 624.669 484.37L624.914 485.34L625.158 486.31C626.901 485.87 844.81 433.003 1117.35 326.911L1116.98 325.979ZM624.914 485.34L624.743 484.355C597.713 489.047 573.643 504.369 557.825 526.946L558.644 527.52L559.463 528.094C574.977 505.95 598.583 490.926 625.085 486.325L624.914 485.34ZM558.644 527.52L557.825 526.946C542.007 549.524 535.737 577.508 540.391 604.743L541.377 604.575L542.363 604.406C537.797 577.689 543.948 550.238 559.463 528.094L558.644 527.52ZM541.377 604.575L540.391 604.743C545.046 631.979 560.245 656.238 582.648 672.182L583.227 671.367L583.807 670.552C561.838 654.917 546.929 631.124 542.363 604.406L541.377 604.575ZM583.227 671.367L582.648 672.182C605.051 688.126 632.821 694.448 659.851 689.755L659.68 688.77L659.509 687.785C633.007 692.386 605.776 686.187 583.807 670.552L583.227 671.367ZM659.68 688.77L659.852 689.755C666.535 688.587 793.29 657.194 977.409 595.859L977.093 594.911L976.777 593.962C792.669 655.293 666.034 686.644 659.508 687.785L659.68 688.77ZM977.093 594.911L976.278 594.331C916.555 678.179 816.301 770.891 709.732 840.019L710.276 840.858L710.821 841.697C817.557 772.461 918.01 679.583 977.907 595.491L977.093 594.911ZM710.276 840.858L709.732 840.019C631.14 890.999 556.063 925.706 489.096 942.984C422.118 960.264 363.333 960.091 317.255 941.422L316.88 942.349L316.504 943.276C363.119 962.161 422.376 962.263 489.595 944.921C556.825 927.575 632.1 892.76 710.821 841.697L710.276 840.858ZM316.88 942.349L317.254 941.422C261.188 918.757 224.764 877.31 211.825 821.56L210.85 821.786L209.876 822.013C222.973 878.437 259.874 920.383 316.505 943.276L316.88 942.349ZM210.85 821.786L211.825 821.561C193.474 742.423 221.235 642.938 289.137 538.303L288.298 537.759L287.459 537.215C219.427 642.051 191.348 742.11 209.876 822.012L210.85 821.786ZM288.298 537.759L289.137 538.303C334.706 468.066 392.365 406.671 457.737 354.671L457.115 353.888L456.492 353.106C390.969 405.225 333.158 466.778 287.459 537.215L288.298 537.759ZM457.115 353.888L457.737 354.671C534.612 293.512 651.844 217.493 769.93 207.388L769.845 206.391L769.759 205.395C651.048 215.554 533.419 291.906 456.492 353.106L457.115 353.888ZM769.845 206.391L769.929 207.388C797.739 205.022 824.348 193.163 842.803 171.996L842.049 171.339L841.295 170.681C823.228 191.403 797.128 203.067 769.76 205.395L769.845 206.391ZM842.049 171.339L842.801 171.998C851.925 161.6 858.88 149.458 863.252 136.297L862.303 135.981L861.354 135.666C857.066 148.575 850.245 160.482 841.297 170.679L842.049 171.339ZM862.303 135.981L863.252 136.297C867.625 123.135 869.327 109.222 868.255 95.3839L867.258 95.4611L866.261 95.5382C867.312 109.111 865.643 122.757 861.354 135.666L862.303 135.981ZM867.258 95.4611L868.256 95.3868C864.003 38.2415 814.217 -4.92614 757.401 -0.716538L757.475 0.280728L757.549 1.27799C813.253 -2.84918 862.09 39.48 866.261 95.5353L867.258 95.4611ZM757.475 0.280728L757.4 -0.716415C572.349 13.3013 403.239 130.065 305.805 211.138L306.445 211.907L307.084 212.675C404.453 131.656 573.154 15.2461 757.551 1.27787L757.475 0.280728ZM306.445 211.907L305.805 211.138C222.282 280.671 150.19 363.343 95.1522 457.413L96.0153 457.918L96.8785 458.423C151.789 364.57 223.725 282.072 307.084 212.675L306.445 211.907ZM96.0153 457.918L95.1522 457.413C31.3114 566.514 -26.1812 716.5 10.4438 868.924L11.4161 868.69L12.3884 868.457C-24.0566 716.781 33.1332 567.361 96.8784 458.423L96.0153 457.918Z" fill="url(#paint1_linear_0_37)" fill-opacity="0.5" mask="url(#path-1-inside-1_0_37)"/>
</g>
<defs>
<linearGradient id="paint0_linear_0_37" x1="35.9225" y1="177.254" x2="1347.47" y2="238.022" gradientUnits="userSpaceOnUse">
<stop stop-color="#00DC46"/>
<stop offset="1" stop-color="#008F2E"/>
</linearGradient>
<linearGradient id="paint1_linear_0_37" x1="16.1372" y1="175.308" x2="1380.8" y2="247.812" gradientUnits="userSpaceOnUse">
<stop offset="0.0192308" stop-color="#00DC46"/>
<stop offset="0.509615" stop-color="#00DC46" stop-opacity="0"/>
<stop offset="1" stop-color="#00DC46"/>
</linearGradient>
</defs>
</svg>
