<svg preserveAspectRatio="none" width="100%" height="100%" overflow="visible" style="display: block;" viewBox="0 0 1257.62 298.807" fill="none" xmlns="http://www.w3.org/2000/svg">
<g id="Group">
<g id="Union">
<mask id="path-1-inside-1_0_216" fill="white">
<path d="M181.567 19.7648C195.06 18.764 206.881 29.0326 207.887 42.6056C208.376 49.2689 206.229 55.7546 201.84 60.8C197.465 65.8316 191.146 68.6558 184.529 69.218C156.157 71.6448 128.003 89.9209 109.577 104.605C93.8832 117.095 80.0501 131.847 69.1116 148.725C52.8195 173.856 46.134 197.808 50.5501 216.879C53.6618 230.343 62.4537 240.351 75.9603 245.821C98.1768 254.829 132.541 245.959 170.248 221.472C195.807 204.882 219.872 182.616 234.194 162.462C190.059 177.187 159.703 184.714 158.114 184.988C144.77 187.305 132.065 178.229 129.769 164.779C127.473 151.33 136.455 138.497 149.784 136.18C150.222 136.066 202.435 123.384 267.729 97.9416C277.594 94.1027 288.383 95.1582 297.324 100.82C306.265 106.497 311.89 115.834 312.746 126.459L318.385 187.84C319.866 201.578 321.389 215.783 322.285 226.161C323.44 239.556 313.915 251.813 301.047 253.472C299.023 253.746 296.984 253.746 294.987 253.513C283.491 252.155 274.414 242.696 273.422 231.028C272.675 222.144 271.33 209.475 269.971 196.834C251.79 220.622 225.348 244.629 196.813 263.152C174.175 277.849 139.634 295.906 103.558 298.497C101.411 298.648 99.2775 298.744 97.2122 298.785C83.0398 299.06 69.7228 296.715 57.6566 291.82C29.0674 280.235 9.786 257.585 2.73371 228.204C-6.01702 191.721 7.72063 155.799 23.0208 129.599C36.2013 107.045 53.4586 87.2336 73.4603 70.5617C96.8047 51.0929 137.297 23.1239 181.567 19.7648ZM1120.59 71.0969C1125.38 71.0969 1129.8 71.5485 1133.7 72.4396L1134.77 72.6867V97.8176L1133.09 97.4201C1131.23 96.9951 1128.86 96.7756 1126.08 96.7756C1119.7 96.7756 1114.66 98.3664 1111.07 101.52C1107.51 104.646 1105.71 109.581 1105.71 116.19V124.334H1169.56L1199.18 200.125L1228.69 124.334H1257.62L1193.81 278.261H1164.98L1185.39 231.919L1151.43 150.123H1105.69V238.555H1078.79V150.123H1057.44V124.334H1078.79V115.737C1078.79 101.561 1082.59 90.4555 1090.11 82.7365C1097.61 75.0175 1107.87 71.0969 1120.59 71.0969ZM712.862 121.977C722.917 121.977 732.252 124.403 740.622 129.174C748.993 133.932 755.746 140.801 760.705 149.548C765.651 158.309 768.165 168.222 768.165 179.039C768.165 183.769 767.975 187.238 767.594 189.377L767.391 190.528H681.772C681.894 191.091 682.044 191.626 682.18 192.174L682.275 192.53C682.438 193.175 682.587 193.654 682.737 194.134C682.845 194.463 682.954 194.806 683.063 195.135C683.239 195.656 683.429 196.164 683.619 196.671L682.941 197.137L683.688 196.835C685.658 201.839 688.579 205.994 692.357 209.202C697.86 213.891 705.062 216.263 713.731 216.263C720.43 216.263 726.287 214.782 731.111 211.848C734.874 209.572 737.497 206.72 738.964 203.362V203.375H766.263C763.776 214.193 757.974 223.118 748.91 229.877C739.154 237.144 727.17 240.832 713.31 240.832C702.439 240.832 692.397 238.199 683.47 233.017C674.543 227.834 667.409 220.554 662.273 211.396C657.137 202.251 654.528 191.968 654.528 180.849C654.528 170.018 657.136 159.981 662.273 151.015C667.409 142.048 674.53 134.892 683.416 129.737C692.316 124.581 702.222 121.977 712.862 121.977ZM835.766 121.977C843.212 121.977 850.414 123.676 857.181 127.008C863.119 129.942 867.684 133.644 870.769 138.004V124.349H897.565V238.57H870.769V224.914C867.698 229.274 863.146 232.948 857.236 235.855C850.51 239.159 843.28 240.832 835.766 240.832C820.588 240.832 807.584 235.032 797.108 223.584C786.645 212.15 781.346 197.932 781.346 181.287C781.346 164.808 786.645 150.644 797.108 139.224C807.584 127.776 820.588 121.977 835.766 121.977ZM485.56 73.2355C494.99 73.2356 504.175 74.7438 512.885 77.7189C521.595 80.7078 529.341 84.779 535.931 89.8381C542.521 94.8971 548.092 100.958 552.508 107.826C556.72 114.366 559.547 121.372 560.906 128.625L561.082 129.599H529.395L529.204 129.036C526.473 120.659 521.147 113.845 513.374 108.8C505.249 103.508 495.887 100.834 485.56 100.834C470.477 100.834 457.867 106.099 448.083 116.478C438.3 126.87 433.34 140.279 433.34 156.348C433.34 172.718 438.518 186.428 448.749 197.122C458.968 207.803 472.026 213.219 487.571 213.219C497.653 213.219 506.703 211.409 514.475 207.858C522.152 204.348 528.308 199.247 532.751 192.694V172.471H486.28V145.324H561.137V203.237L561.028 203.429C554.356 214.973 544.26 224.091 530.93 230.658C517.559 237.253 502.368 240.598 485.804 240.598C470.708 240.598 456.753 236.841 444.333 229.451C431.9 222.048 422.021 211.793 414.969 198.974C407.903 186.141 404.317 171.799 404.317 156.348C404.317 140.896 407.877 126.651 414.902 114.01C421.927 101.369 431.778 91.3056 444.157 84.0939C456.522 76.8823 470.463 73.2355 485.56 73.2355ZM961.551 124.334H1040.69V238.556H1014V150.123H961.551V194.915C961.551 201.524 963.372 206.459 966.973 209.585C970.587 212.739 975.656 214.343 982.029 214.343C984.76 214.343 987.206 214.11 989.284 213.657L990.956 213.301V238.432L989.868 238.665C986.01 239.488 981.526 239.9 976.553 239.9C963.835 239.9 953.561 236.005 946.02 228.314C938.465 220.636 934.647 209.544 934.647 195.367V150.123H913.409V124.334H934.647V93.9933H961.551V124.334ZM637.543 121.977C642.679 121.977 646.701 122.525 649.487 123.621L650.37 123.964V149.534L648.645 149.069C643.74 147.752 639.323 147.08 635.532 147.08C631.048 147.08 626.251 148.808 621.25 152.222C616.345 155.553 612.459 160.092 609.701 165.713L609.565 238.57H582.892V124.349H609.578V138.018C612.337 133.63 616.182 129.928 621.006 127.035C626.591 123.676 632.162 121.977 637.543 121.977ZM840.997 147.752C831.608 147.752 823.646 150.974 817.314 157.321C810.982 163.669 807.775 171.731 807.775 181.274C807.775 190.83 810.982 198.933 817.314 205.35C823.646 211.78 831.608 215.028 840.997 215.028C847.126 215.028 853.01 213.466 858.513 210.381C863.948 207.324 868.065 203.403 870.755 198.714L870.742 164.397C867.983 159.502 863.907 155.525 858.553 152.454C853.104 149.328 847.193 147.752 840.997 147.752ZM711.394 146.642C704.043 146.642 697.738 148.534 692.656 152.263C690.563 153.812 688.675 155.704 687.072 157.884C685.156 160.146 683.592 163.341 682.505 167.207H739.005C737.809 161.216 734.792 156.28 730.05 152.537C725.09 148.63 718.813 146.642 711.394 146.642ZM1027.51 71.8918C1032.14 71.8918 1036.19 73.5914 1039.53 76.9367C1042.89 80.282 1044.59 84.3134 1044.59 88.9064C1044.59 93.6638 1042.89 97.7633 1039.53 101.109C1036.19 104.454 1032.14 106.153 1027.51 106.153C1022.87 106.153 1018.85 104.454 1015.54 101.109C1012.22 97.7633 1010.54 93.6638 1010.54 88.9064C1010.54 84.2449 1012.17 80.3232 1015.54 76.9367C1018.85 73.5916 1022.87 71.8918 1027.51 71.8918ZM322.624 0.00799008C347.436 -0.458163 367.995 19.5314 368.457 44.5666C368.919 69.6018 349.108 90.3455 324.296 90.8117C299.484 91.2779 278.925 71.2883 278.463 46.2531C278.001 21.2181 297.813 0.47439 322.624 0.00799008Z"/>
</mask>
<path d="M181.567 19.7648C195.06 18.764 206.881 29.0326 207.887 42.6056C208.376 49.2689 206.229 55.7546 201.84 60.8C197.465 65.8316 191.146 68.6558 184.529 69.218C156.157 71.6448 128.003 89.9209 109.577 104.605C93.8832 117.095 80.0501 131.847 69.1116 148.725C52.8195 173.856 46.134 197.808 50.5501 216.879C53.6618 230.343 62.4537 240.351 75.9603 245.821C98.1768 254.829 132.541 245.959 170.248 221.472C195.807 204.882 219.872 182.616 234.194 162.462C190.059 177.187 159.703 184.714 158.114 184.988C144.77 187.305 132.065 178.229 129.769 164.779C127.473 151.33 136.455 138.497 149.784 136.18C150.222 136.066 202.435 123.384 267.729 97.9416C277.594 94.1027 288.383 95.1582 297.324 100.82C306.265 106.497 311.89 115.834 312.746 126.459L318.385 187.84C319.866 201.578 321.389 215.783 322.285 226.161C323.44 239.556 313.915 251.813 301.047 253.472C299.023 253.746 296.984 253.746 294.987 253.513C283.491 252.155 274.414 242.696 273.422 231.028C272.675 222.144 271.33 209.475 269.971 196.834C251.79 220.622 225.348 244.629 196.813 263.152C174.175 277.849 139.634 295.906 103.558 298.497C101.411 298.648 99.2775 298.744 97.2122 298.785C83.0398 299.06 69.7228 296.715 57.6566 291.82C29.0674 280.235 9.786 257.585 2.73371 228.204C-6.01702 191.721 7.72063 155.799 23.0208 129.599C36.2013 107.045 53.4586 87.2336 73.4603 70.5617C96.8047 51.0929 137.297 23.1239 181.567 19.7648ZM1120.59 71.0969C1125.38 71.0969 1129.8 71.5485 1133.7 72.4396L1134.77 72.6867V97.8176L1133.09 97.4201C1131.23 96.9951 1128.86 96.7756 1126.08 96.7756C1119.7 96.7756 1114.66 98.3664 1111.07 101.52C1107.51 104.646 1105.71 109.581 1105.71 116.19V124.334H1169.56L1199.18 200.125L1228.69 124.334H1257.62L1193.81 278.261H1164.98L1185.39 231.919L1151.43 150.123H1105.69V238.555H1078.79V150.123H1057.44V124.334H1078.79V115.737C1078.79 101.561 1082.59 90.4555 1090.11 82.7365C1097.61 75.0175 1107.87 71.0969 1120.59 71.0969ZM712.862 121.977C722.917 121.977 732.252 124.403 740.622 129.174C748.993 133.932 755.746 140.801 760.705 149.548C765.651 158.309 768.165 168.222 768.165 179.039C768.165 183.769 767.975 187.238 767.594 189.377L767.391 190.528H681.772C681.894 191.091 682.044 191.626 682.18 192.174L682.275 192.53C682.438 193.175 682.587 193.654 682.737 194.134C682.845 194.463 682.954 194.806 683.063 195.135C683.239 195.656 683.429 196.164 683.619 196.671L682.941 197.137L683.688 196.835C685.658 201.839 688.579 205.994 692.357 209.202C697.86 213.891 705.062 216.263 713.731 216.263C720.43 216.263 726.287 214.782 731.111 211.848C734.874 209.572 737.497 206.72 738.964 203.362V203.375H766.263C763.776 214.193 757.974 223.118 748.91 229.877C739.154 237.144 727.17 240.832 713.31 240.832C702.439 240.832 692.397 238.199 683.47 233.017C674.543 227.834 667.409 220.554 662.273 211.396C657.137 202.251 654.528 191.968 654.528 180.849C654.528 170.018 657.136 159.981 662.273 151.015C667.409 142.048 674.53 134.892 683.416 129.737C692.316 124.581 702.222 121.977 712.862 121.977ZM835.766 121.977C843.212 121.977 850.414 123.676 857.181 127.008C863.119 129.942 867.684 133.644 870.769 138.004V124.349H897.565V238.57H870.769V224.914C867.698 229.274 863.146 232.948 857.236 235.855C850.51 239.159 843.28 240.832 835.766 240.832C820.588 240.832 807.584 235.032 797.108 223.584C786.645 212.15 781.346 197.932 781.346 181.287C781.346 164.808 786.645 150.644 797.108 139.224C807.584 127.776 820.588 121.977 835.766 121.977ZM485.56 73.2355C494.99 73.2356 504.175 74.7438 512.885 77.7189C521.595 80.7078 529.341 84.779 535.931 89.8381C542.521 94.8971 548.092 100.958 552.508 107.826C556.72 114.366 559.547 121.372 560.906 128.625L561.082 129.599H529.395L529.204 129.036C526.473 120.659 521.147 113.845 513.374 108.8C505.249 103.508 495.887 100.834 485.56 100.834C470.477 100.834 457.867 106.099 448.083 116.478C438.3 126.87 433.34 140.279 433.34 156.348C433.34 172.718 438.518 186.428 448.749 197.122C458.968 207.803 472.026 213.219 487.571 213.219C497.653 213.219 506.703 211.409 514.475 207.858C522.152 204.348 528.308 199.247 532.751 192.694V172.471H486.28V145.324H561.137V203.237L561.028 203.429C554.356 214.973 544.26 224.091 530.93 230.658C517.559 237.253 502.368 240.598 485.804 240.598C470.708 240.598 456.753 236.841 444.333 229.451C431.9 222.048 422.021 211.793 414.969 198.974C407.903 186.141 404.317 171.799 404.317 156.348C404.317 140.896 407.877 126.651 414.902 114.01C421.927 101.369 431.778 91.3056 444.157 84.0939C456.522 76.8823 470.463 73.2355 485.56 73.2355ZM961.551 124.334H1040.69V238.556H1014V150.123H961.551V194.915C961.551 201.524 963.372 206.459 966.973 209.585C970.587 212.739 975.656 214.343 982.029 214.343C984.76 214.343 987.206 214.11 989.284 213.657L990.956 213.301V238.432L989.868 238.665C986.01 239.488 981.526 239.9 976.553 239.9C963.835 239.9 953.561 236.005 946.02 228.314C938.465 220.636 934.647 209.544 934.647 195.367V150.123H913.409V124.334H934.647V93.9933H961.551V124.334ZM637.543 121.977C642.679 121.977 646.701 122.525 649.487 123.621L650.37 123.964V149.534L648.645 149.069C643.74 147.752 639.323 147.08 635.532 147.08C631.048 147.08 626.251 148.808 621.25 152.222C616.345 155.553 612.459 160.092 609.701 165.713L609.565 238.57H582.892V124.349H609.578V138.018C612.337 133.63 616.182 129.928 621.006 127.035C626.591 123.676 632.162 121.977 637.543 121.977ZM840.997 147.752C831.608 147.752 823.646 150.974 817.314 157.321C810.982 163.669 807.775 171.731 807.775 181.274C807.775 190.83 810.982 198.933 817.314 205.35C823.646 211.78 831.608 215.028 840.997 215.028C847.126 215.028 853.01 213.466 858.513 210.381C863.948 207.324 868.065 203.403 870.755 198.714L870.742 164.397C867.983 159.502 863.907 155.525 858.553 152.454C853.104 149.328 847.193 147.752 840.997 147.752ZM711.394 146.642C704.043 146.642 697.738 148.534 692.656 152.263C690.563 153.812 688.675 155.704 687.072 157.884C685.156 160.146 683.592 163.341 682.505 167.207H739.005C737.809 161.216 734.792 156.28 730.05 152.537C725.09 148.63 718.813 146.642 711.394 146.642ZM1027.51 71.8918C1032.14 71.8918 1036.19 73.5914 1039.53 76.9367C1042.89 80.282 1044.59 84.3134 1044.59 88.9064C1044.59 93.6638 1042.89 97.7633 1039.53 101.109C1036.19 104.454 1032.14 106.153 1027.51 106.153C1022.87 106.153 1018.85 104.454 1015.54 101.109C1012.22 97.7633 1010.54 93.6638 1010.54 88.9064C1010.54 84.2449 1012.17 80.3232 1015.54 76.9367C1018.85 73.5916 1022.87 71.8918 1027.51 71.8918ZM322.624 0.00799008C347.436 -0.458163 367.995 19.5314 368.457 44.5666C368.919 69.6018 349.108 90.3455 324.296 90.8117C299.484 91.2779 278.925 71.2883 278.463 46.2531C278.001 21.2181 297.813 0.47439 322.624 0.00799008Z" fill="url(#paint0_linear_0_216)" fill-opacity="0.2"/>
<path d="M181.567 19.7648L181.493 18.7676L181.491 18.7677L181.567 19.7648ZM207.887 42.6056L208.884 42.5324L208.884 42.5318L207.887 42.6056ZM201.84 60.8L201.086 60.1437L201.086 60.1438L201.84 60.8ZM184.529 69.218L184.444 68.2215L184.443 68.2216L184.529 69.218ZM109.577 104.605L110.2 105.387L110.201 105.387L109.577 104.605ZM69.1116 148.725L69.9507 149.269L69.9508 149.269L69.1116 148.725ZM50.5501 216.879L51.5244 216.654L51.5243 216.653L50.5501 216.879ZM75.9603 245.821L76.336 244.895L76.3357 244.895L75.9603 245.821ZM170.248 221.472L169.704 220.633L169.704 220.633L170.248 221.472ZM234.194 162.462L235.009 163.041L236.784 160.544L233.877 161.513L234.194 162.462ZM158.114 184.988L157.944 184.003L157.943 184.003L158.114 184.988ZM129.769 164.779L128.783 164.948V164.948L129.769 164.779ZM149.784 136.18L149.956 137.165L149.996 137.158L150.036 137.148L149.784 136.18ZM267.729 97.9416L267.366 97.0097L267.366 97.0098L267.729 97.9416ZM297.324 100.82L297.86 99.9762L297.859 99.9757L297.324 100.82ZM312.746 126.459L311.75 126.539L311.751 126.551L312.746 126.459ZM318.385 187.84L317.389 187.931L317.39 187.939L317.391 187.947L318.385 187.84ZM322.285 226.161L323.282 226.075L323.282 226.075L322.285 226.161ZM301.047 253.472L300.919 252.48L300.913 252.481L301.047 253.472ZM294.987 253.513L294.869 254.506L294.871 254.506L294.987 253.513ZM273.422 231.028L272.426 231.112L272.426 231.113L273.422 231.028ZM269.971 196.834L270.965 196.727L270.698 194.237L269.176 196.227L269.971 196.834ZM196.813 263.152L196.268 262.313L196.268 262.313L196.813 263.152ZM103.558 298.497L103.628 299.495L103.63 299.495L103.558 298.497ZM97.2122 298.785L97.2316 299.785H97.2321L97.2122 298.785ZM57.6566 291.82L58.0325 290.894L58.0321 290.894L57.6566 291.82ZM2.73371 228.204L1.76129 228.438L1.76133 228.438L2.73371 228.204ZM23.0208 129.599L22.1574 129.094L22.1573 129.095L23.0208 129.599ZM73.4603 70.5617L74.1005 71.3299L74.1008 71.3297L73.4603 70.5617ZM1120.59 71.0969V70.0969V70.0969V71.0969ZM1133.7 72.4396L1133.92 71.4651L1133.92 71.4648L1133.7 72.4396ZM1134.77 72.6867H1135.77V71.8908L1135 71.7122L1134.77 72.6867ZM1134.77 97.8176L1134.54 98.7908L1135.77 99.081V97.8176H1134.77ZM1133.09 97.4201L1133.32 96.4468L1133.31 96.4452L1133.09 97.4201ZM1126.08 96.7756V95.7756V95.7756V96.7756ZM1111.07 101.52L1111.73 102.271L1111.73 102.271L1111.07 101.52ZM1105.71 116.19L1104.71 116.19V116.19H1105.71ZM1105.71 124.334H1104.71V125.334H1105.71V124.334ZM1169.56 124.334L1170.49 123.97L1170.24 123.334H1169.56V124.334ZM1199.18 200.125L1198.25 200.489L1199.18 202.877L1200.11 200.488L1199.18 200.125ZM1228.69 124.334V123.334H1228.01L1227.76 123.971L1228.69 124.334ZM1257.62 124.334L1258.55 124.717L1259.12 123.334H1257.62V124.334ZM1193.81 278.261V279.261H1194.48L1194.74 278.644L1193.81 278.261ZM1164.98 278.261L1164.06 277.858L1163.45 279.261H1164.98V278.261ZM1185.39 231.919L1186.3 232.322L1186.48 231.931L1186.31 231.536L1185.39 231.919ZM1151.43 150.123L1152.35 149.74L1152.1 149.123H1151.43V150.123ZM1105.69 150.123V149.123H1104.69V150.123H1105.69ZM1105.69 238.555V239.555H1106.69V238.555H1105.69ZM1078.79 238.555H1077.79V239.555H1078.79V238.555ZM1078.79 150.123H1079.79V149.123H1078.79V150.123ZM1057.44 150.123H1056.44V151.123H1057.44V150.123ZM1057.44 124.334V123.334H1056.44V124.334H1057.44ZM1078.79 124.334V125.334H1079.79V124.334H1078.79ZM1078.79 115.737H1077.79V115.737H1078.79ZM1090.11 82.7365L1090.82 83.434L1090.82 83.4334L1090.11 82.7365ZM712.862 121.977V120.977V120.977V121.977ZM740.622 129.174L740.127 130.043L740.128 130.043L740.622 129.174ZM760.705 149.548L761.576 149.056L761.575 149.055L760.705 149.548ZM768.165 179.039H769.165V179.039H768.165ZM767.594 189.377L766.61 189.202L766.609 189.203L767.594 189.377ZM767.391 190.528V191.528H768.23L768.376 190.702L767.391 190.528ZM681.772 190.528V189.528H680.531L680.795 190.741L681.772 190.528ZM682.18 192.174L681.209 192.414L681.211 192.423L681.214 192.431L682.18 192.174ZM682.275 192.53L683.244 192.285L683.241 192.274L682.275 192.53ZM682.737 194.134L681.782 194.431L681.784 194.44L681.787 194.448L682.737 194.134ZM683.063 195.135L682.113 195.449L682.116 195.456L683.063 195.135ZM683.619 196.671L684.185 197.496L684.831 197.053L684.556 196.32L683.619 196.671ZM682.941 197.137L682.375 196.312L683.315 198.064L682.941 197.137ZM683.688 196.835L684.618 196.469L684.249 195.53L683.313 195.908L683.688 196.835ZM692.357 209.202L693.005 208.441L693.004 208.44L692.357 209.202ZM713.731 216.263V217.263V217.263V216.263ZM731.111 211.848L730.593 210.992L730.591 210.993L731.111 211.848ZM738.964 203.362H739.964L738.048 202.961L738.964 203.362ZM738.964 203.375H737.964V204.375H738.964V203.375ZM766.263 203.375L767.238 203.599L767.519 202.375H766.263V203.375ZM748.91 229.877L749.508 230.679L749.508 230.679L748.91 229.877ZM713.31 240.832V241.832V241.832V240.832ZM683.47 233.017L682.968 233.882V233.882L683.47 233.017ZM662.273 211.396L663.145 210.907L663.145 210.906L662.273 211.396ZM654.528 180.849H653.528V180.849H654.528ZM662.273 151.015L661.405 150.518V150.518L662.273 151.015ZM683.416 129.737L682.915 128.871L682.915 128.872L683.416 129.737ZM835.766 121.977V120.977V120.977V121.977ZM857.181 127.008L857.624 126.111L857.623 126.111L857.181 127.008ZM870.769 138.004L869.953 138.582L871.769 141.149V138.004H870.769ZM870.769 124.349V123.349H869.769V124.349H870.769ZM897.565 124.349H898.565V123.349H897.565V124.349ZM897.565 238.57V239.57H898.565V238.57H897.565ZM870.769 238.57H869.769V239.57H870.769V238.57ZM870.769 224.914H871.769V221.758L869.951 224.338L870.769 224.914ZM857.236 235.855L857.677 236.752L857.677 236.752L857.236 235.855ZM835.766 240.832V241.832V241.832V240.832ZM797.108 223.584L796.37 224.259V224.259L797.108 223.584ZM781.346 181.287H780.346V181.287H781.346ZM797.108 139.224L797.845 139.899L797.845 139.899L797.108 139.224ZM485.56 73.2355V72.2355V72.2355V73.2355ZM512.885 77.7189L513.21 76.7731L513.208 76.7726L512.885 77.7189ZM535.931 89.8381L536.54 89.0448V89.0448L535.931 89.8381ZM552.508 107.826L551.667 108.367L551.667 108.368L552.508 107.826ZM560.906 128.625L561.89 128.447L561.888 128.441L560.906 128.625ZM561.082 129.599V130.599H562.28L562.066 129.42L561.082 129.599ZM529.395 129.599L528.448 129.919L528.678 130.599H529.395V129.599ZM529.204 129.036L528.254 129.346L528.257 129.357L529.204 129.036ZM513.374 108.8L512.829 109.638L512.83 109.639L513.374 108.8ZM485.56 100.834V99.8342V99.8342V100.834ZM448.083 116.478L447.356 115.792L447.355 115.792L448.083 116.478ZM433.34 156.348H432.34V156.348H433.34ZM448.749 197.122L449.472 196.431V196.431L448.749 197.122ZM487.571 213.219V214.219V214.219V213.219ZM514.475 207.858L514.89 208.767L514.891 208.767L514.475 207.858ZM532.751 192.694L533.579 193.255L533.751 193.001V192.694H532.751ZM532.751 172.471H533.751V171.471H532.751V172.471ZM486.28 172.471H485.28V173.471H486.28V172.471ZM486.28 145.324V144.324H485.28V145.324H486.28ZM561.137 145.324H562.137V144.324H561.137V145.324ZM561.137 203.237L562.005 203.734L562.137 203.503V203.237H561.137ZM561.028 203.429L561.894 203.929L561.896 203.925L561.028 203.429ZM530.93 230.658L530.488 229.761L530.488 229.762L530.93 230.658ZM485.804 240.598V241.598V241.598V240.598ZM444.333 229.451L443.822 230.311L443.822 230.311L444.333 229.451ZM414.969 198.974L415.845 198.492L415.845 198.491L414.969 198.974ZM404.317 156.348H403.317V156.348H404.317ZM414.902 114.01L414.028 113.524V113.524L414.902 114.01ZM444.157 84.0939L444.66 84.958L444.66 84.9578L444.157 84.0939ZM961.551 124.334H960.551V125.334H961.551V124.334ZM1040.69 124.334H1041.69V123.334H1040.69V124.334ZM1040.69 238.556V239.556H1041.69V238.556H1040.69ZM1014 238.556H1013V239.556H1014V238.556ZM1014 150.123H1015V149.123H1014V150.123ZM961.551 150.123V149.123H960.551V150.123H961.551ZM966.973 209.585L967.63 208.832L967.629 208.83L966.973 209.585ZM982.029 214.343V215.343V215.343V214.343ZM989.284 213.657L989.076 212.679L989.072 212.68L989.284 213.657ZM990.956 213.301H991.956V212.065L990.748 212.323L990.956 213.301ZM990.956 238.432L991.166 239.41L991.956 239.24V238.432H990.956ZM989.868 238.665L990.077 239.643L990.078 239.643L989.868 238.665ZM976.553 239.9V240.9V240.9V239.9ZM946.02 228.314L946.734 227.614L946.733 227.612L946.02 228.314ZM934.647 150.123H935.647V149.123H934.647V150.123ZM913.409 150.123H912.409V151.123H913.409V150.123ZM913.409 124.334V123.334H912.409V124.334H913.409ZM934.647 124.334V125.334H935.647V124.334H934.647ZM934.647 93.9933V92.9933H933.647V93.9933H934.647ZM961.551 93.9933H962.551V92.9933H961.551V93.9933ZM637.543 121.977V120.977V120.977V121.977ZM649.487 123.621L649.12 124.552L649.125 124.554L649.487 123.621ZM650.37 123.964H651.37V123.279L650.732 123.032L650.37 123.964ZM650.37 149.534L650.11 150.5L651.37 150.84V149.534H650.37ZM648.645 149.069L648.905 148.103L648.904 148.103L648.645 149.069ZM635.532 147.08V146.08V146.08V147.08ZM621.25 152.222L621.812 153.049L621.814 153.048L621.25 152.222ZM609.701 165.713L608.803 165.273L608.701 165.48L608.701 165.711L609.701 165.713ZM609.565 238.57V239.57H610.563L610.565 238.571L609.565 238.57ZM582.892 238.57H581.892V239.57H582.892V238.57ZM582.892 124.349V123.349H581.892V124.349H582.892ZM609.578 124.349H610.578V123.349H609.578V124.349ZM609.578 138.018H608.578V141.487L610.425 138.55L609.578 138.018ZM621.006 127.035L621.521 127.893L621.522 127.892L621.006 127.035ZM840.997 147.752V146.752V146.752V147.752ZM817.314 157.321L816.606 156.615V156.615L817.314 157.321ZM807.775 181.274L806.775 181.274V181.274H807.775ZM817.314 205.35L818.026 204.648L818.026 204.647L817.314 205.35ZM840.997 215.028V216.028V216.028V215.028ZM858.513 210.381L859.002 211.253L859.003 211.253L858.513 210.381ZM870.755 198.714L871.623 199.212L871.755 198.98L871.755 198.714L870.755 198.714ZM870.742 164.397L871.742 164.396L871.741 164.134L871.613 163.906L870.742 164.397ZM858.553 152.454L858.055 153.322L858.055 153.322L858.553 152.454ZM711.394 146.642V145.642V145.642V146.642ZM692.656 152.263L692.064 151.457L692.061 151.459L692.656 152.263ZM687.072 157.884L687.835 158.53L687.857 158.504L687.877 158.476L687.072 157.884ZM682.505 167.207L681.543 166.937L681.185 168.207H682.505V167.207ZM739.005 167.207V168.207H740.224L739.986 167.011L739.005 167.207ZM730.05 152.537L730.67 151.752L730.669 151.752L730.05 152.537ZM1027.51 71.8918V70.8918V70.8918V71.8918ZM1039.53 76.9367L1038.83 77.6435L1038.83 77.645L1039.53 76.9367ZM1044.59 88.9064L1045.59 88.9064V88.9064H1044.59ZM1039.53 101.109L1038.83 100.4L1038.83 100.402L1039.53 101.109ZM1027.51 106.153V107.153V107.153V106.153ZM1015.54 101.109L1014.83 101.813V101.813L1015.54 101.109ZM1010.54 88.9064H1009.54V88.9064L1010.54 88.9064ZM1015.54 76.9367L1016.25 77.6421L1016.25 77.6406L1015.54 76.9367ZM322.624 0.00799008L322.606 -0.991833V-0.991833L322.624 0.00799008ZM368.457 44.5666L369.457 44.5481V44.5481L368.457 44.5666ZM324.296 90.8117L324.315 91.8115V91.8115L324.296 90.8117ZM278.463 46.2531L277.463 46.2716L278.463 46.2531ZM181.567 19.7648L181.641 20.7621C194.576 19.8026 205.924 29.6507 206.89 42.6795L207.887 42.6056L208.884 42.5318C207.838 28.4144 195.543 17.7254 181.493 18.7676L181.567 19.7648ZM207.887 42.6056L206.89 42.6789C207.359 49.0774 205.299 55.3002 201.086 60.1437L201.84 60.8L202.595 61.4563C207.159 56.2089 209.393 49.4604 208.884 42.5324L207.887 42.6056ZM201.84 60.8L201.086 60.1438C196.904 64.9521 190.84 67.6782 184.444 68.2215L184.529 69.218L184.613 70.2144C191.451 69.6335 198.025 66.7111 202.595 61.4562L201.84 60.8ZM184.529 69.218L184.443 68.2216C155.759 70.6752 127.406 89.1179 108.954 103.823L109.577 104.605L110.201 105.387C128.6 90.724 156.555 72.6144 184.614 70.2143L184.529 69.218ZM109.577 104.605L108.955 103.822C93.1848 116.373 79.2755 131.204 68.2725 148.181L69.1116 148.725L69.9508 149.269C80.8246 132.491 94.5816 117.817 110.2 105.387L109.577 104.605ZM69.1116 148.725L68.2725 148.181C51.9148 173.413 45.0714 197.652 49.5759 217.105L50.5501 216.879L51.5243 216.653C47.1966 197.964 53.7243 174.299 69.9507 149.269L69.1116 148.725ZM50.5501 216.879L49.5758 217.104C52.7655 230.906 61.796 241.164 75.5849 246.748L75.9603 245.821L76.3357 244.895C63.1113 239.538 54.558 229.78 51.5244 216.654L50.5501 216.879ZM75.9603 245.821L75.5845 246.748C86.9611 251.361 101.343 251.359 117.545 247.175C133.758 242.989 151.875 234.596 170.793 222.311L170.248 221.472L169.704 220.633C150.914 232.835 132.996 241.12 117.045 245.239C101.085 249.36 87.176 249.29 76.336 244.895L75.9603 245.821ZM170.248 221.472L170.793 222.311C196.435 205.667 220.6 183.318 235.009 163.041L234.194 162.462L233.379 161.883C219.144 181.915 195.18 204.098 169.704 220.633L170.248 221.472ZM234.194 162.462L233.877 161.513C189.747 176.237 159.453 183.743 157.944 184.003L158.114 184.988L158.284 185.974C159.954 185.686 190.372 178.137 234.51 163.411L234.194 162.462ZM158.114 184.988L157.943 184.003C145.153 186.224 132.959 177.525 130.755 164.611L129.769 164.779L128.783 164.948C131.171 178.934 144.387 188.387 158.285 185.974L158.114 184.988ZM129.769 164.779L130.755 164.611C128.55 151.697 137.176 139.386 149.956 137.165L149.784 136.18L149.613 135.195C135.733 137.607 126.395 150.962 128.783 164.948L129.769 164.779ZM149.784 136.18L150.036 137.148C150.036 137.148 150.047 137.145 150.083 137.136C150.115 137.128 150.159 137.117 150.216 137.103C150.33 137.075 150.494 137.034 150.706 136.982C151.13 136.876 151.747 136.721 152.547 136.517C154.148 136.108 156.482 135.503 159.475 134.701C165.46 133.096 174.077 130.703 184.722 127.517C206.011 121.146 235.414 111.606 268.092 98.8733L267.729 97.9416L267.366 97.0098C202.131 122.429 149.967 135.099 149.533 135.212L149.784 136.18ZM267.729 97.9416L268.091 98.8735C277.66 95.1501 288.115 96.1727 296.789 101.665L297.324 100.82L297.859 99.9757C288.65 94.1437 277.528 93.0553 267.366 97.0097L267.729 97.9416ZM297.324 100.82L296.788 101.665C305.462 107.172 310.919 116.225 311.75 126.539L312.746 126.459L313.743 126.379C312.862 115.442 307.067 105.821 297.86 99.9762L297.324 100.82ZM312.746 126.459L311.751 126.551L317.389 187.931L318.385 187.84L319.381 187.749L313.742 126.368L312.746 126.459ZM318.385 187.84L317.391 187.947C318.872 201.688 320.393 215.881 321.289 226.247L322.285 226.161L323.282 226.075C322.384 215.684 320.86 201.467 319.379 187.733L318.385 187.84ZM322.285 226.161L321.289 226.247C322.401 239.141 313.224 250.894 300.919 252.48L301.047 253.472L301.175 254.464C314.606 252.732 324.48 239.972 323.282 226.075L322.285 226.161ZM301.047 253.472L300.913 252.481C298.977 252.743 297.023 252.744 295.103 252.52L294.987 253.513L294.871 254.506C296.946 254.748 299.068 254.749 301.181 254.463L301.047 253.472ZM294.987 253.513L295.104 252.52C284.088 251.219 275.371 242.146 274.419 230.944L273.422 231.028L272.426 231.113C273.457 243.246 282.895 253.092 294.869 254.506L294.987 253.513ZM273.422 231.028L274.419 230.945C273.67 222.046 272.324 209.365 270.965 196.727L269.971 196.834L268.977 196.941C270.336 209.585 271.68 222.242 272.426 231.112L273.422 231.028ZM269.971 196.834L269.176 196.227C251.073 219.913 224.719 243.844 196.268 262.313L196.813 263.152L197.357 263.99C225.976 245.413 252.507 221.331 270.766 197.441L269.971 196.834ZM196.813 263.152L196.268 262.313C173.678 276.98 139.309 294.927 103.486 297.5L103.558 298.497L103.63 299.495C139.959 296.885 174.673 278.718 197.357 263.99L196.813 263.152ZM103.558 298.497L103.488 297.5C101.357 297.649 99.2405 297.745 97.1923 297.786L97.2122 298.785L97.2321 299.785C99.3145 299.744 101.465 299.647 103.628 299.495L103.558 298.497ZM97.2122 298.785L97.1929 297.786C83.1437 298.057 69.9625 295.733 58.0325 290.894L57.6566 291.82L57.2807 292.747C69.4831 297.697 82.936 300.062 97.2316 299.785L97.2122 298.785ZM57.6566 291.82L58.0321 290.894C29.7426 279.43 10.6831 257.039 3.70609 227.971L2.73371 228.204L1.76133 228.438C8.88886 258.132 28.3922 281.041 57.281 292.747L57.6566 291.82ZM2.73371 228.204L3.70613 227.971C-4.95489 191.862 8.63178 156.222 23.8844 130.103L23.0208 129.599L22.1573 129.095C6.80948 155.377 -7.07915 191.58 1.76129 228.438L2.73371 228.204ZM23.0208 129.599L23.8842 130.103C37.0014 107.658 54.1805 87.9337 74.1005 71.3299L73.4603 70.5617L72.82 69.7936C52.7367 86.5334 35.4011 106.432 22.1574 129.094L23.0208 129.599ZM73.4603 70.5617L74.1008 71.3297C97.4122 51.8884 137.699 24.0962 181.642 20.762L181.567 19.7648L181.491 18.7677C136.894 22.1516 96.1971 50.2975 72.8198 69.7937L73.4603 70.5617ZM1120.59 71.0969V72.0969C1125.32 72.0969 1129.66 72.543 1133.48 73.4145L1133.7 72.4396L1133.92 71.4648C1129.94 70.554 1125.44 70.0969 1120.59 70.0969V71.0969ZM1133.7 72.4396L1133.47 73.4141L1134.55 73.6612L1134.77 72.6867L1135 71.7122L1133.92 71.4651L1133.7 72.4396ZM1134.77 72.6867H1133.77V97.8176H1134.77H1135.77V72.6867H1134.77ZM1134.77 97.8176L1135 96.8443L1133.32 96.4468L1133.09 97.4201L1132.86 98.3934L1134.54 98.7908L1134.77 97.8176ZM1133.09 97.4201L1133.31 96.4452C1131.35 95.998 1128.91 95.7756 1126.08 95.7756V96.7756V97.7756C1128.82 97.7756 1131.1 97.9922 1132.86 98.395L1133.09 97.4201ZM1126.08 96.7756V95.7756C1119.54 95.7756 1114.24 97.4074 1110.41 100.769L1111.07 101.52L1111.73 102.271C1115.09 99.3254 1119.86 97.7756 1126.08 97.7756V96.7756ZM1111.07 101.52L1110.41 100.768C1106.56 104.15 1104.71 109.411 1104.71 116.19L1105.71 116.19L1106.71 116.19C1106.71 109.752 1108.47 105.141 1111.73 102.271L1111.07 101.52ZM1105.71 116.19H1104.71V124.334H1105.71H1106.71V116.19H1105.71ZM1105.71 124.334V125.334H1169.56V124.334V123.334H1105.71V124.334ZM1169.56 124.334L1168.63 124.698L1198.25 200.489L1199.18 200.125L1200.11 199.761L1170.49 123.97L1169.56 124.334ZM1199.18 200.125L1200.11 200.488L1229.62 124.697L1228.69 124.334L1227.76 123.971L1198.25 199.762L1199.18 200.125ZM1228.69 124.334V125.334H1257.62V124.334V123.334H1228.69V124.334ZM1257.62 124.334L1256.7 123.951L1192.89 277.878L1193.81 278.261L1194.74 278.644L1258.55 124.717L1257.62 124.334ZM1193.81 278.261V277.261H1164.98V278.261V279.261H1193.81V278.261ZM1164.98 278.261L1165.89 278.664L1186.3 232.322L1185.39 231.919L1184.47 231.516L1164.06 277.858L1164.98 278.261ZM1185.39 231.919L1186.31 231.536L1152.35 149.74L1151.43 150.123L1150.51 150.507L1184.46 232.303L1185.39 231.919ZM1151.43 150.123V149.123H1105.69V150.123V151.123H1151.43V150.123ZM1105.69 150.123H1104.69V238.555H1105.69H1106.69V150.123H1105.69ZM1105.69 238.555V237.555H1078.79V238.555V239.555H1105.69V238.555ZM1078.79 238.555H1079.79V150.123H1078.79H1077.79V238.555H1078.79ZM1078.79 150.123V149.123H1057.44V150.123V151.123H1078.79V150.123ZM1057.44 150.123H1058.44V124.334H1057.44H1056.44V150.123H1057.44ZM1057.44 124.334V125.334H1078.79V124.334V123.334H1057.44V124.334ZM1078.79 124.334H1079.79V115.737H1078.79H1077.79V124.334H1078.79ZM1078.79 115.737H1079.79C1079.79 101.736 1083.54 90.9128 1090.82 83.434L1090.11 82.7365L1089.39 82.039C1081.64 89.9981 1077.79 101.386 1077.79 115.737H1078.79ZM1090.11 82.7365L1090.82 83.4334C1098.1 75.943 1108.09 72.0969 1120.59 72.0969V71.0969V70.0969C1107.65 70.0969 1097.11 74.0921 1089.39 82.0396L1090.11 82.7365ZM712.862 121.977V122.977C722.75 122.977 731.914 125.361 740.127 130.043L740.622 129.174L741.118 128.305C732.59 123.444 723.083 120.977 712.862 120.977V121.977ZM740.622 129.174L740.128 130.043C748.333 134.707 754.96 141.443 759.836 150.041L760.705 149.548L761.575 149.055C756.532 140.159 749.652 133.156 741.117 128.305L740.622 129.174ZM760.705 149.548L759.835 150.04C764.69 158.64 767.165 168.381 767.165 179.039H768.165H769.165C769.165 168.062 766.613 157.978 761.576 149.056L760.705 149.548ZM768.165 179.039H767.165C767.165 183.763 766.973 187.156 766.61 189.202L767.594 189.377L768.579 189.552C768.976 187.32 769.165 183.776 769.165 179.039H768.165ZM767.594 189.377L766.609 189.203L766.406 190.355L767.391 190.528L768.376 190.702L768.579 189.551L767.594 189.377ZM767.391 190.528V189.528H681.772V190.528V191.528H767.391V190.528ZM681.772 190.528L680.795 190.741C680.92 191.319 681.084 191.907 681.209 192.414L682.18 192.174L683.151 191.934C683.005 191.344 682.868 190.862 682.749 190.316L681.772 190.528ZM682.18 192.174L681.214 192.431L681.308 192.787L682.275 192.53L683.241 192.274L683.146 191.917L682.18 192.174ZM682.275 192.53L681.305 192.776C681.475 193.448 681.632 193.951 681.782 194.431L682.737 194.134L683.691 193.837C683.542 193.358 683.4 192.901 683.244 192.285L682.275 192.53ZM682.737 194.134L681.787 194.448C681.84 194.609 681.894 194.774 681.948 194.942C682.003 195.11 682.058 195.281 682.113 195.449L683.063 195.135L684.012 194.821C683.959 194.66 683.906 194.495 683.851 194.327C683.797 194.159 683.742 193.988 683.686 193.82L682.737 194.134ZM683.063 195.135L682.116 195.456C682.298 195.994 682.493 196.516 682.683 197.022L683.619 196.671L684.556 196.32C684.365 195.811 684.181 195.318 684.01 194.814L683.063 195.135ZM683.619 196.671L683.054 195.847L682.375 196.312L682.941 197.137L683.507 197.961L684.185 197.496L683.619 196.671ZM682.941 197.137L683.315 198.064L684.062 197.762L683.688 196.835L683.313 195.908L682.566 196.21L682.941 197.137ZM683.688 196.835L682.757 197.201C684.783 202.347 687.797 206.642 691.709 209.965L692.357 209.202L693.004 208.44C689.362 205.347 686.533 201.332 684.618 196.469L683.688 196.835ZM692.357 209.202L691.708 209.963C697.427 214.836 704.875 217.263 713.731 217.263V216.263V215.263C705.249 215.263 698.292 212.946 693.005 208.441L692.357 209.202ZM713.731 216.263V217.263C720.577 217.263 726.622 215.748 731.63 212.702L731.111 211.848L730.591 210.993C725.952 213.815 720.282 215.263 713.731 215.263V216.263ZM731.111 211.848L731.628 212.704C735.536 210.341 738.316 207.343 739.881 203.762L738.964 203.362L738.048 202.961C736.677 206.098 734.213 208.803 730.593 210.992L731.111 211.848ZM738.964 203.362H737.964V203.375H738.964H739.964V203.362H738.964ZM738.964 203.375V204.375H766.263V203.375V202.375H738.964V203.375ZM766.263 203.375L765.288 203.151C762.855 213.736 757.187 222.457 748.313 229.076L748.91 229.877L749.508 230.679C758.761 223.779 764.698 214.649 767.238 203.599L766.263 203.375ZM748.91 229.877L748.313 229.075C738.753 236.196 726.986 239.832 713.31 239.832V240.832V241.832C727.354 241.832 739.555 238.092 749.508 230.679L748.91 229.877ZM713.31 240.832V239.832C702.606 239.832 692.739 237.241 683.972 232.152L683.47 233.017L682.968 233.882C692.056 239.157 702.273 241.832 713.31 241.832V240.832ZM683.47 233.017L683.972 232.152C675.203 227.061 668.195 219.912 663.145 210.907L662.273 211.396L661.401 211.885C666.623 221.196 673.883 228.607 682.968 233.882L683.47 233.017ZM662.273 211.396L663.145 210.906C658.097 201.92 655.528 191.807 655.528 180.849H654.528H653.528C653.528 192.129 656.176 202.582 661.401 211.885L662.273 211.396ZM654.528 180.849H655.528C655.528 170.184 658.095 160.32 663.141 151.512L662.273 151.015L661.405 150.518C656.178 159.643 653.528 169.852 653.528 180.849H654.528ZM662.273 151.015L663.141 151.512C668.19 142.698 675.184 135.668 683.918 130.601L683.416 129.737L682.915 128.872C673.875 134.115 666.629 141.399 661.405 150.518L662.273 151.015ZM683.416 129.737L683.918 130.602C692.659 125.538 702.391 122.977 712.862 122.977V121.977V120.977C702.053 120.977 691.973 123.625 682.915 128.871L683.416 129.737ZM835.766 121.977V122.977C843.056 122.977 850.107 124.64 856.739 127.905L857.181 127.008L857.623 126.111C850.721 122.713 843.368 120.977 835.766 120.977V121.977ZM857.181 127.008L856.738 127.905C862.561 130.782 866.984 134.386 869.953 138.582L870.769 138.004L871.585 137.427C868.385 132.903 863.677 129.102 857.624 126.111L857.181 127.008ZM870.769 138.004H871.769V124.349H870.769H869.769V138.004H870.769ZM870.769 124.349V125.349H897.565V124.349V123.349H870.769V124.349ZM897.565 124.349H896.565V238.57H897.565H898.565V124.349H897.565ZM897.565 238.57V237.57H870.769V238.57V239.57H897.565V238.57ZM870.769 238.57H871.769V224.914H870.769H869.769V238.57H870.769ZM870.769 224.914L869.951 224.338C866.998 228.532 862.59 232.107 856.794 234.957L857.236 235.855L857.677 236.752C863.702 233.789 868.399 230.016 871.586 225.49L870.769 224.914ZM857.236 235.855L856.795 234.957C850.207 238.194 843.128 239.832 835.766 239.832V240.832V241.832C843.432 241.832 850.813 240.124 857.677 236.752L857.236 235.855ZM835.766 240.832V239.832C820.876 239.832 808.137 234.155 797.845 222.909L797.108 223.584L796.37 224.259C807.031 235.909 820.301 241.832 835.766 241.832V240.832ZM797.108 223.584L797.845 222.909C787.565 211.673 782.346 197.702 782.346 181.287H781.346H780.346C780.346 198.161 785.725 212.626 796.37 224.259L797.108 223.584ZM781.346 181.287H782.346C782.346 165.04 787.563 151.123 797.845 139.899L797.108 139.224L796.37 138.548C785.727 150.166 780.346 164.576 780.346 181.287H781.346ZM797.108 139.224L797.845 139.899C808.137 128.653 820.876 122.977 835.766 122.977V121.977V120.977C820.301 120.977 807.031 126.899 796.37 138.549L797.108 139.224ZM485.56 73.2355V74.2355C494.883 74.2356 503.958 75.7265 512.562 78.6652L512.885 77.7189L513.208 76.7726C504.392 73.7611 495.097 72.2356 485.56 72.2355V73.2355ZM512.885 77.7189L512.56 78.6648C521.179 81.6223 528.827 85.645 535.322 90.6313L535.931 89.8381L536.54 89.0448C529.855 83.9129 522.011 79.7932 513.21 76.7731L512.885 77.7189ZM535.931 89.8381L535.322 90.6313C541.821 95.6207 547.314 101.596 551.667 108.367L552.508 107.826L553.349 107.286C548.87 100.319 543.221 94.1736 536.54 89.0448L535.931 89.8381ZM552.508 107.826L551.667 108.368C555.813 114.805 558.589 121.69 559.923 128.809L560.906 128.625L561.888 128.441C560.505 121.055 557.628 113.928 553.349 107.285L552.508 107.826ZM560.906 128.625L559.922 128.804L560.098 129.777L561.082 129.599L562.066 129.42L561.89 128.447L560.906 128.625ZM561.082 129.599V128.599H529.395V129.599V130.599H561.082V129.599ZM529.395 129.599L530.342 129.278L530.152 128.716L529.204 129.036L528.257 129.357L528.448 129.919L529.395 129.599ZM529.204 129.036L530.155 128.726C527.349 120.12 521.873 113.124 513.919 107.961L513.374 108.8L512.83 109.639C520.421 114.566 525.597 121.198 528.254 129.346L529.204 129.036ZM513.374 108.8L513.92 107.962C505.621 102.557 496.066 99.8342 485.56 99.8342V100.834V101.834C495.707 101.834 504.877 104.459 512.829 109.638L513.374 108.8ZM485.56 100.834V99.8342C470.219 99.8342 457.34 105.2 447.356 115.792L448.083 116.478L448.811 117.164C458.394 106.998 470.735 101.834 485.56 101.834V100.834ZM448.083 116.478L447.355 115.792C437.375 126.394 432.34 140.059 432.34 156.348H433.34H434.34C434.34 140.499 439.225 127.346 448.811 117.163L448.083 116.478ZM433.34 156.348H432.34C432.34 172.945 437.597 186.913 448.027 197.814L448.749 197.122L449.472 196.431C439.438 185.944 434.34 172.49 434.34 156.348H433.34ZM448.749 197.122L448.027 197.814C458.444 208.702 471.769 214.219 487.571 214.219V213.219V212.219C472.283 212.219 459.491 206.903 449.472 196.431L448.749 197.122ZM487.571 213.219V214.219C497.772 214.219 506.967 212.387 514.89 208.767L514.475 207.858L514.059 206.948C506.438 210.43 497.534 212.219 487.571 212.219V213.219ZM514.475 207.858L514.891 208.767C522.722 205.187 529.026 199.971 533.579 193.255L532.751 192.694L531.924 192.132C527.59 198.524 521.582 203.509 514.059 206.948L514.475 207.858ZM532.751 192.694H533.751V172.471H532.751H531.751V192.694H532.751ZM532.751 172.471V171.471H486.28V172.471V173.471H532.751V172.471ZM486.28 172.471H487.28V145.324H486.28H485.28V172.471H486.28ZM486.28 145.324V146.324H561.137V145.324V144.324H486.28V145.324ZM561.137 145.324H560.137V203.237H561.137H562.137V145.324H561.137ZM561.137 203.237L560.269 202.741L560.159 202.933L561.028 203.429L561.896 203.925L562.005 203.734L561.137 203.237ZM561.028 203.429L560.162 202.929C553.601 214.281 543.663 223.271 530.488 229.761L530.93 230.658L531.372 231.555C544.857 224.912 555.111 215.665 561.893 203.929L561.028 203.429ZM530.93 230.658L530.488 229.762C517.269 236.281 502.232 239.598 485.804 239.598V240.598V241.598C502.504 241.598 517.849 238.225 531.372 231.555L530.93 230.658ZM485.804 240.598V239.598C470.88 239.598 457.103 235.886 444.845 228.592L444.333 229.451L443.822 230.311C456.403 237.797 470.536 241.598 485.804 241.598V240.598ZM444.333 229.451L444.845 228.592C432.567 221.281 422.813 211.157 415.845 198.492L414.969 198.974L414.093 199.456C421.23 212.429 431.234 222.815 443.822 230.311L444.333 229.451ZM414.969 198.974L415.845 198.491C408.865 185.814 405.317 171.64 405.317 156.348H404.317H403.317C403.317 171.959 406.942 186.467 414.093 199.456L414.969 198.974ZM404.317 156.348H405.317C405.317 141.054 408.839 126.978 415.776 114.496L414.902 114.01L414.028 113.524C406.914 126.324 403.317 140.738 403.317 156.348H404.317ZM414.902 114.01L415.776 114.496C422.714 102.011 432.438 92.0785 444.66 84.958L444.157 84.0939L443.653 83.2299C431.118 90.5326 421.139 100.727 414.028 113.524L414.902 114.01ZM444.157 84.0939L444.66 84.9578C456.864 77.8405 470.63 74.2355 485.56 74.2355V73.2355V72.2355C470.297 72.2355 456.18 75.924 443.653 83.2301L444.157 84.0939ZM961.551 124.334V125.334H1040.69V124.334V123.334H961.551V124.334ZM1040.69 124.334H1039.69V238.556H1040.69H1041.69V124.334H1040.69ZM1040.69 238.556V237.556H1014V238.556V239.556H1040.69V238.556ZM1014 238.556H1015V150.123H1014H1013V238.556H1014ZM1014 150.123V149.123H961.551V150.123V151.123H1014V150.123ZM961.551 150.123H960.551V194.915H961.551H962.551V150.123H961.551ZM961.551 194.915H960.551C960.551 201.696 962.423 206.959 966.317 210.34L966.973 209.585L967.629 208.83C964.322 205.959 962.551 201.351 962.551 194.915H961.551ZM966.973 209.585L966.316 210.339C970.164 213.697 975.494 215.343 982.029 215.343V214.343V213.343C975.818 213.343 971.01 211.78 967.63 208.832L966.973 209.585ZM982.029 214.343V215.343C984.813 215.343 987.333 215.106 989.497 214.635L989.284 213.657L989.072 212.68C987.078 213.114 984.706 213.343 982.029 213.343V214.343ZM989.284 213.657L989.493 214.635L991.165 214.279L990.956 213.301L990.748 212.323L989.076 212.679L989.284 213.657ZM990.956 213.301H989.956V238.432H990.956H991.956V213.301H990.956ZM990.956 238.432L990.747 237.454L989.659 237.687L989.868 238.665L990.078 239.643L991.166 239.41L990.956 238.432ZM989.868 238.665L989.66 237.687C985.885 238.492 981.474 238.9 976.553 238.9V239.9V240.9C981.578 240.9 986.134 240.484 990.077 239.643L989.868 238.665ZM976.553 239.9V238.9C964.05 238.9 954.053 235.079 946.734 227.614L946.02 228.314L945.306 229.014C953.069 236.932 963.619 240.9 976.553 240.9V239.9ZM946.02 228.314L946.733 227.612C939.415 220.176 935.647 209.368 935.647 195.367H934.647H933.647C933.647 209.719 937.515 221.096 945.307 229.015L946.02 228.314ZM934.647 195.367H935.647V150.123H934.647H933.647V195.367H934.647ZM934.647 150.123V149.123H913.409V150.123V151.123H934.647V150.123ZM913.409 150.123H914.409V124.334H913.409H912.409V150.123H913.409ZM913.409 124.334V125.334H934.647V124.334V123.334H913.409V124.334ZM934.647 124.334H935.647V93.9933H934.647H933.647V124.334H934.647ZM934.647 93.9933V94.9933H961.551V93.9933V92.9933H934.647V93.9933ZM961.551 93.9933H960.551V124.334H961.551H962.551V93.9933H961.551ZM637.543 121.977V122.977C642.632 122.977 646.507 123.523 649.12 124.552L649.487 123.621L649.853 122.691C646.895 121.526 642.726 120.977 637.543 120.977V121.977ZM649.487 123.621L649.125 124.554L650.009 124.896L650.37 123.964L650.732 123.032L649.848 122.689L649.487 123.621ZM650.37 123.964H649.37V149.534H650.37H651.37V123.964H650.37ZM650.37 149.534L650.631 148.569L648.905 148.103L648.645 149.069L648.384 150.034L650.11 150.5L650.37 149.534ZM648.645 149.069L648.904 148.103C643.941 146.771 639.434 146.08 635.532 146.08V147.08V148.08C639.211 148.08 643.538 148.734 648.386 150.034L648.645 149.069ZM635.532 147.08V146.08C630.787 146.08 625.796 147.908 620.686 151.396L621.25 152.222L621.814 153.048C626.705 149.708 631.308 148.08 635.532 148.08V147.08ZM621.25 152.222L620.688 151.395C615.632 154.829 611.633 159.504 608.803 165.273L609.701 165.713L610.598 166.154C613.284 160.679 617.059 156.278 621.812 153.049L621.25 152.222ZM609.701 165.713L608.701 165.711L608.565 238.568L609.565 238.57L610.565 238.571L610.701 165.715L609.701 165.713ZM609.565 238.57V237.57H582.892V238.57V239.57H609.565V238.57ZM582.892 238.57H583.892V124.349H582.892H581.892V238.57H582.892ZM582.892 124.349V125.349H609.578V124.349V123.349H582.892V124.349ZM609.578 124.349H608.578V138.018H609.578H610.578V124.349H609.578ZM609.578 138.018L610.425 138.55C613.093 134.306 616.821 130.712 621.521 127.893L621.006 127.035L620.492 126.178C615.544 129.145 611.58 132.955 608.732 137.485L609.578 138.018ZM621.006 127.035L621.522 127.892C626.983 124.608 632.378 122.977 637.543 122.977V121.977V120.977C631.947 120.977 626.199 122.745 620.491 126.178L621.006 127.035ZM840.997 147.752V146.752C831.356 146.752 823.135 150.07 816.606 156.615L817.314 157.321L818.022 158.028C824.157 151.877 831.86 148.752 840.997 148.752V147.752ZM817.314 157.321L816.606 156.615C810.074 163.164 806.775 171.486 806.775 181.274L807.775 181.274L808.775 181.274C808.775 171.977 811.89 164.175 818.022 158.028L817.314 157.321ZM807.775 181.274H806.775C806.775 191.075 810.073 199.436 816.602 206.052L817.314 205.35L818.026 204.647C811.89 198.43 808.775 190.585 808.775 181.274H807.775ZM817.314 205.35L816.601 206.051C823.13 212.681 831.353 216.028 840.997 216.028V215.028V214.028C831.863 214.028 824.162 210.878 818.026 204.648L817.314 205.35ZM840.997 215.028V216.028C847.302 216.028 853.354 214.419 859.002 211.253L858.513 210.381L858.024 209.509C852.665 212.513 846.949 214.028 840.997 214.028V215.028ZM858.513 210.381L859.003 211.253C864.57 208.121 868.829 204.08 871.623 199.212L870.755 198.714L869.888 198.216C867.3 202.726 863.325 206.527 858.023 209.509L858.513 210.381ZM870.755 198.714L871.755 198.714L871.742 164.396L870.742 164.397L869.742 164.397L869.755 198.714L870.755 198.714ZM870.742 164.397L871.613 163.906C868.756 158.837 864.543 154.737 859.051 151.587L858.553 152.454L858.055 153.322C863.271 156.314 867.21 160.167 869.87 164.888L870.742 164.397ZM858.553 152.454L859.051 151.587C853.452 148.375 847.369 146.752 840.997 146.752V147.752V148.752C847.017 148.752 852.757 150.282 858.055 153.322L858.553 152.454ZM711.394 146.642V145.642C703.866 145.642 697.345 147.582 692.064 151.457L692.656 152.263L693.247 153.069C698.13 149.486 704.219 147.642 711.394 147.642V146.642ZM692.656 152.263L692.061 151.459C689.887 153.069 687.928 155.032 686.266 157.291L687.072 157.884L687.877 158.476C689.422 156.376 691.24 154.555 693.251 153.067L692.656 152.263ZM687.072 157.884L686.308 157.238C684.273 159.641 682.655 162.979 681.543 166.937L682.505 167.207L683.468 167.478C684.529 163.703 686.038 160.651 687.835 158.53L687.072 157.884ZM682.505 167.207V168.207H739.005V167.207V166.207H682.505V167.207ZM739.005 167.207L739.986 167.011C738.744 160.789 735.6 155.644 730.67 151.752L730.05 152.537L729.431 153.322C733.985 156.917 736.875 161.642 738.025 167.403L739.005 167.207ZM730.05 152.537L730.669 151.752C725.504 147.682 718.997 145.642 711.394 145.642V146.642V147.642C718.629 147.642 724.677 149.577 729.431 153.323L730.05 152.537ZM1027.51 71.8918V72.8918C1031.87 72.8918 1035.67 74.4815 1038.83 77.6435L1039.53 76.9367L1040.24 76.2299C1036.72 72.7014 1032.41 70.8918 1027.51 70.8918V71.8918ZM1039.53 76.9367L1038.83 77.645C1042 80.8087 1043.59 84.5876 1043.59 88.9064H1044.59H1045.59C1045.59 84.0393 1043.78 79.7554 1040.24 76.2284L1039.53 76.9367ZM1044.59 88.9064L1043.59 88.9064C1043.59 93.3991 1041.99 97.2435 1038.83 100.4L1039.53 101.109L1040.24 101.817C1043.78 98.2831 1045.59 93.9285 1045.59 88.9064L1044.59 88.9064ZM1039.53 101.109L1038.83 100.402C1035.67 103.564 1031.87 105.153 1027.51 105.153V106.153V107.153C1032.41 107.153 1036.72 105.344 1040.24 101.815L1039.53 101.109ZM1027.51 106.153V105.153C1023.15 105.153 1019.38 103.565 1016.25 100.405L1015.54 101.109L1014.83 101.813C1018.33 105.343 1022.6 107.153 1027.51 107.153V106.153ZM1015.54 101.109L1016.25 100.405C1013.12 97.2479 1011.54 93.4019 1011.54 88.9064L1010.54 88.9064L1009.54 88.9064C1009.54 93.9257 1011.32 98.2787 1014.83 101.813L1015.54 101.109ZM1010.54 88.9064H1011.54C1011.54 84.5148 1013.06 80.8451 1016.25 77.6421L1015.54 76.9367L1014.83 76.2313C1011.28 79.8012 1009.54 83.9749 1009.54 88.9064H1010.54ZM1015.54 76.9367L1016.25 77.6406C1019.38 74.4807 1023.15 72.8918 1027.51 72.8918V71.8918V70.8918C1022.6 70.8918 1018.33 72.7025 1014.83 76.2328L1015.54 76.9367ZM322.624 0.00799008L322.643 1.00781C346.894 0.552198 367.005 20.0936 367.458 44.585L368.457 44.5666L369.457 44.5481C368.985 18.9693 347.978 -1.46852 322.606 -0.991833L322.624 0.00799008ZM368.457 44.5666L367.458 44.585C367.909 69.0765 348.529 89.3562 324.277 89.8119L324.296 90.8117L324.315 91.8115C349.687 91.3348 369.929 70.127 369.457 44.5481L368.457 44.5666ZM324.296 90.8117L324.277 89.8119C300.026 90.2675 279.915 70.7261 279.463 46.2347L278.463 46.2531L277.463 46.2716C277.935 71.8505 298.942 92.2882 324.315 91.8115L324.296 90.8117ZM278.463 46.2531L279.463 46.2347C279.011 21.7433 298.392 1.46368 322.643 1.00781L322.624 0.00799008L322.606 -0.991833C297.234 -0.5149 276.991 20.6928 277.463 46.2716L278.463 46.2531Z" fill="url(#paint1_linear_0_216)" fill-opacity="0.5" mask="url(#path-1-inside-1_0_216)"/>
</g>
</g>
<defs>
<linearGradient id="paint0_linear_0_216" x1="33.5891" y1="45.5417" x2="1228.59" y2="247.041" gradientUnits="userSpaceOnUse">
<stop stop-color="#00DC46"/>
<stop offset="1" stop-color="#008F2E"/>
</linearGradient>
<linearGradient id="paint1_linear_0_216" x1="15.0892" y1="45.0417" x2="1248.59" y2="283.541" gradientUnits="userSpaceOnUse">
<stop offset="0.0192308" stop-color="#00DC46"/>
<stop offset="0.509615" stop-color="#00DC46" stop-opacity="0"/>
<stop offset="1" stop-color="#00DC46"/>
</linearGradient>
</defs>
</svg>
