<svg preserveAspectRatio="none" width="100%" height="100%" overflow="visible" style="display: block;" viewBox="0 0 27.7753 27.7745" fill="none" xmlns="http://www.w3.org/2000/svg">
<g id="ai-generate-portrait-image-spark--picture-photography-photo-image-artificial-intelligence-ai">
<path id="Vector 2140" d="M17.5946 4.31933C18.5754 3.33857 18.7272 2.43887 19.4397 1.53227C19.9973 0.822577 21.0533 0.822577 21.6109 1.53227C22.3235 2.43887 22.4753 3.33857 23.4559 4.31933C24.4367 5.30007 25.3365 5.45187 26.2431 6.16433C26.9527 6.72205 26.9527 7.77795 26.2431 8.33565C25.3365 9.04813 24.4367 9.19995 23.4561 10.1807C22.4753 11.1614 22.3235 12.0611 21.6111 12.9677C21.0533 13.6774 19.9975 13.6774 19.4397 12.9677C18.7273 12.0611 18.5755 11.1614 17.5947 10.1807C16.614 9.19993 15.7143 9.04813 14.8077 8.33565C14.098 7.77795 14.098 6.72205 14.8077 6.16433C15.7143 5.45187 16.6139 5.30005 17.5946 4.31933Z" stroke="url(#paint0_linear_0_4)" stroke-width="2" stroke-linecap="round" stroke-linejoin="round"/>
<path id="Intersect" d="M9.98575 6.68017C8.55389 6.72831 7.14565 6.86461 5.76699 7.01829C3.45007 7.27653 1.58568 9.14093 1.33768 11.459C1.1546 13.1702 1 14.927 1 16.7181C1 18.5092 1.1546 20.2661 1.33768 21.9773C1.58568 24.2953 3.45007 26.1597 5.76699 26.4179C7.48791 26.6097 9.25487 26.7745 11.0564 26.7745C12.8579 26.7745 14.6249 26.6097 16.3458 26.4179C18.6627 26.1597 20.5271 24.2953 20.7751 21.9773C20.9323 20.5071 21.0687 19.0034 21.1039 17.4732" stroke="url(#paint1_linear_0_4)" stroke-width="2" stroke-linecap="round" stroke-linejoin="round"/>
<path id="Intersect_2" d="M11.0567 26.7743C9.25517 26.7743 7.48821 26.6095 5.76727 26.4177C5.49831 26.3877 5.23543 26.3361 4.98047 26.2647C5.27597 24.8939 6.06755 23.5485 7.15113 22.6629C8.25321 21.7621 9.63283 21.2701 11.0562 21.2701C12.4796 21.2701 13.8592 21.7621 14.9613 22.6629C16.0634 23.5637 16.8202 24.8179 17.1034 26.2127C17.1034 26.2127 17.1027 26.2351 17.1022 26.2731C16.8569 26.3403 16.6043 26.3889 16.3461 26.4177C14.6252 26.6095 12.8582 26.7743 11.0567 26.7743Z" stroke="url(#paint2_linear_0_4)" stroke-width="2" stroke-linecap="round" stroke-linejoin="round"/>
<path id="Vector" d="M11.0422 18.1195C13.1117 18.1195 14.2758 16.9554 14.2758 14.8859C14.2758 12.8164 13.1117 11.6524 11.0422 11.6524C8.97269 11.6524 7.80859 12.8164 7.80859 14.8859C7.80859 16.9554 8.97269 18.1195 11.0422 18.1195Z" stroke="url(#paint3_linear_0_4)" stroke-width="2" stroke-linecap="round" stroke-linejoin="round"/>
</g>
<defs>
<linearGradient id="paint0_linear_0_4" x1="20.5254" y1="1" x2="20.5254" y2="13.5" gradientUnits="userSpaceOnUse">
<stop stop-color="#618385"/>
<stop offset="1" stop-color="#00373A"/>
</linearGradient>
<linearGradient id="paint1_linear_0_4" x1="11.052" y1="6.68017" x2="11.052" y2="26.7745" gradientUnits="userSpaceOnUse">
<stop stop-color="#618385"/>
<stop offset="1" stop-color="#00373A"/>
</linearGradient>
<linearGradient id="paint2_linear_0_4" x1="11.042" y1="21.2701" x2="11.042" y2="26.7743" gradientUnits="userSpaceOnUse">
<stop stop-color="#618385"/>
<stop offset="1" stop-color="#00373A"/>
</linearGradient>
<linearGradient id="paint3_linear_0_4" x1="11.0422" y1="11.6524" x2="11.0422" y2="18.1195" gradientUnits="userSpaceOnUse">
<stop stop-color="#618385"/>
<stop offset="1" stop-color="#00373A"/>
</linearGradient>
</defs>
</svg>
