<svg preserveAspectRatio="none" width="100%" height="100%" overflow="visible" style="display: block;" viewBox="0 0 25.2267 29.9088" fill="none" xmlns="http://www.w3.org/2000/svg">
<g id="padlock-square-1--combination-combo-lock-locked-padlock-secure-security-shield-keyhole">
<path id="Intersect" d="M1.12324 23.0591C1.48875 26.2835 4.21545 28.7976 7.45851 28.9126C9.10358 28.9711 10.7927 29.0012 12.6133 29.0012C14.4339 29.0012 16.1231 28.9711 17.7681 28.9126C21.0112 28.7976 23.7379 26.2835 24.1033 23.0591C24.2307 21.9351 24.3191 20.7933 24.3191 19.6366C24.3191 18.48 24.2307 17.3381 24.1033 16.2142C23.7379 12.9898 21.0112 10.4757 17.7681 10.3606C16.1231 10.3022 14.4339 10.2721 12.6133 10.2721C10.7927 10.2721 9.10358 10.3022 7.45851 10.3606C4.21545 10.4757 1.48875 12.9898 1.12324 16.2142C0.995853 17.3381 0.90764 18.48 0.90764 19.6366C0.90764 20.7933 0.995853 21.9351 1.12324 23.0591Z" stroke="var(--stroke-0, #FF8A3B)" stroke-width="1.81528" stroke-linecap="round" stroke-linejoin="round"/>
<path id="Vector" d="M19.1687 10.2722V7.46282C19.1687 5.72428 18.4781 4.05693 17.2488 2.8276C16.0194 1.59827 14.3521 0.90764 12.6135 0.90764C10.875 0.90764 9.20768 1.59827 7.97835 2.8276C6.74902 4.05693 6.05839 5.72428 6.05839 7.46282V10.2722" stroke="var(--stroke-0, #FF8A3B)" stroke-width="1.81528" stroke-linecap="round" stroke-linejoin="round"/>
<path id="Vector_2" d="M12.6132 18.3257V20.573" stroke="var(--stroke-0, #FF8A3B)" stroke-width="1.81528" stroke-linecap="round" stroke-linejoin="round"/>
</g>
</svg>
