<svg width="227" height="218" viewBox="0 0 227 218" fill="none" xmlns="http://www.w3.org/2000/svg">
<circle opacity="0.4" cx="114" cy="113" r="112.5" stroke="#D3CAF0"/>
<circle opacity="0.4" cx="113.5" cy="113" r="64.5" stroke="#D3CAF0"/>
<path d="M207.555 71.0167C209.573 70.1162 210.485 67.7472 209.51 65.7649C203.806 54.1725 196.046 43.6985 186.595 34.8579C176.169 25.1056 163.897 17.5382 150.502 12.6015C137.107 7.66468 122.859 5.45833 108.598 6.11235C94.3371 6.76636 80.3512 10.2675 67.4641 16.4096C54.5771 22.5517 43.0494 31.2106 33.56 41.8762C24.0707 52.5417 16.8116 64.9984 12.2103 78.5125C7.60894 92.0266 5.75844 106.325 6.76776 120.565C7.68272 133.474 10.9311 146.099 16.3439 157.83C17.2694 159.835 19.6842 160.619 21.6541 159.619L47.953 146.27C49.9229 145.27 50.6979 142.867 49.813 140.843C46.6409 133.587 44.728 125.833 44.1667 117.914C43.5111 108.664 44.7132 99.3756 47.7022 90.5969C50.6912 81.8182 55.4067 73.7263 61.571 66.798C67.7353 59.8696 75.2237 54.2448 83.5951 50.2549C91.9665 46.265 101.052 43.9906 110.316 43.5658C119.58 43.1409 128.835 44.5742 137.536 47.7811C146.238 50.988 154.21 55.9038 160.982 62.2389C166.78 67.6619 171.598 74.0311 175.236 81.0647C176.251 83.0269 178.606 83.9386 180.624 83.0381L207.555 71.0167Z" fill="#4E33A0"/>
<mask id="path-4-inside-1_67_866" fill="white">
<path d="M216.255 105.897C218.459 105.745 220.377 107.409 220.447 109.617C221.171 132.505 214.531 155.064 201.448 173.944C187.604 193.922 167.371 208.591 144.078 215.538C120.786 222.484 95.8229 221.293 73.2977 212.16C52.0103 203.53 34.0993 188.293 22.1688 168.746C21.0179 166.86 21.7114 164.418 23.6388 163.338L49.3694 148.925C51.2968 147.845 53.7248 148.54 54.9135 150.402C62.6548 162.528 73.9909 171.984 87.3846 177.415C102.017 183.347 118.233 184.121 133.364 179.608C148.494 175.096 161.638 165.567 170.631 152.589C178.863 140.71 183.168 126.589 183.003 112.203C182.977 109.994 184.628 108.083 186.832 107.931L216.255 105.897Z"/>
</mask>
<path d="M216.255 105.897C218.459 105.745 220.377 107.409 220.447 109.617C221.171 132.505 214.531 155.064 201.448 173.944C187.604 193.922 167.371 208.591 144.078 215.538C120.786 222.484 95.8229 221.293 73.2977 212.16C52.0103 203.53 34.0993 188.293 22.1688 168.746C21.0179 166.86 21.7114 164.418 23.6388 163.338L49.3694 148.925C51.2968 147.845 53.7248 148.54 54.9135 150.402C62.6548 162.528 73.9909 171.984 87.3846 177.415C102.017 183.347 118.233 184.121 133.364 179.608C148.494 175.096 161.638 165.567 170.631 152.589C178.863 140.71 183.168 126.589 183.003 112.203C182.977 109.994 184.628 108.083 186.832 107.931L216.255 105.897Z" fill="#00DC46" stroke="#9B85DC" stroke-width="68" mask="url(#path-4-inside-1_67_866)"/>
<mask id="path-5-inside-2_67_866" fill="white">
<path d="M215.929 102.173C218.126 101.941 219.727 99.9706 219.413 97.7839C218.358 90.4444 216.544 83.2343 213.998 76.27C213.24 74.1951 210.897 73.2167 208.852 74.0521L181.551 85.2038C179.506 86.0391 178.537 88.371 179.253 90.4608C180.511 94.1315 181.46 97.9012 182.089 101.73C182.447 103.91 184.405 105.506 186.601 105.273L215.929 102.173Z"/>
</mask>
<path d="M215.929 102.173C218.126 101.941 219.727 99.9706 219.413 97.7839C218.358 90.4444 216.544 83.2343 213.998 76.27C213.24 74.1951 210.897 73.2167 208.852 74.0521L181.551 85.2038C179.506 86.0391 178.537 88.371 179.253 90.4608C180.511 94.1315 181.46 97.9012 182.089 101.73C182.447 103.91 184.405 105.506 186.601 105.273L215.929 102.173Z" stroke="#D3CAF0" stroke-width="40" mask="url(#path-5-inside-2_67_866)"/>
<path d="M88.3313 115L87.2906 112.309H81.6094L80.55 115H78.1688L83.5313 101.556H85.4156L90.7688 115H88.3313ZM82.4344 110.162H86.4469L84.45 105.016L82.4344 110.162ZM100.5 105.616L96.5629 115H94.716L90.7879 105.616H93.1035L95.6441 112.141L98.1566 105.616H100.5ZM109.848 110.106C109.848 110.537 109.829 110.837 109.791 111.006H102.591C102.729 111.706 103.035 112.256 103.51 112.656C103.985 113.056 104.595 113.256 105.338 113.256C105.913 113.256 106.407 113.131 106.82 112.881C107.238 112.631 107.495 112.306 107.588 111.906H109.735C109.56 112.894 109.066 113.687 108.254 114.287C107.441 114.887 106.457 115.188 105.301 115.188C104.395 115.188 103.57 114.975 102.826 114.55C102.082 114.119 101.495 113.525 101.063 112.769C100.638 112.012 100.426 111.175 100.426 110.256C100.426 109.362 100.638 108.547 101.063 107.809C101.495 107.066 102.079 106.481 102.816 106.056C103.56 105.631 104.376 105.419 105.263 105.419C106.101 105.419 106.866 105.616 107.56 106.009C108.26 106.403 108.816 106.962 109.229 107.687C109.641 108.406 109.848 109.212 109.848 110.106ZM102.648 109.178H107.523C107.429 108.634 107.166 108.197 106.735 107.866C106.31 107.528 105.779 107.359 105.141 107.359C104.51 107.359 103.976 107.519 103.538 107.837C103.101 108.156 102.804 108.603 102.648 109.178ZM115.773 105.419C116.223 105.419 116.564 105.469 116.795 105.569V107.584C116.345 107.459 115.948 107.397 115.604 107.397C115.217 107.397 114.807 107.544 114.376 107.837C113.945 108.125 113.611 108.516 113.373 109.009V115H111.245V105.616H113.373V106.9C113.604 106.462 113.951 106.106 114.414 105.831C114.876 105.556 115.329 105.419 115.773 105.419ZM124.295 105.616H126.433V115H124.295V113.734C124.045 114.159 123.639 114.509 123.077 114.784C122.52 115.053 121.93 115.188 121.305 115.188C120.042 115.188 118.973 114.716 118.098 113.772C117.23 112.828 116.795 111.669 116.795 110.294C116.795 108.931 117.23 107.778 118.098 106.834C118.973 105.891 120.042 105.419 121.305 105.419C121.923 105.419 122.514 105.556 123.077 105.831C123.639 106.106 124.045 106.456 124.295 106.881V105.616ZM121.745 113.153C122.27 113.153 122.767 113.022 123.236 112.759C123.711 112.497 124.064 112.162 124.295 111.756V108.878C124.064 108.459 123.714 108.119 123.245 107.856C122.777 107.587 122.277 107.453 121.745 107.453C120.939 107.453 120.264 107.725 119.72 108.269C119.177 108.806 118.905 109.481 118.905 110.294C118.905 111.106 119.177 111.787 119.72 112.337C120.264 112.881 120.939 113.153 121.745 113.153ZM135.33 105.587H137.468V114.653C137.468 115.947 137.024 116.981 136.136 117.756C135.249 118.531 134.118 118.919 132.743 118.919C132.343 118.919 131.943 118.884 131.543 118.816C131.149 118.747 130.743 118.625 130.324 118.45C129.911 118.275 129.543 118.056 129.218 117.794C128.899 117.538 128.63 117.2 128.411 116.781C128.199 116.363 128.08 115.891 128.055 115.366H130.211C130.236 115.872 130.483 116.269 130.952 116.556C131.421 116.85 131.993 116.997 132.668 116.997C133.418 116.997 134.049 116.778 134.561 116.341C135.074 115.903 135.33 115.328 135.33 114.616V113.556C135.08 113.962 134.674 114.303 134.111 114.578C133.549 114.847 132.958 114.981 132.339 114.981C131.077 114.981 130.008 114.519 129.133 113.594C128.264 112.662 127.83 111.525 127.83 110.181C127.83 108.844 128.264 107.716 129.133 106.797C130.008 105.878 131.077 105.419 132.339 105.419C132.964 105.419 133.555 105.553 134.111 105.822C134.674 106.091 135.08 106.431 135.33 106.844V105.587ZM132.78 112.984C133.305 112.984 133.802 112.859 134.271 112.609C134.746 112.353 135.099 112.025 135.33 111.625V108.775C135.099 108.369 134.749 108.037 134.28 107.781C133.811 107.525 133.311 107.397 132.78 107.397C131.974 107.397 131.299 107.662 130.755 108.194C130.211 108.725 129.939 109.387 129.939 110.181C129.939 110.987 130.211 111.656 130.755 112.187C131.299 112.719 131.974 112.984 132.78 112.984ZM148.287 110.106C148.287 110.537 148.268 110.837 148.23 111.006H141.03C141.168 111.706 141.474 112.256 141.949 112.656C142.424 113.056 143.034 113.256 143.777 113.256C144.352 113.256 144.846 113.131 145.259 112.881C145.677 112.631 145.934 112.306 146.027 111.906H148.174C147.999 112.894 147.505 113.687 146.693 114.287C145.88 114.887 144.896 115.188 143.74 115.188C142.834 115.188 142.009 114.975 141.265 114.55C140.521 114.119 139.934 113.525 139.502 112.769C139.077 112.012 138.865 111.175 138.865 110.256C138.865 109.362 139.077 108.547 139.502 107.809C139.934 107.066 140.518 106.481 141.255 106.056C141.999 105.631 142.815 105.419 143.702 105.419C144.54 105.419 145.305 105.616 145.999 106.009C146.699 106.403 147.255 106.962 147.668 107.687C148.08 108.406 148.287 109.212 148.287 110.106ZM141.087 109.178H145.962C145.868 108.634 145.605 108.197 145.174 107.866C144.749 107.528 144.218 107.359 143.58 107.359C142.949 107.359 142.415 107.519 141.977 107.837C141.54 108.156 141.243 108.603 141.087 109.178Z" fill="#00373A"/>
</svg>
