<svg preserveAspectRatio="none" width="100%" height="100%" overflow="visible" style="display: block;" viewBox="0 0 17.1833 17.1833" fill="none" xmlns="http://www.w3.org/2000/svg">
<g id="loader">
<path id="Ellipse 761" d="M17.1833 8.59163C17.1833 13.3367 13.3367 17.1833 8.59163 17.1833C3.84661 17.1833 0 13.3367 0 8.59163C0 3.84661 3.84661 0 8.59163 0C13.3367 0 17.1833 3.84661 17.1833 8.59163ZM2.48851 8.59163C2.48851 11.9623 5.22097 14.6948 8.59163 14.6948C11.9623 14.6948 14.6948 11.9623 14.6948 8.59163C14.6948 5.22097 11.9623 2.48851 8.59163 2.48851C5.22097 2.48851 2.48851 5.22097 2.48851 8.59163Z" fill="var(--fill-0, #001213)"/>
<path id="Ellipse 760" d="M8.59163 1.24425C8.59163 0.557072 8.03168 -0.00923869 7.35169 0.0899372C6.03232 0.282366 4.76987 0.780203 3.6679 1.55082C2.56593 2.32144 1.66511 3.33642 1.03163 4.50964C0.705142 5.11431 1.04492 5.83459 1.69038 6.0704V6.0704C2.33584 6.3062 3.04021 5.96443 3.40182 5.38008C3.83613 4.67827 4.41062 4.06806 5.09403 3.59015C5.77743 3.11223 6.54773 2.78201 7.35596 2.61491C8.02891 2.47577 8.59163 1.93144 8.59163 1.24425V1.24425Z" fill="var(--fill-0, #FF8A3B)"/>
</g>
</svg>
