<svg preserveAspectRatio="none" width="100%" height="100%" overflow="visible" style="display: block;" viewBox="0 0 814.254 483" fill="none" xmlns="http://www.w3.org/2000/svg">
<g id="Frame 48096519">
<path id="Rectangle 1006" opacity="0.12" d="M705.253 113.663C705.253 110.617 708.618 108.772 711.186 110.411L808.907 172.775C812.237 174.901 814.253 178.579 814.253 182.53V369.337C814.253 372.383 810.889 374.228 808.321 372.589L707.036 307.95C705.925 307.242 705.253 306.016 705.253 304.699L705.253 113.663Z" fill="var(--fill-0, #315D5F)"/>
<path id="Rectangle 1004" opacity="0.22" d="M634.828 95.5379C634.828 92.4917 638.193 90.6474 640.761 92.2861L738.481 154.65C741.812 156.776 743.828 160.454 743.828 164.405V387.462C743.828 390.508 740.463 392.353 737.896 390.714L636.61 326.075C635.5 325.367 634.828 324.141 634.828 322.824L634.828 95.5379Z" fill="var(--fill-0, #315D5F)"/>
<path id="Rectangle 1003" opacity="0.44" d="M565.403 83.0729C565.403 80.0195 568.782 78.1765 571.349 79.83L668.097 142.145C671.404 144.275 673.403 147.939 673.403 151.874V399.927C673.403 402.98 670.024 404.823 667.457 403.17L567.172 338.577C566.069 337.867 565.403 336.645 565.403 335.334V83.0729Z" fill="var(--fill-0, #315D5F)"/>
<path id="Rectangle 1002" opacity="0.55" d="M493.978 83.0035C493.978 79.9645 497.328 78.1189 499.897 79.7432L598.59 142.155C601.944 144.276 603.978 147.968 603.978 151.936V399.997C603.978 403.035 600.627 404.881 598.058 403.257L495.773 338.573C494.655 337.866 493.978 336.636 493.978 335.313V83.0035Z" fill="var(--fill-0, #315D5F)"/>
<path id="Rectangle 1001" d="M423.552 83.0378C423.552 79.9917 426.917 78.1474 429.485 79.7861L527.205 142.15C530.536 144.276 532.552 147.954 532.552 151.905V399.962C532.552 403.008 529.187 404.853 526.62 403.214L425.335 338.575C424.224 337.867 423.552 336.641 423.552 335.324V83.0378Z" fill="var(--fill-0, #315D5F)"/>
<path id="Rectangle 994" d="M352.609 6.98926C352.609 4.33311 355.535 2.71819 357.783 4.13379L456.466 66.3086C459.689 68.3393 461.644 71.8829 461.644 75.6924L461.645 476.011C461.645 478.667 458.718 480.282 456.47 478.866L354.185 414.421C353.204 413.803 352.609 412.725 352.609 411.565V6.98926Z" fill="var(--fill-0, #00373A)" stroke="var(--stroke-0, #00B63A)" stroke-width="0.964367"/>
<path id="Rectangle 1000" opacity="0.66" d="M281.701 83.0378C281.701 79.9917 285.066 78.1474 287.634 79.7861L385.354 142.15C388.685 144.276 390.701 147.954 390.701 151.905V399.962C390.701 403.008 387.336 404.853 384.769 403.214L283.484 338.575C282.373 337.867 281.701 336.641 281.701 335.324V83.0378Z" fill="var(--fill-0, #315D5F)"/>
<path id="Rectangle 999" opacity="0.55" d="M210.276 83.0035C210.276 79.9645 213.627 78.1189 216.195 79.7432L314.889 142.155C318.243 144.276 320.276 147.968 320.276 151.936V399.997C320.276 403.035 316.925 404.881 314.357 403.257L212.072 338.573C210.954 337.866 210.276 336.636 210.276 335.313V83.0035Z" fill="var(--fill-0, #315D5F)"/>
<path id="Rectangle 991" opacity="0.44" d="M140.851 95.5729C140.851 92.5195 144.23 90.6765 146.797 92.33L243.545 154.645C246.852 156.775 248.851 160.439 248.851 164.374V387.427C248.851 390.48 245.471 392.323 242.904 390.67L142.619 326.077C141.517 325.367 140.851 324.145 140.851 322.834V95.5729Z" fill="var(--fill-0, #315D5F)"/>
<path id="Rectangle 990" opacity="0.22" d="M70.4253 113.663C70.4253 110.617 73.7902 108.772 76.358 110.411L174.078 172.775C177.409 174.901 179.425 178.579 179.425 182.53V369.337C179.425 372.383 176.06 374.228 173.493 372.589L72.2076 307.95C71.0973 307.242 70.4253 306.016 70.4253 304.699L70.4253 113.663Z" fill="var(--fill-0, #00373A)"/>
<g id="Rectangle 1005" opacity="0.12">
<path d="M0.482422 83.0381C0.482422 80.3729 3.42608 78.7589 5.67285 80.1924L103.394 142.557C106.586 144.594 108.518 148.119 108.518 151.905V399.962C108.518 402.627 105.574 404.241 103.327 402.808L2.04199 338.169C1.07051 337.549 0.482422 336.476 0.482422 335.323V83.0381Z" fill="var(--fill-0, #315D5F)"/>
<path d="M0.482422 83.0381C0.482422 80.3729 3.42608 78.7589 5.67285 80.1924L103.394 142.557C106.586 144.594 108.518 148.119 108.518 151.905V399.962C108.518 402.627 105.574 404.241 103.327 402.808L2.04199 338.169C1.07051 337.549 0.482422 336.476 0.482422 335.323V83.0381Z" fill="url(#paint0_linear_0_4)" fill-opacity="0.16"/>
<path d="M0.482422 83.0381C0.482422 80.3729 3.42608 78.7589 5.67285 80.1924L103.394 142.557C106.586 144.594 108.518 148.119 108.518 151.905V399.962C108.518 402.627 105.574 404.241 103.327 402.808L2.04199 338.169C1.07051 337.549 0.482422 336.476 0.482422 335.323V83.0381Z" stroke="var(--stroke-0, #00373A)" stroke-width="0.964367"/>
</g>
</g>
<defs>
<linearGradient id="paint0_linear_0_4" x1="13.2088" y1="120.058" x2="116.413" y2="133.847" gradientUnits="userSpaceOnUse">
<stop stop-color="#00DC46"/>
<stop offset="1" stop-color="#021307"/>
</linearGradient>
</defs>
</svg>
