<svg width="208" height="49" viewBox="0 0 208 49" fill="none" xmlns="http://www.w3.org/2000/svg">
<path d="M2.29872 37.1402C3.44471 41.8917 6.57796 45.5545 11.2237 47.428C13.1845 48.2196 15.3484 48.5987 17.6514 48.5543C17.987 48.5477 18.3337 48.5322 18.6826 48.5078C24.545 48.0887 30.1579 45.1687 33.8366 42.7919C38.4735 39.7964 42.7704 35.9141 45.7248 32.0673C45.9456 34.1115 46.1642 36.1602 46.2856 37.597C46.4468 39.4838 47.9218 41.0137 49.7898 41.2332C50.1144 41.2709 50.4456 41.2709 50.7747 41.2265C52.8657 40.9582 54.4135 38.9761 54.2259 36.8099C54.0801 35.1314 53.8328 32.8344 53.5921 30.6128L52.6758 20.6864C52.5367 18.9681 51.6225 17.4582 50.1696 16.5403C48.7167 15.6246 46.9635 15.4538 45.3605 16.0747C34.7485 20.1898 26.2629 22.2407 26.1944 22.2584C24.0283 22.6331 22.5688 24.7084 22.9419 26.8835C23.3151 29.0586 25.3797 30.5263 27.548 30.1516C27.8063 30.1073 32.7391 28.89 39.911 26.5088C37.5836 29.7681 33.6732 33.3688 29.5198 36.0516C23.3924 40.0115 17.8082 41.446 14.198 39.9893C12.0032 39.1047 10.5746 37.4861 10.0689 35.3088C9.35129 32.2247 10.4377 28.3513 13.0851 24.2871C14.8626 21.5578 17.1104 19.1721 19.6608 17.1522C22.6549 14.7776 27.23 11.8221 31.8405 11.4296C32.9158 11.3387 33.9425 10.882 34.6535 10.0683C35.3667 9.25236 35.7156 8.20362 35.6361 7.12606C35.4727 4.93104 33.5517 3.27036 31.3591 3.43222C24.1652 3.97543 17.5852 8.49851 13.7917 11.6469C10.5414 14.343 7.73719 17.5469 5.59537 21.1942C3.10908 25.4312 0.876727 31.2403 2.29872 37.1402Z" fill="#00DC46"/>
<path d="M54.281 0.237243C50.2491 0.312627 47.0297 3.66724 47.1048 7.71584C47.1799 11.7644 50.5207 14.9971 54.5526 14.9217C58.5845 14.8463 61.8039 11.4917 61.7288 7.44313C61.6538 3.39453 58.313 0.161858 54.281 0.237243Z" fill="#00DC46"/>
<path d="M105.455 19.9614C104.581 19.9614 103.675 20.2363 102.768 20.7795C101.984 21.2474 101.359 21.846 100.911 22.5555V20.345H96.5742V38.8164H100.909L100.931 27.0343C101.379 26.1252 102.01 25.3913 102.808 24.8525C103.62 24.3005 104.4 24.0211 105.128 24.0211C105.744 24.0211 106.462 24.1297 107.259 24.3426L107.539 24.418V20.2829L107.396 20.2275C106.943 20.0501 106.29 19.9614 105.455 19.9614Z" fill="#F9F7E8"/>
<path d="M143.354 22.5533C142.853 21.8482 142.111 21.2496 141.146 20.7751C140.046 20.2363 138.876 19.9614 137.666 19.9614C135.2 19.9614 133.087 20.8993 131.384 22.7506C129.684 24.5976 128.823 26.8879 128.823 29.553C128.823 32.2447 129.684 34.5439 131.384 36.393C133.087 38.2444 135.2 39.1823 137.666 39.1823C138.887 39.1823 140.062 38.9118 141.155 38.3774C142.115 37.9074 142.855 37.3132 143.354 36.6081V38.8164H147.708V20.345H143.354V22.5533ZM143.35 26.8214L143.352 32.371C142.915 33.1293 142.246 33.7634 141.362 34.2579C140.468 34.7567 139.512 35.0095 138.516 35.0095C136.99 35.0095 135.696 34.484 134.668 33.4442C133.639 32.4065 133.117 31.0962 133.117 29.5508C133.117 28.0076 133.639 26.7039 134.668 25.6773C135.696 24.6508 136.99 24.1297 138.516 24.1297C139.523 24.1297 140.484 24.3847 141.369 24.8902C142.239 25.3869 142.901 26.0299 143.35 26.8214Z" fill="#F9F7E8"/>
<path d="M168.824 11.862C168.071 11.862 167.418 12.1369 166.879 12.6779C166.331 13.2256 166.066 13.8597 166.066 14.6135C166.066 15.3829 166.34 16.0458 166.879 16.5868C167.418 17.1278 168.071 17.4028 168.824 17.4028C169.577 17.4028 170.235 17.1278 170.778 16.5868C171.324 16.0458 171.6 15.3829 171.6 14.6135C171.6 13.8708 171.324 13.2189 170.778 12.6779C170.235 12.1369 169.577 11.862 168.824 11.862Z" fill="#F9F7E8"/>
<path d="M158.106 15.4361H153.734V20.3428H150.283V24.5133H153.734V31.83C153.734 34.1226 154.355 35.9163 155.583 37.158C156.808 38.4018 158.477 39.0315 160.544 39.0315C161.352 39.0315 162.081 38.965 162.708 38.8319L162.885 38.7943V34.7301L162.613 34.7878C162.275 34.8609 161.878 34.8986 161.434 34.8986C160.398 34.8986 159.575 34.6392 158.987 34.1293C158.402 33.6238 158.106 32.8256 158.106 31.7569V24.5133H166.63V38.8142H170.966V20.3428H158.106V15.4361Z" fill="#F9F7E8"/>
<path d="M201.517 20.3428L196.721 32.5994L191.907 20.3428H181.532V19.0257C181.532 17.9571 181.825 17.1589 182.404 16.6533C182.987 16.1434 183.806 15.8862 184.841 15.8862C185.294 15.8862 185.678 15.9217 185.981 15.9904L186.255 16.0547V11.9906L186.08 11.9507C185.446 11.8066 184.729 11.7334 183.949 11.7334C181.883 11.7334 180.216 12.3675 178.997 13.6158C177.776 14.8641 177.157 16.66 177.157 18.9526V20.3428H173.688V24.5133H177.157V38.8142H181.529V24.5133H188.962L194.48 37.7411L191.163 45.2352H195.849L206.218 20.3428H201.517Z" fill="#F9F7E8"/>
<path d="M80.8703 28.1273H88.4263V31.3977C87.7043 32.4575 86.704 33.2823 85.4565 33.8499C84.1935 34.4242 82.7229 34.7168 81.0845 34.7168C78.5585 34.7168 76.4365 33.841 74.776 32.1138C73.1134 30.3844 72.2721 28.1672 72.2721 25.5199C72.2721 22.9214 73.078 20.7529 74.6678 19.0723C76.2577 17.3939 78.3067 16.5425 80.7577 16.5425C82.4358 16.5425 83.9572 16.9748 85.2776 17.8307C86.5406 18.6466 87.4062 19.7485 87.85 21.1033L87.8809 21.1942H93.0301L93.0014 21.0367C92.7806 19.8638 92.3214 18.7309 91.6369 17.6733C90.9192 16.5624 90.0139 15.5824 88.943 14.7643C87.8721 13.9461 86.6135 13.2876 85.1981 12.8043C83.7828 12.3232 82.2901 12.0793 80.7577 12.0793C78.3045 12.0793 76.0391 12.669 74.0297 13.8353C72.0182 15.0015 70.4173 16.629 69.2757 18.6732C68.1342 20.7175 67.5557 23.0211 67.5557 25.5199C67.5557 28.0187 68.1386 30.3379 69.2868 32.4132C70.4328 34.4862 72.038 36.1447 74.0584 37.342C76.0766 38.5371 78.3443 39.1446 80.7974 39.1446C83.4891 39.1446 85.9577 38.6036 88.1304 37.5371C90.2966 36.4751 91.9372 35.0006 93.0213 33.1338L93.039 33.1027V23.7373H80.8747V28.1273H80.8703Z" fill="#F9F7E8"/>
<path d="M121.936 33.1227C121.697 33.6659 121.271 34.1271 120.66 34.4951C119.876 34.9696 118.924 35.209 117.835 35.209C116.427 35.209 115.256 34.8255 114.362 34.0672C113.748 33.5484 113.274 32.8766 112.953 32.0673L112.832 32.1161L112.942 32.0407C112.911 31.9586 112.88 31.8766 112.852 31.7924C112.834 31.7391 112.816 31.6837 112.799 31.6305C112.774 31.5529 112.75 31.4753 112.724 31.3711L112.708 31.3134C112.686 31.2248 112.662 31.1383 112.642 31.0474H126.555L126.588 30.8611C126.65 30.5152 126.681 29.9543 126.681 29.1894C126.681 27.44 126.272 25.837 125.469 24.4202C124.663 23.0056 123.565 21.8948 122.205 21.1254C120.845 20.3538 119.328 19.9614 117.694 19.9614C115.965 19.9614 114.355 20.3827 112.909 21.2163C111.465 22.05 110.308 23.2074 109.473 24.6574C108.639 26.1075 108.215 27.7305 108.215 29.482C108.215 31.2802 108.639 32.9431 109.473 34.4219C110.308 35.903 111.467 37.0804 112.918 37.9185C114.369 38.7566 116 39.1823 117.767 39.1823C120.019 39.1823 121.967 38.5858 123.552 37.4107C125.025 36.3176 125.968 34.8743 126.372 33.1249H121.936V33.1227ZM113.503 25.7682C113.764 25.4157 114.071 25.1097 114.411 24.8592C115.236 24.2561 116.261 23.9501 117.456 23.9501C118.661 23.9501 119.681 24.2716 120.487 24.9035C121.258 25.5088 121.748 26.307 121.942 27.2759H112.761C112.938 26.6507 113.192 26.1341 113.503 25.7682Z" fill="#F9F7E8"/>
</svg>
