<svg width="58" height="13" viewBox="0 0 58 13" fill="none" xmlns="http://www.w3.org/2000/svg">
<path d="M2.1377 0.267578H55.582C56.6151 0.267578 57.4531 1.10465 57.4531 2.1377V10.6885C57.4531 11.7216 56.6151 12.5596 55.582 12.5596H2.1377C1.10465 12.5595 0.267578 11.7215 0.267578 10.6885V2.1377C0.267623 1.10468 1.10468 0.267623 2.1377 0.267578Z" fill="#FAFAFA"/>
<path d="M2.1377 0.267578H55.582C56.6151 0.267578 57.4531 1.10465 57.4531 2.1377V10.6885C57.4531 11.7216 56.6151 12.5596 55.582 12.5596H2.1377C1.10465 12.5595 0.267578 11.7215 0.267578 10.6885V2.1377C0.267623 1.10468 1.10468 0.267623 2.1377 0.267578Z" stroke="#F4F4F5" stroke-width="0.534444"/>
<path d="M4.98798 6.05706H6.59132C7.08325 6.05706 7.48206 5.65826 7.48206 5.16632C7.48206 4.67438 7.08325 4.27558 6.59132 4.27558H4.98798V6.05706ZM8.55095 7.6604C8.55095 8.5459 7.83312 9.26373 6.94761 9.26373H4.27539V3.56299H6.59132C7.47682 3.56299 8.19465 4.28083 8.19465 5.16632C8.19465 5.59541 8.02609 5.98513 7.75156 6.27291C8.22953 6.55043 8.55095 7.06787 8.55095 7.6604ZM4.98798 6.76965V8.55114H6.94761C7.43955 8.55114 7.83835 8.15233 7.83835 7.6604C7.83835 7.16846 7.43955 6.76965 6.94761 6.76965H4.98798Z" fill="#A1A1AA"/>
<path d="M22.4466 9.26373H19.5962V8.55114H20.6389L21.3928 4.27558H20.3088V3.56299H23.1592V4.27558H22.1164L21.3625 8.55114H22.4466V9.26373Z" fill="#A1A1AA"/>
<path d="M34.9172 3.56291H39.5491V4.27551H34.9172V3.56291ZM33.6702 4.45365C33.375 4.45365 33.1357 4.21438 33.1357 3.91921C33.1357 3.62404 33.375 3.38477 33.6702 3.38477C33.9654 3.38477 34.2046 3.62404 34.2046 3.91921C34.2046 4.21438 33.9654 4.45365 33.6702 4.45365ZM33.6702 6.94773C33.375 6.94773 33.1357 6.70844 33.1357 6.41328C33.1357 6.11813 33.375 5.87884 33.6702 5.87884C33.9654 5.87884 34.2046 6.11813 34.2046 6.41328C34.2046 6.70844 33.9654 6.94773 33.6702 6.94773ZM33.6702 9.40617C33.375 9.40617 33.1357 9.16688 33.1357 8.87173C33.1357 8.57657 33.375 8.33728 33.6702 8.33728C33.9654 8.33728 34.2046 8.57657 34.2046 8.87173C34.2046 9.16688 33.9654 9.40617 33.6702 9.40617ZM34.9172 6.05699H39.5491V6.76958H34.9172V6.05699ZM34.9172 8.55106H39.5491V9.26365H34.9172V8.55106Z" fill="#A1A1AA"/>
<path d="M49.0801 3.38477H48.7121L48.1893 3.52485V4.07805L48.5456 3.98257L48.5456 5.16625H48.1002V5.70069H49.5254V5.16625H49.0801V3.38477ZM50.5943 3.56291H54.5135V4.27551H50.5943V3.56291ZM50.5943 6.05699H54.5135V6.76958H50.5943V6.05699ZM50.5943 8.55106H54.5135V9.26365H50.5943V8.55106ZM48.0557 7.70486C48.0557 7.28671 48.3946 6.94773 48.8128 6.94773C49.2309 6.94773 49.5699 7.28671 49.5699 7.70486C49.5699 7.87788 49.5118 8.03753 49.414 8.16509L49.4123 8.16729L48.9253 8.72921H49.5254V9.26365H48.1002L48.1001 8.8641L48.9809 7.85094C49.0149 7.81182 49.0355 7.76083 49.0355 7.70486C49.0355 7.58186 48.9358 7.48217 48.8128 7.48217C48.6966 7.48217 48.6011 7.57128 48.591 7.68483L48.5866 7.79393H48.0557V7.70486Z" fill="#A1A1AA"/>
</svg>
