<svg preserveAspectRatio="none" width="100%" height="100%" overflow="visible" style="display: block;" viewBox="0 0 69.887 84.3511" fill="none" xmlns="http://www.w3.org/2000/svg">
<g id="Ellipse 368">
<mask id="path-1-inside-1_0_127" fill="white">
<path d="M8.07562 82.1048C8.66728 83.854 10.5677 84.7983 12.2936 84.1417C28.7766 77.8707 43.0638 66.855 53.327 52.4523C63.5903 38.0496 69.3387 20.9492 69.8854 3.32202C69.9427 1.47633 68.4297 -0.011687 66.5832 7.28921e-05L41.9325 0.157063C40.0859 0.168823 38.6086 1.67652 38.5142 3.52068C37.949 14.5568 34.2455 25.2289 27.8057 34.2659C21.366 43.3029 12.4875 50.2873 2.24049 54.4242C0.528188 55.1155 -0.414651 57.004 0.177018 58.7533L8.07562 82.1048Z"/>
</mask>
<path d="M8.07562 82.1048C8.66728 83.854 10.5677 84.7983 12.2936 84.1417C28.7766 77.8707 43.0638 66.855 53.327 52.4523C63.5903 38.0496 69.3387 20.9492 69.8854 3.32202C69.9427 1.47633 68.4297 -0.011687 66.5832 7.28921e-05L41.9325 0.157063C40.0859 0.168823 38.6086 1.67652 38.5142 3.52068C37.949 14.5568 34.2455 25.2289 27.8057 34.2659C21.366 43.3029 12.4875 50.2873 2.24049 54.4242C0.528188 55.1155 -0.414651 57.004 0.177018 58.7533L8.07562 82.1048Z" stroke="var(--stroke-0, #7E62D2)" stroke-width="33.4352" mask="url(#path-1-inside-1_0_127)"/>
</g>
</svg>
