<svg width="77" height="23" viewBox="0 0 77 23" fill="none" xmlns="http://www.w3.org/2000/svg">
<path d="M1.72761 15.4921C2.09561 17.0116 3.10175 18.183 4.59359 18.7821C5.22322 19.0353 5.91809 19.1565 6.65763 19.1423C6.7654 19.1402 6.87673 19.1352 6.98876 19.1274C8.87128 18.9934 10.6737 18.0596 11.855 17.2995C13.344 16.3416 14.7238 15.1 15.6725 13.8698C15.7434 14.5236 15.8136 15.1787 15.8526 15.6382C15.9043 16.2416 16.378 16.7309 16.9778 16.8011C17.0821 16.8131 17.1884 16.8131 17.2941 16.7989C17.9655 16.7131 18.4626 16.0792 18.4023 15.3865C18.3555 14.8497 18.2761 14.1152 18.1988 13.4047L17.9046 10.2303C17.8599 9.68078 17.5663 9.19792 17.0998 8.90437C16.6332 8.61153 16.0703 8.55694 15.5555 8.75547C12.1478 10.0715 9.42292 10.7273 9.40094 10.733C8.70536 10.8528 8.23668 11.5165 8.35651 12.2121C8.47634 12.9077 9.1393 13.3771 9.83559 13.2572C9.91855 13.243 11.5026 12.8538 13.8056 12.0923C13.0582 13.1346 11.8025 14.2861 10.4688 15.144C8.50116 16.4104 6.70797 16.8691 5.54868 16.4033C4.84388 16.1204 4.38513 15.6028 4.22276 14.9065C3.99231 13.9202 4.34117 12.6815 5.19132 11.3818C5.7621 10.5089 6.48391 9.74601 7.30286 9.10007C8.26433 8.34068 9.73348 7.39551 11.214 7.27001C11.5593 7.24094 11.889 7.09488 12.1173 6.83465C12.3463 6.57372 12.4584 6.23834 12.4328 5.89375C12.3804 5.19179 11.7635 4.66071 11.0594 4.71247C8.74932 4.88619 6.63636 6.33265 5.41821 7.3395C4.37449 8.2017 3.474 9.22628 2.78622 10.3927C1.98783 11.7477 1.27098 13.6054 1.72761 15.4921Z" fill="#00DC46"/>
<path d="M18.4205 3.69133C17.1258 3.71544 16.092 4.78823 16.1161 6.08296C16.1402 7.37768 17.213 8.41147 18.5078 8.38737C19.8025 8.36326 20.8363 7.29047 20.8122 5.99574C20.7881 4.70102 19.7153 3.66722 18.4205 3.69133Z" fill="#00DC46"/>
<path d="M30.1054 6.9697V5.7855H33.508V8.40211C33.2046 8.92612 32.7444 9.33981 32.1273 9.64319C31.5102 9.94312 30.819 10.0931 30.0536 10.0931C29.3573 10.0931 28.7229 9.92416 28.1507 9.58631C27.5784 9.24846 27.1285 8.7865 26.801 8.20043C26.4769 7.61437 26.3149 6.96797 26.3149 6.26125C26.3149 5.55452 26.4769 4.9133 26.801 4.33757C27.125 3.7584 27.5715 3.30506 28.1403 2.97755C28.7126 2.6466 29.3469 2.48112 30.0433 2.48112C30.4777 2.48112 30.8948 2.55007 31.2947 2.68797C31.6981 2.82242 32.0514 3.00513 32.3548 3.23611C32.6582 3.46709 32.9116 3.73944 33.115 4.05316C33.3184 4.36688 33.4494 4.69783 33.508 5.04602H32.1066C31.9825 4.63233 31.7291 4.3031 31.3464 4.05833C30.9638 3.81011 30.5294 3.686 30.0433 3.686C29.3331 3.686 28.7471 3.92905 28.2851 4.41514C27.8266 4.89778 27.5973 5.51315 27.5973 6.26125C27.5973 7.02313 27.8369 7.65401 28.3161 8.15389C28.7988 8.65033 29.4055 8.89854 30.1364 8.89854C30.6087 8.89854 31.0275 8.8158 31.393 8.65033C31.7584 8.48485 32.0463 8.24697 32.2566 7.9367V6.9697H30.1054ZM36.9729 4.71507C37.2211 4.71507 37.409 4.74265 37.5365 4.79781V5.90961C37.2883 5.84066 37.0694 5.80618 36.8798 5.80618C36.666 5.80618 36.4402 5.8872 36.2024 6.04923C35.9645 6.20781 35.7801 6.42328 35.6491 6.69562V10H34.4752V4.82366H35.6491V5.53211C35.7766 5.29079 35.9679 5.09429 36.2231 4.9426C36.4782 4.79091 36.7281 4.71507 36.9729 4.71507ZM42.7338 7.30065C42.7338 7.53852 42.7234 7.704 42.7027 7.79708H38.7313C38.8071 8.1832 38.976 8.48657 39.2381 8.70721C39.5001 8.92784 39.8362 9.03816 40.2464 9.03816C40.5636 9.03816 40.8359 8.96921 41.0635 8.83132C41.2945 8.69342 41.4358 8.51415 41.4875 8.29351H42.6717C42.5752 8.83821 42.3028 9.27604 41.8547 9.60699C41.4065 9.93795 40.8635 10.1034 40.2257 10.1034C39.7259 10.1034 39.2708 9.98621 38.8606 9.75178C38.4503 9.51391 38.1262 9.1864 37.8884 8.76926C37.6539 8.35212 37.5367 7.89016 37.5367 7.38339C37.5367 6.8904 37.6539 6.44051 37.8884 6.03371C38.1262 5.62347 38.4486 5.30113 38.8554 5.06671C39.2656 4.83228 39.7155 4.71507 40.2051 4.71507C40.667 4.71507 41.0893 4.82366 41.472 5.04085C41.8581 5.25804 42.1649 5.56659 42.3925 5.96649C42.62 6.36295 42.7338 6.80767 42.7338 7.30065ZM38.7623 6.78871H41.4513C41.3996 6.48878 41.2548 6.24746 41.0169 6.06474C40.7825 5.87858 40.4895 5.7855 40.1378 5.7855C39.7896 5.7855 39.4949 5.87341 39.2536 6.04923C39.0122 6.22505 38.8485 6.47154 38.7623 6.78871ZM47.2846 4.82366H48.4636V10H47.2846V9.30189C47.1467 9.53632 46.9226 9.72938 46.6123 9.88106C46.3055 10.0293 45.9797 10.1034 45.635 10.1034C44.9386 10.1034 44.3491 9.84314 43.8665 9.32258C43.3873 8.80201 43.1477 8.16251 43.1477 7.40407C43.1477 6.65253 43.3873 6.01648 43.8665 5.49591C44.3491 4.97535 44.9386 4.71507 45.635 4.71507C45.9763 4.71507 46.3021 4.79091 46.6123 4.9426C46.9226 5.09429 47.1467 5.28734 47.2846 5.52177V4.82366ZM45.878 8.98128C46.1676 8.98128 46.4417 8.90888 46.7003 8.76409C46.9623 8.6193 47.157 8.43486 47.2846 8.21078V6.62323C47.157 6.39225 46.964 6.20436 46.7054 6.05957C46.4469 5.91133 46.1711 5.83721 45.878 5.83721C45.4333 5.83721 45.061 5.98717 44.7611 6.2871C44.4611 6.58358 44.3112 6.95591 44.3112 7.40407C44.3112 7.85224 44.4611 8.22801 44.7611 8.53139C45.061 8.83132 45.4333 8.98128 45.878 8.98128ZM52.5284 5.9458H51.1683V8.02979C51.1683 8.3435 51.2545 8.57621 51.4269 8.72789C51.6027 8.87613 51.8423 8.95025 52.1457 8.95025C52.2939 8.95025 52.4215 8.93646 52.5284 8.90888V10C52.3456 10.0414 52.1336 10.0621 51.8923 10.0621C51.3097 10.0621 50.846 9.88796 50.5013 9.53977C50.1565 9.19157 49.9841 8.69514 49.9841 8.05047V5.9458H49.0016V4.82366H49.9841V3.43262H51.1683V4.82366H52.5284V5.9458ZM53.3094 2.64143C53.4577 2.49319 53.6352 2.41907 53.842 2.41907C54.0489 2.41907 54.2264 2.49319 54.3747 2.64143C54.5264 2.78967 54.6022 2.96549 54.6022 3.16889C54.6022 3.37918 54.5264 3.55845 54.3747 3.70669C54.2264 3.85493 54.0489 3.92905 53.842 3.92905C53.6352 3.92905 53.4577 3.85493 53.3094 3.70669C53.1612 3.55845 53.0871 3.37918 53.0871 3.16889C53.0871 2.96549 53.1612 2.78967 53.3094 2.64143ZM53.2474 4.82366H54.4212V10H53.2474V4.82366ZM58.2274 3.49984C57.924 3.49984 57.6862 3.57569 57.5138 3.72737C57.3414 3.87561 57.2552 4.10659 57.2552 4.42031V4.82366H58.5997V5.9458H57.2552V10H56.071V5.9458H55.0833V4.82366H56.071V4.39963C56.071 3.75495 56.2417 3.25852 56.583 2.91033C56.9277 2.55869 57.3914 2.38287 57.974 2.38287C58.205 2.38287 58.4136 2.40528 58.5997 2.4501V3.54121C58.5066 3.51363 58.3825 3.49984 58.2274 3.49984ZM62.8144 4.82366H64.0865L61.1597 11.8203H59.8927L60.8235 9.72593L58.7706 4.82366H60.0375L61.4286 8.3504L62.8144 4.82366Z" fill="white"/>
<path d="M25.8148 15.5732H28.7961V16.3837H26.6606V17.5748H28.5635V18.3817H26.6606V19.8195H28.7961V20.6265H25.8148V15.5732ZM32.6443 20.6265H31.6788L30.8647 19.4847L30.0542 20.6265H29.0957L30.3855 18.8081L29.1662 17.099H30.1423L30.8718 18.128L31.6048 17.099H32.5597L31.3546 18.8011L32.6443 20.6265ZM35.3825 17.099H36.186V20.6265H35.3825V20.1507C35.2886 20.3105 35.1359 20.442 34.9244 20.5454C34.7153 20.6464 34.4933 20.6969 34.2584 20.6969C33.7839 20.6969 33.3821 20.5196 33.0532 20.1648C32.7267 19.8101 32.5634 19.3743 32.5634 18.8575C32.5634 18.3453 32.7267 17.9119 33.0532 17.5571C33.3821 17.2024 33.7839 17.025 34.2584 17.025C34.491 17.025 34.713 17.0767 34.9244 17.1801C35.1359 17.2834 35.2886 17.415 35.3825 17.5748V17.099ZM34.424 19.9323C34.6214 19.9323 34.8081 19.8829 34.9843 19.7842C35.1629 19.6856 35.2956 19.5599 35.3825 19.4072V18.3253C35.2956 18.1679 35.1641 18.0399 34.9879 17.9412C34.8117 17.8402 34.6237 17.7897 34.424 17.7897C34.121 17.7897 33.8673 17.8919 33.6629 18.0963C33.4585 18.2983 33.3563 18.5521 33.3563 18.8575C33.3563 19.1629 33.4585 19.4189 33.6629 19.6257C33.8673 19.8301 34.121 19.9323 34.424 19.9323ZM40.9822 17.025C41.4121 17.025 41.7598 17.1578 42.0253 17.4232C42.2931 17.6863 42.427 18.0352 42.427 18.4698V20.6265H41.6095V18.6214C41.6095 18.3582 41.5401 18.1503 41.4015 17.9976C41.2629 17.8449 41.075 17.7686 40.8377 17.7686C40.6827 17.7686 40.5311 17.8144 40.3831 17.906C40.2351 17.9976 40.12 18.1127 40.0378 18.2513L40.0589 18.3747V20.6265H39.2519V18.6214C39.2519 18.3606 39.1815 18.1538 39.0405 18.0011C38.8996 17.8461 38.7163 17.7686 38.4908 17.7686C38.3169 17.7686 38.1584 17.8144 38.0151 17.906C37.8741 17.9953 37.766 18.1127 37.6909 18.2584V20.6265H36.8909V17.099H37.6909V17.5607C37.7966 17.415 37.9399 17.2893 38.1208 17.1836C38.3017 17.0779 38.5166 17.025 38.7656 17.025C39.2566 17.025 39.6102 17.2153 39.8263 17.5959C39.9626 17.4338 40.1306 17.2987 40.3303 17.1906C40.53 17.0802 40.7473 17.025 40.9822 17.025ZM47.2514 20.6265H46.2506L45.0066 18.7658L43.7733 20.6265H42.7866L44.5168 18.0223L42.8853 15.5732H43.8966L45.0207 17.2717L46.1484 15.5732H47.128L45.5141 18.0082L47.2514 20.6265ZM51.0293 15.5732C51.4945 15.5732 51.8797 15.72 52.1852 16.0137C52.4929 16.3073 52.6468 16.6762 52.6468 17.1202C52.6468 17.5712 52.4929 17.9436 52.1852 18.2372C51.8797 18.5309 51.4945 18.6777 51.0293 18.6777H49.9404V20.6265H49.0947V15.5732H51.0293ZM51.0293 17.8708C51.2478 17.8708 51.4299 17.7991 51.5755 17.6558C51.7212 17.5125 51.794 17.334 51.794 17.1202C51.794 16.9111 51.7212 16.7361 51.5755 16.5951C51.4299 16.4541 51.2478 16.3837 51.0293 16.3837H49.9404V17.8708H51.0293ZM53.9437 15.5732V20.6265H53.1438V15.5732H53.9437ZM57.2246 17.099H58.0281V20.6265H57.2246V20.1507C57.1307 20.3105 56.978 20.442 56.7665 20.5454C56.5574 20.6464 56.3354 20.6969 56.1005 20.6969C55.626 20.6969 55.2242 20.5196 54.8953 20.1648C54.5688 19.8101 54.4055 19.3743 54.4055 18.8575C54.4055 18.3453 54.5688 17.9119 54.8953 17.5571C55.2242 17.2024 55.626 17.025 56.1005 17.025C56.3331 17.025 56.5551 17.0767 56.7665 17.1801C56.978 17.2834 57.1307 17.415 57.2246 17.5748V17.099ZM56.2661 19.9323C56.4635 19.9323 56.6502 19.8829 56.8264 19.7842C57.005 19.6856 57.1377 19.5599 57.2246 19.4072V18.3253C57.1377 18.1679 57.0062 18.0399 56.83 17.9412C56.6538 17.8402 56.4658 17.7897 56.2661 17.7897C55.9631 17.7897 55.7094 17.8919 55.505 18.0963C55.3006 18.2983 55.1984 18.5521 55.1984 18.8575C55.1984 19.1629 55.3006 19.4189 55.505 19.6257C55.7094 19.8301 55.9631 19.9323 56.2661 19.9323ZM60.798 17.8637H59.8712V19.2839C59.8712 19.4976 59.93 19.6562 60.0474 19.7596C60.1673 19.8606 60.3305 19.9111 60.5373 19.9111C60.6383 19.9111 60.7252 19.9017 60.798 19.8829V20.6265C60.6735 20.6547 60.529 20.6688 60.3646 20.6688C59.9676 20.6688 59.6516 20.5501 59.4167 20.3128C59.1817 20.0756 59.0643 19.7373 59.0643 19.2979V17.8637H58.3947V17.099H59.0643V16.1511H59.8712V17.099H60.798V17.8637ZM63.2332 16.1969C63.0265 16.1969 62.8644 16.2486 62.7469 16.352C62.6294 16.453 62.5707 16.6104 62.5707 16.8242V17.099H63.4869V17.8637H62.5707V20.6265H61.7637V17.8637H61.0907V17.099H61.7637V16.8101C61.7637 16.3707 61.88 16.0324 62.1126 15.7952C62.3475 15.5555 62.6635 15.4357 63.0605 15.4357C63.2179 15.4357 63.3601 15.451 63.4869 15.4815V16.2251C63.4235 16.2063 63.3389 16.1969 63.2332 16.1969ZM66.6727 20.1719C66.3203 20.5219 65.8857 20.6969 65.3688 20.6969C64.852 20.6969 64.4186 20.5219 64.0685 20.1719C63.7185 19.8218 63.5435 19.386 63.5435 18.8645C63.5435 18.343 63.7185 17.906 64.0685 17.5536C64.4186 17.2012 64.852 17.025 65.3688 17.025C65.8857 17.025 66.3203 17.2012 66.6727 17.5536C67.0251 17.906 67.2013 18.343 67.2013 18.8645C67.2013 19.386 67.0251 19.8218 66.6727 20.1719ZM65.3688 19.9252C65.6625 19.9252 65.9092 19.823 66.1089 19.6186C66.3086 19.4142 66.4084 19.1629 66.4084 18.8645C66.4084 18.5614 66.3086 18.3077 66.1089 18.1033C65.9092 17.899 65.6625 17.7968 65.3688 17.7968C65.0752 17.7968 64.8297 17.899 64.6323 18.1033C64.435 18.3077 64.3363 18.5614 64.3363 18.8645C64.3363 19.1652 64.435 19.4178 64.6323 19.6221C64.832 19.8242 65.0775 19.9252 65.3688 19.9252ZM69.4321 17.025C69.6012 17.025 69.7292 17.0438 69.8162 17.0814V17.839C69.647 17.7921 69.4978 17.7686 69.3686 17.7686C69.223 17.7686 69.0691 17.8238 68.907 17.9342C68.7449 18.0423 68.6192 18.1891 68.5299 18.3747V20.6265H67.73V17.099H68.5299V17.5818C68.6169 17.4173 68.7472 17.2834 68.9211 17.1801C69.0949 17.0767 69.2653 17.025 69.4321 17.025ZM74.3622 17.025C74.7921 17.025 75.1398 17.1578 75.4052 17.4232C75.6731 17.6863 75.807 18.0352 75.807 18.4698V20.6265H74.9894V18.6214C74.9894 18.3582 74.9201 18.1503 74.7815 17.9976C74.6429 17.8449 74.455 17.7686 74.2177 17.7686C74.0626 17.7686 73.9111 17.8144 73.7631 17.906C73.6151 17.9976 73.5 18.1127 73.4178 18.2513L73.4389 18.3747V20.6265H72.6319V18.6214C72.6319 18.3606 72.5614 18.1538 72.4205 18.0011C72.2795 17.8461 72.0963 17.7686 71.8708 17.7686C71.6969 17.7686 71.5383 17.8144 71.395 17.906C71.2541 17.9953 71.146 18.1127 71.0708 18.2584V20.6265H70.2709V17.099H71.0708V17.5607C71.1765 17.415 71.3198 17.2893 71.5007 17.1836C71.6816 17.0779 71.8966 17.025 72.1456 17.025C72.6366 17.025 72.9902 17.2153 73.2063 17.5959C73.3426 17.4338 73.5105 17.2987 73.7102 17.1906C73.9099 17.0802 74.1272 17.025 74.3622 17.025Z" fill="#00DC46"/>
</svg>
