<svg preserveAspectRatio="none" width="100%" height="100%" overflow="visible" style="display: block;" viewBox="0 0 675 583.495" fill="none" xmlns="http://www.w3.org/2000/svg">
<path id="Vector" d="M5.72926 435.861C20.4947 497.308 60.8632 544.656 120.736 568.877C146.007 579.102 173.871 584.012 203.542 583.452C207.866 583.368 212.336 583.169 216.832 582.847C292.371 577.429 364.71 539.669 412.09 508.936C471.823 470.198 527.206 420.005 565.269 370.27C568.104 396.692 570.921 423.197 572.498 441.775C573.085 448.744 575.068 455.522 578.326 461.698C581.584 467.875 586.05 473.323 591.455 477.712C596.86 482.102 603.091 485.343 609.773 487.24C616.455 489.137 623.449 489.651 630.333 488.749C657.265 485.262 677.216 459.651 674.802 431.652C672.931 409.96 669.731 380.257 666.634 351.538L654.832 223.181C653.953 212.33 650.575 201.836 644.966 192.531C639.357 183.226 631.672 175.367 622.522 169.578C613.371 163.789 603.007 160.23 592.252 159.184C581.498 158.137 570.649 159.632 560.568 163.549C423.822 216.765 314.487 243.284 313.618 243.502C300.186 245.834 288.222 253.446 280.36 264.665C272.498 275.884 269.381 289.79 271.695 303.324C274.008 316.859 281.563 328.913 292.698 336.835C303.832 344.757 317.633 347.898 331.066 345.566C334.381 344.987 397.964 329.247 490.362 298.476C460.346 340.605 409.983 387.162 356.458 421.871C277.51 473.068 205.547 491.632 159.029 472.791C130.75 461.362 112.35 440.443 105.817 412.303C96.5632 372.406 110.575 322.349 144.685 269.802C167.587 234.513 196.562 203.67 229.407 177.551C268 146.857 326.934 108.633 386.353 103.55C400.199 102.372 413.425 96.4713 422.59 85.9631C427.124 80.7967 430.581 74.764 432.754 68.224C434.928 61.684 435.774 54.7703 435.241 47.8943C433.127 19.497 408.38 -1.9505 380.146 0.140846C287.44 7.16132 202.674 65.6546 153.792 106.317C111.916 141.168 75.7755 182.602 48.1861 229.745C16.171 284.441 -12.6061 359.549 5.72926 435.835" fill="var(--fill-0, #F0EFE2)"/>
</svg>
