<svg preserveAspectRatio="none" width="100%" height="100%" overflow="visible" style="display: block;" viewBox="0 0 298.621 240.006" fill="none" xmlns="http://www.w3.org/2000/svg">
<g id="Group">
<path id="Vector" d="M2.21553 183.296C7.93098 206.896 23.5576 225.088 46.7277 234.394C56.5067 238.325 67.2989 240.208 78.7848 239.988C80.4587 239.955 82.1877 239.878 83.9276 239.757C113.166 237.676 141.159 223.172 159.506 211.367C182.632 196.489 204.062 177.206 218.797 158.1C219.898 168.253 220.988 178.429 221.594 185.565C222.398 194.936 229.754 202.535 239.07 203.625C240.689 203.812 242.341 203.812 243.982 203.592C254.411 202.26 262.13 192.415 261.194 181.655C260.468 173.319 259.234 161.91 258.034 150.876L253.464 101.573C252.77 93.0385 248.211 85.5391 240.965 80.9799C233.718 76.4318 224.975 75.5838 216.98 78.6673C164.054 99.1063 121.733 109.293 121.392 109.381C110.589 111.242 103.309 121.55 105.171 132.353C107.032 143.156 117.328 150.446 128.142 148.585C129.431 148.365 154.033 142.319 189.801 130.492C178.194 146.68 158.691 164.564 137.977 177.889C107.417 197.557 79.5667 204.682 61.5614 197.447C50.6151 193.053 43.4901 185.014 40.9682 174.2C37.3892 158.882 42.8073 139.643 56.0112 119.457C64.8762 105.901 76.0868 94.0516 88.8061 84.0193C103.739 72.225 126.557 57.5455 149.551 55.5963C154.914 55.1448 160.034 52.8762 163.58 48.8347C167.137 44.7821 168.877 39.5732 168.481 34.2212C167.666 23.3189 158.085 15.0706 147.15 15.8745C111.271 18.5726 78.4545 41.0379 59.5351 56.6755C43.3249 70.0666 29.3391 85.9795 18.6571 104.095C6.25708 125.14 -4.87646 153.992 2.21553 183.296Z" fill="var(--fill-0, #00DC46)"/>
<path id="Vector_2" d="M261.47 0.00641773C241.361 0.38084 225.305 17.0426 225.679 37.1513C226.054 57.26 242.716 73.3161 262.824 72.9416C282.933 72.5672 298.989 55.9054 298.615 35.7968C298.24 15.6881 281.578 -0.368004 261.47 0.00641773Z" fill="var(--fill-0, #00DC46)"/>
</g>
</svg>
