<svg preserveAspectRatio="none" width="100%" height="100%" overflow="visible" style="display: block;" viewBox="0 0 13.5 13.5" fill="none" xmlns="http://www.w3.org/2000/svg">
<g id="star-circle--reward-social-rating-media-rate-it-star">
<path id="Star 1" d="M6.287 3.467C6.32451 3.37499 6.38859 3.29624 6.47106 3.2408C6.55352 3.18537 6.65063 3.15576 6.75 3.15576C6.84937 3.15576 6.94648 3.18537 7.02894 3.2408C7.11141 3.29624 7.17549 3.37499 7.213 3.467L7.915 5.18L9.817 5.347C9.91587 5.35571 10.0099 5.39365 10.0871 5.45599C10.1644 5.51833 10.2213 5.60224 10.2507 5.69704C10.2801 5.79184 10.2806 5.89324 10.2521 5.98833C10.2237 6.08342 10.1676 6.1679 10.091 6.231L8.93 7.185C8.85886 7.24326 8.80517 7.32002 8.77482 7.40682C8.74448 7.49362 8.73866 7.58711 8.758 7.677L9.138 9.438C9.15911 9.53532 9.15068 9.63672 9.11378 9.72922C9.07689 9.82171 9.01322 9.90109 8.93093 9.95716C8.84864 10.0132 8.75148 10.0435 8.6519 10.044C8.55232 10.0445 8.45486 10.0152 8.372 9.96L6.75 8.875L5.128 9.96C5.04514 10.0156 4.94756 10.0451 4.84779 10.0448C4.74802 10.0444 4.65063 10.0143 4.56815 9.95812C4.48567 9.90198 4.42187 9.82246 4.38495 9.72977C4.34804 9.63708 4.3397 9.53547 4.361 9.438L4.741 7.677C4.76057 7.58729 4.75506 7.49392 4.72507 7.40713C4.69509 7.32035 4.64178 7.24349 4.571 7.185L3.409 6.231C3.33239 6.1679 3.2763 6.08342 3.24786 5.98833C3.21942 5.89324 3.21993 5.79184 3.24931 5.69704C3.27869 5.60224 3.33563 5.51833 3.41286 5.45599C3.49009 5.39365 3.58413 5.35571 3.683 5.347L5.585 5.18L6.287 3.467Z" stroke="var(--stroke-0, #FFC9A5)" stroke-linecap="round" stroke-linejoin="round"/>
<path id="Vector" d="M6.75 13C10.75 13 13 10.75 13 6.75C13 2.75 10.75 0.5 6.75 0.5C2.75 0.5 0.5 2.75 0.5 6.75C0.5 10.75 2.75 13 6.75 13Z" stroke="var(--stroke-0, #FFC9A5)" stroke-linecap="round" stroke-linejoin="round"/>
</g>
</svg>
