<svg preserveAspectRatio="none" width="100%" height="100%" overflow="visible" style="display: block;" viewBox="0 0 16.0297 16.0539" fill="none" xmlns="http://www.w3.org/2000/svg">
<g id="pencil-square--change-document-edit-modify-paper-pencil-write-writing">
<path id="Intersect" d="M6.11923 2.52879C5.08036 2.57655 4.06297 2.6888 3.07066 2.80343C2.51136 2.86939 1.9907 3.12223 1.59301 3.521C1.19532 3.91977 0.943902 4.44112 0.879464 5.0006C0.736171 6.28785 0.597654 7.61929 0.597654 8.98058C0.597654 10.3431 0.736171 11.6745 0.879464 12.9629C1.00843 14.1093 1.92431 15.0252 3.07066 15.1577C4.36508 15.307 5.70249 15.4563 7.07094 15.4563C8.44059 15.4563 9.778 15.307 11.0724 15.1577C11.6311 15.0916 12.1513 14.839 12.5487 14.4407C12.9461 14.0425 13.1975 13.5218 13.2624 12.9629C13.3758 12.0184 13.4603 11.0707 13.5156 10.121" stroke="var(--stroke-0, #91A9AA)" stroke-width="1.19531" stroke-linecap="round" stroke-linejoin="round"/>
<path id="Vector" d="M11.7529 1.20666L7.35262 6.19806L6.75078 9.03408C6.65287 9.49023 7.12932 9.9225 7.57472 9.78159L10.3952 8.89556L14.94 4.11313C15.6959 3.31905 15.5633 1.99 14.6498 1.18159C13.7578 0.393471 12.461 0.404218 11.7529 1.20666Z" stroke="var(--stroke-0, #91A9AA)" stroke-width="1.19531" stroke-linecap="round" stroke-linejoin="round"/>
</g>
</svg>
