<svg preserveAspectRatio="none" width="100%" height="100%" overflow="visible" style="display: block;" viewBox="0 0 16.7692 15.935" fill="none" xmlns="http://www.w3.org/2000/svg">
<g id="deepfake-technology-1--automated-face-head-fake-generated-artificial-intelligence-ai">
<path id="Vector" d="M14.2075 12.8189V10.7701C14.8995 10.7991 15.2462 10.7351 15.6629 10.446C16.0355 10.1876 16.1593 9.70032 16.0373 9.26367C14.8439 4.99794 12.9919 0.6875 7.65318 0.6875V15.2475H11.7789C13.1201 15.2475 14.2075 14.1602 14.2075 12.8189Z" stroke="url(#paint0_linear_0_7)" stroke-width="1.375" stroke-linecap="round" stroke-linejoin="round"/>
<path id="Vector 1296" d="M11.9411 7.37189V7.56833" stroke="url(#paint1_linear_0_7)" stroke-width="1.375" stroke-linecap="round" stroke-linejoin="round"/>
<path id="Vector_2" d="M3.50726 4.40803C4.1772 4.40803 4.55405 4.03119 4.55405 3.36124C4.55405 2.69129 4.1772 2.31445 3.50726 2.31445C2.83731 2.31445 2.46047 2.69129 2.46047 3.36124C2.46047 4.03119 2.83731 4.40803 3.50726 4.40803Z" stroke="url(#paint2_linear_0_7)" stroke-width="1.375" stroke-linecap="round" stroke-linejoin="round"/>
<path id="Vector_3" d="M1.73429 9.29492C2.40423 9.29492 2.78108 8.91808 2.78108 8.24814C2.78108 7.57819 2.40423 7.20135 1.73429 7.20135C1.06434 7.20135 0.6875 7.57819 0.6875 8.24814C0.6875 8.91808 1.06434 9.29492 1.73429 9.29492Z" stroke="url(#paint3_linear_0_7)" stroke-width="1.375" stroke-linecap="round" stroke-linejoin="round"/>
<path id="Vector_4" d="M2.57153 14.1818C3.24148 14.1818 3.61832 13.805 3.61832 13.1351C3.61832 12.4652 3.24148 12.0882 2.57153 12.0882C1.90159 12.0882 1.52475 12.4652 1.52475 13.1351C1.52475 13.805 1.90159 14.1818 2.57153 14.1818Z" stroke="url(#paint4_linear_0_7)" stroke-width="1.375" stroke-linecap="round" stroke-linejoin="round"/>
<path id="Ellipse 1554" d="M4.55453 3.36073H7.65333" stroke="url(#paint5_linear_0_7)" stroke-width="1.375" stroke-linecap="round" stroke-linejoin="round"/>
<path id="Ellipse 1557" d="M5.78305 6.00453H7.65299" stroke="url(#paint6_linear_0_7)" stroke-width="1.375" stroke-linecap="round" stroke-linejoin="round"/>
<path id="Ellipse 1558" d="M5.63615 13.1348V10.7047H4.30607" stroke="url(#paint7_linear_0_7)" stroke-width="1.375" stroke-linecap="round" stroke-linejoin="round"/>
<path id="Ellipse 1556" d="M3.61956 13.1349H7.65337" stroke="url(#paint8_linear_0_7)" stroke-width="1.375" stroke-linecap="round" stroke-linejoin="round"/>
<path id="Ellipse 1555" d="M2.78175 8.24763H7.65342" stroke="url(#paint9_linear_0_7)" stroke-width="1.375" stroke-linecap="round" stroke-linejoin="round"/>
</g>
<defs>
<linearGradient id="paint0_linear_0_7" x1="11.8679" y1="0.6875" x2="11.8679" y2="15.2475" gradientUnits="userSpaceOnUse">
<stop stop-color="white"/>
<stop offset="1" stop-color="#D7D7D7"/>
</linearGradient>
<linearGradient id="paint1_linear_0_7" x1="12.4411" y1="7.37189" x2="12.4411" y2="7.56833" gradientUnits="userSpaceOnUse">
<stop stop-color="white"/>
<stop offset="1" stop-color="#D7D7D7"/>
</linearGradient>
<linearGradient id="paint2_linear_0_7" x1="3.50726" y1="2.31445" x2="3.50726" y2="4.40803" gradientUnits="userSpaceOnUse">
<stop stop-color="white"/>
<stop offset="1" stop-color="#D7D7D7"/>
</linearGradient>
<linearGradient id="paint3_linear_0_7" x1="1.73429" y1="7.20135" x2="1.73429" y2="9.29492" gradientUnits="userSpaceOnUse">
<stop stop-color="white"/>
<stop offset="1" stop-color="#D7D7D7"/>
</linearGradient>
<linearGradient id="paint4_linear_0_7" x1="2.57153" y1="12.0882" x2="2.57153" y2="14.1818" gradientUnits="userSpaceOnUse">
<stop stop-color="white"/>
<stop offset="1" stop-color="#D7D7D7"/>
</linearGradient>
<linearGradient id="paint5_linear_0_7" x1="6.10393" y1="3.36073" x2="6.10393" y2="4.36073" gradientUnits="userSpaceOnUse">
<stop stop-color="white"/>
<stop offset="1" stop-color="#D7D7D7"/>
</linearGradient>
<linearGradient id="paint6_linear_0_7" x1="6.71802" y1="6.00453" x2="6.71802" y2="7.00453" gradientUnits="userSpaceOnUse">
<stop stop-color="white"/>
<stop offset="1" stop-color="#D7D7D7"/>
</linearGradient>
<linearGradient id="paint7_linear_0_7" x1="4.97111" y1="10.7047" x2="4.97111" y2="13.1348" gradientUnits="userSpaceOnUse">
<stop stop-color="white"/>
<stop offset="1" stop-color="#D7D7D7"/>
</linearGradient>
<linearGradient id="paint8_linear_0_7" x1="5.63647" y1="13.1349" x2="5.63647" y2="14.1349" gradientUnits="userSpaceOnUse">
<stop stop-color="white"/>
<stop offset="1" stop-color="#D7D7D7"/>
</linearGradient>
<linearGradient id="paint9_linear_0_7" x1="5.21758" y1="8.24763" x2="5.21758" y2="9.24763" gradientUnits="userSpaceOnUse">
<stop stop-color="white"/>
<stop offset="1" stop-color="#D7D7D7"/>
</linearGradient>
</defs>
</svg>
