<svg preserveAspectRatio="none" width="100%" height="100%" overflow="visible" style="display: block;" viewBox="0 0 35.3835 33.11" fill="none" xmlns="http://www.w3.org/2000/svg">
<g id="ios-ipados">
<path id="Vector" d="M19.6125 31.7227C22.713 31.8084 25.7631 31.7227 28.9518 31.4757C31.3666 31.2841 33.237 29.3154 33.4462 26.9006C33.7336 23.5606 34.0285 20.1022 34.0285 16.5556C34.0285 13.0089 33.7336 9.54798 33.4462 6.21055C33.237 3.79571 31.3666 1.82451 28.9518 1.63546C24.296 1.26151 19.6176 1.26151 14.9618 1.63546C13.9283 1.71612 12.9957 2.12447 12.247 2.75465C11.5119 3.3772 10.9697 4.19658 10.6842 5.11656" stroke="var(--stroke-0, #00DC46)" stroke-width="2.71" stroke-linecap="round" stroke-linejoin="round"/>
<path id="Vector_2" d="M21.6291 24.5336H23.6885" stroke="var(--stroke-0, #00DC46)" stroke-width="2.71" stroke-linecap="round" stroke-linejoin="round"/>
<path id="Intersect" d="M1.355 20.9366C1.355 18.8343 1.5012 16.7749 1.66757 14.7734C1.86923 12.3586 3.74968 10.3672 6.16704 10.2109C7.96895 10.0884 9.77711 10.0884 11.579 10.2109C13.9989 10.3672 15.8768 12.3586 16.0785 14.7734C16.2449 16.7749 16.3911 18.8343 16.3911 20.9366C16.3911 23.0388 16.2449 25.0957 16.0785 27.0997C15.8768 29.5146 13.9964 31.5059 11.579 31.6622C9.69604 31.7857 8.05002 31.7857 6.16704 31.6622C3.74968 31.5059 1.86923 29.5146 1.66757 27.0997C1.47848 25.0505 1.37504 22.9944 1.35752 20.9366H1.355Z" stroke="var(--stroke-0, #00DC46)" stroke-width="2.71" stroke-linecap="round" stroke-linejoin="round"/>
<path id="Vector 122" d="M7.64166 26.6132H10.1044" stroke="var(--stroke-0, #00DC46)" stroke-width="2.71" stroke-linecap="round" stroke-linejoin="round"/>
</g>
</svg>
