<svg preserveAspectRatio="none" width="100%" height="100%" overflow="visible" style="display: block;" viewBox="0 0 33.2687 33.2473" fill="none" xmlns="http://www.w3.org/2000/svg">
<g id="face-scan-1--identification-angle-secure-human-id-person-face-security-brackets">
<path id="Vector" d="M9.055 9.06434V11.5851" stroke="var(--stroke-0, #00DC46)" stroke-width="2.71" stroke-linecap="round" stroke-linejoin="round"/>
<path id="Vector_2" d="M24.1793 9.06434V11.5851" stroke="var(--stroke-0, #00DC46)" stroke-width="2.71" stroke-linecap="round" stroke-linejoin="round"/>
<path id="Vector_3" d="M16.6171 12.8454V15.9963C16.6171 17.3885 15.4886 18.517 14.0964 18.517H12.8361" stroke="var(--stroke-0, #00DC46)" stroke-width="2.71" stroke-linecap="round" stroke-linejoin="round"/>
<path id="Vector_4" d="M12.297 24.9797C13.4628 26.0873 15.0095 26.7046 16.6175 26.7046C18.2255 26.7046 19.7721 26.0873 20.938 24.9797" stroke="var(--stroke-0, #00DC46)" stroke-width="2.71" stroke-linecap="round" stroke-linejoin="round"/>
<path id="Intersect" d="M24.2138 1.35511C25.1485 1.45581 26.0749 1.56375 26.9922 1.67005C29.4108 1.95038 31.3406 3.87895 31.6124 6.29856C31.7147 7.2099 31.8178 8.13029 31.9136 9.05899" stroke="var(--stroke-0, #00DC46)" stroke-width="2.71" stroke-linecap="round" stroke-linejoin="round"/>
<path id="Intersect_2" d="M24.2138 31.8922C25.1485 31.7917 26.0749 31.6838 26.9922 31.5774C29.4108 31.2971 31.3406 29.3685 31.6124 26.9489C31.7147 26.0376 31.8178 25.1171 31.9136 24.1884" stroke="var(--stroke-0, #00DC46)" stroke-width="2.71" stroke-linecap="round" stroke-linejoin="round"/>
<path id="Intersect_3" d="M9.055 1.35511C8.12019 1.45581 7.19381 1.56375 6.27657 1.67005C3.85797 1.95038 1.92811 3.87895 1.65648 6.29856C1.55416 7.2099 1.451 8.13029 1.35511 9.05899" stroke="var(--stroke-0, #00DC46)" stroke-width="2.71" stroke-linecap="round" stroke-linejoin="round"/>
<path id="Intersect_4" d="M9.055 31.8922C8.12019 31.7917 7.19381 31.6838 6.27657 31.5774C3.85797 31.2971 1.92811 29.3685 1.65648 26.9489C1.55416 26.0376 1.451 25.1171 1.35511 24.1884" stroke="var(--stroke-0, #00DC46)" stroke-width="2.71" stroke-linecap="round" stroke-linejoin="round"/>
</g>
</svg>
